<?xml version="1.0" encoding="UTF-8"?><svg id="Layer_1" xmlns="http://www.w3.org/2000/svg" viewBox="0 0 797.93 165.91"><path d="M13.86,138.39c-2.7-.54-3.64-.81-4.86-1.75-.4-.4-1.21-.67-1.75-.94-.27-.13-.41-.13-.54-.27-.13,0-.13-.13-.67-.54q-.41-.27-.67-.54c-.54-1.21-1.35-2.02-2.29-2.16l-.27-.27c-.27-1.08-.81-2.16-1.35-3.24-.94-2.16-1.75-4.18-1.35-6.34.13-.94.13-1.75.13-3.24v-.94c-.13-1.48.41-2.83,1.35-4.32l.54-.81c.54-1.08,1.35-2.16,1.75-3.24,1.35-2.83,2.29-4.32,3.64-4.99.67-.54,1.21-.94,1.62-1.62.41-.94.81-1.48,1.89-2.56l1.08-1.08c.13-.27.27-.27.81-.54.54-.4.54-.27.67-.4,1.62-2.56,3.91-4.45,6.61-5.53,4.32-3.1,9.04-4.72,16.05-4.99,4.59-.13,6.88.27,9.04,1.75.94.81,2.29.27,2.7-.94v-.27c.27-.54.27-.81.41-1.08.27-.41.4-.67.94-1.35.54-.94,1.35-1.89,1.48-2.97s.4-1.75.94-3.37l.4-.81c.27-.67.54-1.48.67-2.02h-.13l2.02-4.05v.13c1.08-1.08,1.21-1.75.54-2.97-.13,0,.13-.67.54-.94,1.48-1.08,2.16-2.43,2.16-4.18,0-.67.13-1.21.67-1.62.81-.94,1.08-1.75.94-2.97v-.54c.13-.94,0-1.35-.81-1.75-.13,0-.4-.27-.67-.4-.94-.54-2.02-.67-2.7-.4-1.21.54-1.89.54-2.56.27s-1.62-.41-2.29-.67c-1.89-.54-2.83-.94-3.91-1.35-6.07-2.43-7.42-4.59-8.63-7.28-.13-.27.13-3.37.41-3.91.13-.41.27-.54.54-1.21.4-1.08.94-2.16,1.35-2.97.27-.54.54-.81.94-1.48.54-.67,1.21-1.62,1.62-2.43,1.48-.94,2.02-1.21,3.37-.81.67.13.67.81-.13,1.89-.27.27-.27.4-.41.81-.27.4-.4.67-.4.54-2.97,2.7-4.18,5.26-3.91,8.63,0,.94.94,2.29,2.29,3.1,2.02,1.35,3.51,2.16,5.26,2.7,2.02.54,5.13,1.35,7.55,1.08.54,0,.94,0,1.35-.13h1.35c2.56.4,4.45-.67,4.99-3.1l.41-1.35c.54-1.21.81-1.75.67-2.56,0-.27.27-.81.41-.94.67-.81,1.08-1.75,1.48-2.83.27-1.08.67-1.75,1.48-3.1.27-.41.67-.81.81-1.21.41-.67.54-1.08.81-2.16.13-.81.27-1.62.67-2.16.4-.94,6.07-8.77,6.74-9.44.54-.41.81-.67,1.62-1.21.54-.41,1.21-.94,1.62-1.35,2.16-2.02,4.32-2.16,8.09-.54,1.35.54,2.29,2.29,2.16,4.05-.13,3.1-.67,5.67-1.48,7.96-.13.4-.13.54-.54,1.35-.27.81-.67,1.75-.81,2.56,0,1.75-.81,2.83-2.16,4.05-1.35,1.48-2.56,2.83-3.78,4.32-.94,1.48-2.29,2.43-3.51,3.1-3.91,2.43-7.82,4.45-12,6.21-2.02,1.08-2.7,1.89-2.43,3.24.13.81-.13,1.62-.94,2.56-.54.81-.81,1.21-1.08,2.56-.13.81-.41,1.62-.81,2.16-1.08,1.35-1.62,2.83-1.48,4.32,0,.13,0,.4-.13.54l-3.24,6.34q-.14,0-.14.13c-.27.41-.4.54-.4.81-.13,2.16-.94,3.91-2.02,5.94-.54,1.08-1.21,2.43-1.62,3.51-.27,1.08-.54,1.75-1.21,3.24-.27.4-.41.81-.54,1.08-.54.94-.4,1.75.67,2.29,1.35.67,2.16,2.02,2.56,3.91.67,2.02,1.35,3.78,2.29,5.4.41.94,1.08,1.89,1.21,3.24.67,3.1,2.02,5.67,4.32,7.55.54.4.54.54.67.81,1.08,2.02,3.24,3.24,4.99,4.18.94.67,1.35.81,1.89,1.21.67,0,1.08.27,2.02.94.81.54,1.35.81,2.02.94,1.21.4,2.29,0,3.24-.4.54-.13.94-.41,1.35-.41,3.51-.13,5.94-1.35,8.36-4.05.13-.54.54-.94,1.75-1.62.67-.54,1.48-1.08,1.75-1.48.54-.81.94-1.21,2.02-2.43.67-.54,1.35-1.35,1.89-2.02.54-.81,1.08-1.62,2.56-3.64,1.08-1.48,2.16-2.97,2.56-3.64.27-.41.27-.54.67-1.08.94-1.48,1.35-2.16,1.89-2.29.54-.13.81.13,1.21.54.13,0,.13.81,0,.94-.13.67-.54,1.62-1.75,3.78-.67.67-1.21,1.62-2.7,3.78-1.08,1.89-1.75,2.83-2.16,3.24-1.08,1.08-1.62,1.75-2.83,3.51-1.48,2.16-3.24,4.05-4.99,4.99l-6.74,4.18c-.54.4-3.24.94-3.91.94-3.78.27-5.26-.27-9.17-1.21-.81-.14-1.75-.94-2.7-1.75l-1.62-1.62c-1.35-1.35-2.7-2.7-4.72-3.64-.13,0-.4-.4-.67-.81l-.27-.4c-.27-.4-.54-1.08-.94-1.75-.67-1.35-1.08-2.02-1.75-2.83-.27-.41-.54-1.08-.81-1.75-.54-1.21-.81-1.75-1.48-2.43-.14-.13-.41-.54-.67-1.62-.13-.67-.13-.94-.27-1.21l-.41-1.08c-1.08-2.97-1.75-3.91-3.37-5.26-1.48,1.21-2.43,2.7-2.83,4.59-.41,1.21-.94,2.29-1.35,2.97-2.7,3.78-4.99,7.69-6.34,11.87-.13.67-.54.94-.94,1.48-.67.94-1.08,1.48-1.21,2.02-.54,2.16-1.75,3.51-3.1,4.99l-1.35,1.89c-.13.27-.4.54-.4.67-.27.4-.4.54-.54.94-.27.54-.67,1.21-.81,1.35-.94.54-1.62,1.08-2.56,2.29-.67.67-1.35,1.48-1.89,1.89q-.27.13-.54.4c-.81.54-1.48.94-2.02,1.21-2.83,1.48-4.99,2.43-7.96,1.89l-1.08-.13ZM16.83,135.29c1.35,0,3.1-.13,3.78-.94.54-.67.94-1.08,2.02-1.89.81-.4,1.75-1.08,2.29-1.75.54-.67.81-1.08,1.89-2.02.67-.67,1.48-1.48,2.02-2.16l.27-.41c.54-.54,1.21-1.48,1.48-2.29.41-1.08.81-2.16,1.62-2.83.54-.54.81-.94,1.21-2.02.54-1.48,1.35-2.83,1.89-3.91.54-.81.94-1.48,1.48-2.83.27-.54.67-1.08.81-1.62.54-.81.81-1.48,1.35-2.97.81-1.75,1.48-3.51,2.56-4.86,1.21-1.35,1.89-2.56,3.1-5.53.13-.54.41-1.21.67-1.62.4-1.08.27-1.62-.94-2.56-2.16-1.75-4.18-2.43-6.34-2.29q-.54.13-2.29.13c-2.02-.13-5.26-.13-7.96,1.35-.41.27-.54.27-1.08.67-1.35.67-2.7,1.48-4.05,1.75-.54,0-1.21.41-1.48,1.08-1.08,1.75-2.7,2.7-4.59,3.78-.27.13-.54.4-.81.81-.14.27-.41.54-.41.54-1.21,1.75-2.02,2.83-2.83,3.51-.94.67-1.89,1.62-2.29,2.56q-.27.4-.4.81c-.54,1.21-.81,1.35-.81,1.21-2.29,1.89-3.51,3.91-3.91,6.21q0,.27-.13.54c0,.27-.14.67-.14.54-.94,1.35-1.21,2.7-1.21,5.53,0,.41.13.94.27,1.89.13.4.27.67.27,1.08,0,2.16,1.08,3.51,2.16,4.86.67.81.81,1.21,1.21,1.75.27.41,1.35,1.08,2.02,1.62,1.08.67,1.35.94,1.75,1.35,1.35.94,2.7,1.35,3.78,1.21.4-.13.67-.13,1.75-.27ZM75.64,47.61c.54-.41.81-.67,1.48-1.35.94-.81,2.02-1.89,2.97-2.56,1.08-.81,1.89-1.62,2.43-2.97.27-1.35.94-2.29,1.89-2.83.94-.54,1.35-1.21,1.75-2.29.13-.4.13-.54.27-.81.54-1.89.67-2.7.54-3.78.81-.94.81-2.02.4-4.05-.13-.27-.27-.67-.27-1.08-.13-.67-1.08-1.21-2.02-1.21-1.21.13-2.56.27-3.51,1.35-.41.54-.81.94-1.62,1.89-1.89,2.16-3.91,4.32-4.59,7.42-.13.81-.41,1.21-.81,1.89-2.16,2.97-4.05,6.07-4.72,9.71,0,.27-.13.54-.54.94l-.54.54c-.54.67-.67.94-.54,1.62-.54.67.67,1.35,1.21.54,2.43-.4,4.59-1.62,6.21-2.97Z" fill="#fff"/><path d="M104.23,116.81c-1.08-.81-1.62-1.21-2.29-1.62l-.41-.27-.4-.4c-.94-1.89-1.75-3.64-1.89-5.8l.41-2.02c0-.13,0-.27.13-.54.13-.54.27-.94.27-1.35,0-.27-.13-.54-.27-1.08-.27-.67-.41-1.08-.27-1.21.54-.81.81-1.35,1.08-2.56.4-.94.67-2.02,1.35-2.56.54-.54.81-1.08,1.08-2.16.27-.67.4-1.08.4-1.21,2.02-1.48,3.51-3.1,4.72-4.59,1.62-2.02,5.26-2.02,7.01-.13,1.21,1.35,1.48,2.02,1.21,2.83-.67,1.89-.27,2.97,1.62,4.18l.81.54c.81.41,1.21.67,1.48,1.75.13.27.13.67.27.94.54,1.89.54,2.83.27,3.91-.4.54-.54,1.08-.54,1.35-.27,1.48.13,2.16,1.21,2.7,3.78,1.35,7.42.67,10.66-2.02l.54-.4c.41-.27.41-.13.41-.27,1.21-.67,2.7-1.75,3.37-2.56.94-1.21,1.35-1.89,2.29-2.56.4-.27.81-.13,1.08.27.4.4.67.54.94.81-.41,1.35-.27.81-1.62,2.29l-1.62,2.02-2.29,1.75-.54.41c-.54.13-.67.27-.67.27-.41.27-.81.4-1.62.94-2.56,1.35-5.13,2.7-9.98,1.89-.67,0-1.89-.13-2.7-.54-1.48-.67-2.43.13-3.51,2.56-.94,1.62-2.16,2.43-5.13,3.51-.4.13-.54.27-1.48.4-.67.13-1.62.41-2.29.67-1.08.54-1.89.54-3.1-.13ZM110.44,113.57l1.75-1.48c3.24-2.16,3.24-3.1-.4-5.12-2.83-1.62-3.51-5.8-1.21-8.5.27-.41.4-.41.81-.94.4-.27.81-.67,1.08-.94.54-.54.94-1.08,1.08-1.62.4-1.89,0-2.16-.94-3.51-.27-.67-1.08-.81-2.02-.54-.81.4-1.48.94-1.89,1.62-2.7,3.51-4.18,5.94-5.4,9.85l-.4,1.35c-.81,2.43-.94,3.51-.41,4.86v1.08c-.13.94-.13,1.48,0,2.29s.94,1.48,1.75,1.89c.4.13.94.13,1.35.13q.54.13.81.27c1.35.54,2.7.27,4.05-.67ZM117.18,104.53c.27-.4.27-.67.27-1.48v-.81c0-.4-.13-.94-.13-1.62s-.13-1.08-.13-1.48-.67-.94-1.21-.94c-.81,0-1.48.14-1.62.41-.81.67-1.08,1.21-1.48,2.7,0,.41-.13.81-.13,1.08-.81,1.62,0,2.97,1.89,3.51,1.21.4,2.56-.27,2.56-1.35Z" fill="#fff"/><path d="M154.68,113.03c-1.35-.13-2.43-.94-2.97-2.29-.81-1.75-1.75-3.51-1.08-5.4l1.75-4.99c.13-.27.13-.4.54-.81.94-.94,1.21-1.35.67-2.02-.27-.67-1.35-1.08-2.16-1.35q-.54-.14-.81-.27c-.27,0-.67-.4-1.21-.81-1.48-1.35-2.56-1.75-3.64-1.35-1.21.67-2.02,1.89-2.29,3.1l-3.24,4.86c-.13.27-.27.27-.4.54-.54.81-1.08,1.62-1.75,2.16h-.54c-.4,0-1.21-1.08-1.08-1.21.4-.54.54-.94,1.08-1.75.4-.94.81-1.89,1.48-2.43,1.08-1.35,1.62-2.29,2.83-4.72.4-.81.81-1.75,1.21-2.43.67-1.08.67-2.29.13-4.32-.27-.81-.27-1.75.41-2.56l1.35-1.89c.13-.27.4-.67.4-.81,1.21-1.21,2.29-1.62,4.05-.94.81.27,1.35,1.62.81,2.29-.94,1.21-1.75,2.56-2.43,4.32-.67.94-.54,1.62.14,2.83.94,1.75,3.51,3.51,6.34,4.18.67.14,1.48.54,2.29.81.4.13.54.27.81.27.27.14.54,1.21.41,1.62-.41.4-.67.81-1.21,1.62-.27.54-.81,1.21-1.08,1.62-1.62,2.16-2.02,4.45-1.48,7.01.41,2.83,1.48,3.78,4.32,3.91.81,0,.94,0,1.21.13,1.75-.13,3.51-.27,5.67-1.35.4-.67.81-.94,1.08-.94,1.08-.4,1.75-.81,2.43-1.48.54-.41.81-.81,1.35-.94,1.35-.94,2.43-1.89,2.83-3.1.27-.4.4-.54.94-1.08.4-.4.81-.81.81-.94.94-1.75,1.62-2.56,2.02-2.56.27,0,.67.4,1.08,1.08,0,.27-.54,2.02-.81,2.02l-.54.81c-.27.54-.54.94-.94,1.35-.13.27-.27.4-.67.67-.81.54-.94.81-1.35,1.62-.27.67-1.62,2.16-2.02,2.29-.67.4-.94.67-1.89,1.08-.81.4-1.89.94-2.7,1.89-2.02,1.35-2.97,1.21-5.26,1.35-2.43.81-4.59.94-6.88-.67Z" fill="#fff"/><path d="M175.45,110.47c-1.08-2.43-1.35-3.91-1.08-5.4.13-.94.27-1.62.4-2.97.13-1.75.27-3.37,1.08-4.99.13-.54.27-.81.67-1.75.13-.54.4-1.21.67-1.75.81-2.02,1.89-3.51,3.1-4.59,2.02-1.75,3.64-2.43,5.67-2.29.81,0,1.48.27,2.29,1.08,1.48,1.48,1.75,2.7.81,4.18-.54,1.35-.81,2.29-.81,3.1-.41,3.24-2.43,4.99-4.72,6.88-.54.27-.81.54-2.02.94-3.24,1.35-4.05.67-3.24,5.93.54,1.48,1.62,2.56,3.64,3.51,4.05,1.75,6.2,1.35,9.17,0l1.35-.54c.81-.27,1.48-.67,2.29-.81.4-.13.94-.4,1.35-.67,1.08-.81,1.75-1.35,3.24-2.29,1.75-1.08,3.51-2.16,5.26-4.32l2.02-2.56c.4-.67,1.35-1.48,1.75-1.89.41-.27.67-.27,1.21.27.27,0,.41.67.13,1.35-.13.13-.27.4-.4.81-.27.67-.4,1.08-.54,1.08-.94,1.21-1.35,1.75-2.43,2.83-.4.54-1.08,1.21-1.75,1.89-1.48,1.75-3.1,3.1-4.99,3.91-1.08.54-2.29.94-2.97,1.75-3.78,2.29-5.93,2.43-9.71,2.83h-.67c-4.32.27-8.9-2.16-10.79-5.53ZM180.58,100.76c1.62-.67,2.83-1.89,3.24-3.1.27-.81.54-1.21.94-1.89,1.08-1.35,1.35-2.02,1.35-2.97v-.67c0-1.48-.54-2.43-1.62-2.43-.67-.14-1.35.13-1.89.81-.4.27-.4.41-.4.41-.81.67-1.21,1.21-1.89,2.56-.27.54-.13.4-.27.54-.67.94-.94,1.75-1.21,3.64-.13.67-.27,1.48-.54,2.16,0,.27,0,.67.13.94,0,.67,1.75.4,2.16,0Z" fill="#fff"/><path d="M231.02,114.52c-2.97-.81-4.18-3.24-5.26-6.07-.27-.67-.27-1.75,0-2.43.41-1.62.94-3.24,1.48-4.59l1.62-4.18c.27-.81,0-1.35-.67-1.62-.81-.4-1.75-.4-2.16,0-1.08.54-2.29,1.08-2.97,1.89-.54.4-.94.67-2.02,1.08-.94.27-2.02.81-2.56,1.48-.54.41-.81.67-1.48,1.35-.81.81-1.62,1.75-2.43,2.29-1.08.81-1.89,1.62-3.1,3.51-.81,1.08-1.62,2.29-2.43,2.97-.4.4-.54.67-1.08,1.35-.4.81-.94,1.48-1.48,1.62-.54.27-1.48-.4-1.75-1.21-.13-.94.13-2.02.54-2.56.67-.94.81-1.75,1.08-3.91,0-.67.14-1.35.27-1.89.54-2.16.94-4.05,1.75-5.53.67-1.21.94-1.62.94-2.29,0-2.29.67-4.05,2.29-6.21.54-.81,1.08-.81,1.89,0,.81.81.94,1.21.67,1.89-.67,1.21-1.08,2.29-1.75,4.59-.27.67-.54,1.62-.81,2.16q0,.14-.13.27c-.94,1.35-.94,1.75,0,2.83,1.08-.4,2.02-.67,2.83-1.21.67-.4,1.21-.81,2.56-1.89l2.29-1.75.27-.41c.94-.4,1.62-.81,3.24-1.75,2.16-1.08,4.32-2.29,6.47-2.43.54-.27,1.21.13,1.62.81,1.35,2.02,1.48,3.51.94,4.72,0,.27-.13.4-.27.94-.13.54-.13.81-.27.94-2.02,3.37-1.75,6.61-1.75,9.98,0,1.08.4,1.35,1.89,2.16,2.43,2.02,4.59,1.48,7.82,0,3.24-1.48,4.72-2.7,7.28-4.99,1.89-1.48,3.24-3.24,4.86-6.21.13,0,.27-.13.54-.27.54-.54.67-.54.94-.54.54.13.67.4.81.81,0,.27-.81,2.43-.81,2.56-.94.81-1.48,1.35-2.29,2.7-.81,1.21-1.75,2.56-3.51,3.51-.81.41-1.21.81-1.75,1.48-.54.67-.94.94-1.48,1.21l-.94.54c-1.08.67-2.29,1.35-3.1,1.35-.67.13-1.48.4-2.02.81-1.62.81-1.08.81-2.16.54-2.43,0-2.97,0-4.45-.4Z" fill="#fff"/><path d="M293.34,101.3c-.14.13-.14.27-.14.41l-.13.13c-.4.81-.54,1.21-.67,1.21l-4.72,6.47c-1.08,1.48-1.89,2.16-3.51,3.1-.13.13-.54.27-.67.27-2.43,1.62-3.51,1.75-5.26,2.16-.67,0-1.48.27-2.29.4h-1.35c-.4-.13-.67-.13-.94-.13-3.51-.54-4.72-1.75-6.88-4.99-.13-.27-.4-.67-.67-.94-.13-.27-1.21-.41-1.75-.27-.54.54-.94.81-2.02,1.62l-1.89,1.48c-.27.14-.4.14-.67.41-.54.4-1.08.81-1.62.94-2.56,1.62-4.59,1.48-7.01-.41-1.08-.81-1.48-1.48-1.35-2.56,0-.81-.13-1.48-.13-2.02-.13-1.21-.13-1.89.27-3.1l.41-1.35c.67-1.75.94-2.56.81-3.64-.13,0-.13-.41.27-.94,1.08-1.75,2.16-3.51,3.1-5.53,1.21-1.89,2.02-2.43,4.18-3.51.41-.54.54-.67,1.48-1.21.4-.13,1.08-.4,1.35-.81,1.08-.81,1.75-.94,2.83-.81,3.64.54,5.67,2.02,7.01,4.86,0,.27.27.54.41.81.27.54.4.81.4,1.48-.13.81-.67,1.35-1.21,1.48-.81.13-1.48-.27-1.62-1.08-.13-.41-.27-.67-.67-1.21-.27-.27-.41-.41-.41-.81-.54-1.48-1.48-2.02-3.51-2.16-2.16,0-3.78.67-4.86,1.89-.41.54-.67.81-1.35,1.35-.67.54-1.35,1.21-1.89,2.16-.27.4-.27.54-.67.94-.94,1.21-1.21,1.62-1.21,2.43,0,.4-.13.81-.27,1.08-1.62,2.29-1.75,3.51-1.75,5.4,0,.54-.13,1.08-.13,1.75,0,.4.13.81.27,1.48,0,.27.13.54.13.94.13,1.21,2.16,2.16,3.37,1.62,1.35-.67,2.7-1.35,3.51-2.43.67-1.08,1.21-1.62,2.02-2.29.94-.67,1.89-1.62,2.7-3.51l.54-1.35c.27-.4.54-.94.67-1.35.4-.67.94-1.08,2.02-1.48.27-.13.94.4.94.81.13,1.35.27,2.02,0,2.56-.67,2.7-.41,4.99,1.08,7.15.67,1.35,2.29,2.43,4.18,2.7.94-.13,1.75-.27,2.56-.54,1.75-.27,4.72-.54,7.55-3.51l1.62-1.62c.94-.67,1.89-1.35,2.56-2.43.27-.54.54-.67.94-1.48.4-.81.94-1.62,1.48-2.29.13-.27.27-.4.54-.67.13-.27.4-.54.54-.67.27-.41.81-.27,1.48.27.27.27.27.81,0,1.35Z" fill="#fff"/><path d="M421.88,81.47l-.41,3.64c-.13,1.62-1.21,2.56-2.43,3.78-.4.4-.94.94-1.21,1.35-2.29,2.83-5.4,4.18-8.36,5.67-2.02.94-4.32,1.21-6.34.81-4.45-1.08-8.63-2.16-12.68-4.18,0,.94,0,1.89.13,2.83.13,1.21.27,2.43.27,3.64.27,4.59-1.35,8.5-3.24,12.68-1.08,2.83-2.97,4.72-4.86,6.74-.54.41-1.21,1.08-1.62,1.48s-.67.67-1.62,1.35c-.81.67-1.89,1.48-2.43,2.29-.67.94-1.35,1.21-2.97,1.75-.41,0-.81.13-1.08.27-1.35.4-2.43.81-3.51,1.21-.94.4-2.02.81-2.83,1.08-4.05.94-7.55.4-11.33-.4l-2.29-.27c-.94-.13-1.35-.13-2.02-.27-2.16-.27-4.18-1.08-6.21-1.89-1.75-.67-3.51-1.62-5.4-2.83-2.29-1.21-3.91-3.51-5.4-5.8-.81-.94-1.08-1.35-1.48-2.02-.4-.4-.54-1.21-.81-2.56-.13-1.08-.27-1.35-.4-1.89-.41-.94-.54-2.02-.81-2.97-.27-1.48-.4-2.16-.67-2.97.14-1.08.14-2.16.14-3.24.13-.13.13-.27.13-.41v-1.48c.4-.4.67-.81.67-1.21-.13-3.78,1.35-6.88,2.97-10.12.67-1.08,1.21-1.89,2.56-3.64.67-.81,1.48-1.89,2.02-2.7,1.08-1.62,2.16-2.7,4.72-4.72.94-.81,2.02-1.62,2.83-2.43.41-.27.67-.4,1.48-.81.4-.27,1.08-.54,1.48-.81,2.83-1.89,5.94-3.24,8.9-4.05.81-.27,1.48-.27,2.83-.27.54-.14,1.08-.14,1.48-.14.94,0,1.75-.27,2.02-.81.14-.54-.27-.94-1.08-1.48l-3.24-2.43c-1.21-1.21-2.29-2.83-3.51-5.4l-.13-.13s-.13-.13-.27-.13c-2.29-2.16-1.89-4.72-1.48-7.55.27-1.08.41-2.16.41-3.24.13-1.62.67-2.97,1.35-4.45l.81-1.62c.54-1.48,1.35-2.56,3.37-4.32,1.89-2.02,4.18-3.51,7.28-4.72,1.21-.54,2.29-.81,4.45-1.21,1.21-.27,2.43-.54,3.37-.81,4.32-1.21,7.28.54,10.93,2.29,3.51,1.35,5.26,4.45,5.53,9.31v.4c1.35,2.97-.4,5.26-2.02,7.28-1.62,2.29-3.91,3.78-7.01,4.32-1.21.13-2.43,0-3.91-.27-.4-.14-.81-.14-1.21-.27-.27,0-.54-.13-.94-.27-.4-.13-.81-.4-1.48-.4h-.13c0-.13-.13-.13-.13-.13-1.21-.54-1.89-1.89-1.48-2.83.27-1.08,1.62-1.21,2.83-.54,1.08.54,2.29,1.08,3.78.94,2.7-.13,5.8-.4,7.42-3.24,2.16-3.51,1.75-7.15-.94-9.85-.13,0-.13-.13-.4-.4-.94-.94-1.48-1.35-2.16-1.75-1.75-1.21-3.91-1.21-5.8-1.35-2.16-.13-4.59-.27-6.88,1.21-.13.13-.4.13-1.08.13-1.08-.13-2.02.13-2.7.81-.67.67-1.21,1.21-2.83,2.43-1.75,1.21-3.78,2.7-4.86,4.72-1.48,2.29-3.24,4.59-2.83,7.15.4,3.91.94,6.07,2.16,8.09,1.89,3.37,4.99,5.93,8.77,7.28.27.14.81.27,1.35.41,1.75.54,2.56.81,2.7,1.62.27,1.48-1.08,3.37-2.56,3.78-1.35.27-1.89.27-2.7.27-.67-.13-1.62-.13-3.51.13-.94.13-2.02.41-3.51.94-2.02.81-4.05,1.48-6.74,2.16l-.67.27c-.54.13-1.21.27-1.89.54-2.97,1.89-5.67,3.78-7.96,6.34-.4.54-.67.81-1.48,1.48-1.08,1.08-2.29,2.29-2.97,3.37-1.08,1.75-1.75,3.37-2.43,5.53-.67,1.89-1.21,3.51-1.75,5.26-.4,1.21-.54,2.02-.54,3.91-.13.54-.13.94-.13,1.35,0,.81.13,1.75.27,2.56.13.94.27,1.89.13,2.83,0,.94,0,1.35.27,1.89,2.29,5.26,5.67,8.9,10.12,11.06,1.89.94,4.18,1.62,6.34,2.16,1.08.4,1.75.54,2.43.81,2.56.81,5.26.94,8.36.67.81-.13,1.75-.13,2.7-.27,2.7-.13,5.67-.27,8.23-1.75.81-.41,1.35-.67,2.7-1.48,2.97-1.48,6.21-3.1,7.96-6.34l1.48-2.29c.94-1.21,1.89-2.7,2.29-4.05.27-.4.4-.81.4-1.08.14-1.35.27-2.7.54-4.18.27-2.7.67-5.4.27-8.23-.13-.54-.27-.94-.54-1.21,0-.41-.13-.81-.27-1.21,0-.41,0-.81.14-1.21-2.43-1.08-5.13-1.62-7.55-2.16-.54-.14-1.08-.14-1.48-.27-.94-.27-1.89-.4-2.97-.54h-.41c-.4-.13-.94-.13-1.08,0-.94.4-1.75.54-3.64.54-1.08-.13-2.16-.13-3.24.13-1.62.27-3.64.41-4.99,2.16-.27.41-.4.54-1.08.81-.4.27-.81.41-1.08.67-2.43,1.89-3.91,4.72-4.59,7.69-.94,3.91,2.29,7.15,6.47,6.47,1.62-.27,2.97.81,2.97,2.02-.13,1.48-1.21,2.29-2.43,2.02-.81-.13-1.62-.27-2.29-.27-2.29-.27-3.24-.54-4.32-.94-.94-.27-1.75-.67-2.16-1.75,0,0,0-.13-.27-.54l-.81-1.21c-.94-1.08-1.21-2.56-.67-4.32.27-.54.4-.94.4-1.89.13-.27.13-.54.13-.67-.13-3.64,2.29-6.07,4.59-8.5.54-.54.94-.94,1.75-2.02.81-.81,1.48-1.21,2.29-1.35.94-.13,1.75-.4,3.1-1.08.81-.27,1.48-.67,2.16-.81,2.56-.81,4.99-1.75,7.82-.94.81.27,1.89.27,2.7.27h1.62c.94,0,2.02.4,3.1.81,1.35.41,2.02.54,2.83.67.94.13,1.89.81,2.83,1.35.81.54.94.67,1.48.94,3.37,1.62,7.15,2.97,11.06,3.78,3.1.67,6.21.4,9.17.27,3.51-.13,6.21-1.89,7.82-5.13l.94-2.02c.81-1.35,1.75-2.97,1.89-4.72,0-3.24-.81-5.13-2.83-6.47-.41-.13-.81-.67-1.21-1.08-.67-.81-1.08-1.08-1.62-1.48-4.05-2.29-8.63-2.7-13.08-1.08-.94.27-1.21,0-1.48-.54-.54-.54-.41-1.35.27-1.89,1.62-1.21,3.24-1.75,4.72-2.02,2.7-.27,5.13.27,7.82,1.08,1.48.41,3.1,1.21,4.59,2.16.94.41,1.35.67,1.75.94.81.41,1.48,1.48,1.89,2.56l.54.94c1.35,2.29,1.89,5.13,1.35,8.09Z" fill="#fff"/><path d="M464.1,132.19l-.4-.27c-.13-.27-.13-.54-.13-.67,0-.27.13-.4.27-1.08.41-1.48.81-2.97,1.62-4.18,1.75-2.83,2.7-6.07,3.64-9.31.13-.54.27-.94.41-2.16.27-1.08.4-2.16.81-2.83.54-.94.67-1.48.81-3.24.13-.81.27-1.62.54-2.29.13-.41.27-.67.4-1.48.27-.67.4-1.35.67-1.75.67-2.02,1.21-3.91,1.48-5.67,0-.81.27-1.62.54-1.89.81-.94,1.21-1.89,1.75-4.05.13-.81.4-1.62.67-2.29.4-1.48.67-2.29.67-2.97,0-.81-.94-1.08-2.29-1.08-1.35.13-1.75.13-1.89-.81.14-1.21,1.48-2.29,3.37-3.78,2.02-1.75,4.59-3.78,5.13-5.94v-.27c.13-.13.13-.4.13-.54-.27-2.7.94-6.07,1.75-8.36.54-1.35.94-2.7,2.02-6.07,1.08-3.51,1.48-4.86,1.75-5.4.27-.54.67-2.29,1.08-3.91.4-1.35.67-2.83.81-2.83.13-.54.13-.81-.27-1.75-.27-.54-.27-.94,0-1.08.27-.81.54-1.62.54-2.7.14-1.35-.27-2.56-.54-3.78-.27-1.21-.67-2.29-.54-3.51-.14-.13-.41-.81-.67-1.21-1.08-2.02-1.48-2.97-2.43-4.32-.67-.81-1.75-1.21-2.7-1.48-.13-.13-.67-.27-1.21-.27h-1.35c-.67,0-1.48-.13-2.29,0-.13,0-.27,0-.54.14-1.35.27-1.75.4-2.56,0-.81-.14-1.89.13-2.83.4-.27.13-.67.27-.94.27-3.51,1.08-6.61,2.7-9.04,5.53,0,0,0,.13-.13.27-.41.4-.54.4-.27.4-2.02.13-2.97,1.21-3.91,2.29-.41.54-.94,1.21-1.35,1.48l-1.35,1.89c-.54.81-1.08,1.62-1.75,2.29s-.94,1.35-1.62,2.7c-.27.67-.54,1.35-.94,1.89-.81.81-1.21,1.89-1.08,3.24,0,1.08-.13,2.02-.27,2.97l-.13,1.35v.81c0,.54.13.94,0,1.35-.81,4.86.94,9.58,4.99,12.54,1.08.94,1.62,1.48,2.16,2.43.4.94.27,1.08,0,1.21,0,.4-.94.81-1.21.67-2.29-.67-2.83-1.08-3.64-2.02-.4-.54-1.08-1.35-1.75-2.02-1.08-1.21-1.35-1.62-1.89-2.29-.94-2.02-1.89-3.78-1.62-6.07,0-1.21,0-1.75-.27-2.43-.4-.81-.54-1.89-.54-3.64v-1.62c-.14-2.43.4-4.72,1.89-6.47.13-.41.27-.67.41-1.48l.4-1.35c.27-.4.4-.54.67-1.21,1.08-2.02,2.02-4.05,3.78-5.4,1.89-1.48,3.91-3.1,4.99-5.13.13-.13.27-.27.67-.4l.14-.13,7.15-4.99c2.83-1.89,5.13-2.56,7.82-2.29,2.29,0,4.72,0,7.01.13,2.83.13,5.53,1.21,8.5,3.64,1.08.94,1.89,2.29,2.29,3.91,1.21,3.64,1.62,6.34,1.35,9.17,0,.67.13,1.21.41,2.16.4.81.4,1.21.4,1.75,0,.4-.13.81-.27,1.21-.41,1.21-.54,1.75-.54,2.56,0,.94-.4,2.43-1.08,4.59-.54,1.62-1.21,3.51-1.75,5.8,0,.41-.13.81-.54,1.48-1.08,2.29-2.02,4.72-2.43,7.15,0,.41-.13.67-.27,1.35-.14.41-.27.81-.27,1.21,0,.27,0,.54.13.94.14.41.14.54.14.67l1.21.13c.27-.4.27-.54.81-.94.54-.4.94-.81,1.21-1.21.41-1.08,1.08-1.75,2.43-2.97l1.75-1.75c6.47-8.23,9.58-10.93,15.51-16.05,1.48-1.08,3.1-2.56,4.86-4.05,1.21-1.35,2.7-2.7,4.86-4.18.81-.4,1.35-.81,2.56-1.75.81-.54,1.62-1.21,2.29-1.62.67-.27,1.08-.54,2.16-1.21,1.08-.54,2.16-1.21,3.1-1.48.54-.27.94-.41,2.02-.81,2.56-.94,4.86-1.75,7.28-1.48h.54l4.45.4,2.29,1.89c1.48,1.08,2.16,1.62,2.83,2.43l1.62,2.02c.27.54.13,1.21-.54,1.48-1.21.94-1.48.81-2.43-.27q-.13,0-.27-.27c-.41-.27-.41-.41-.41-.54-.54-2.02-1.89-2.43-3.24-3.1-3.64-1.35-3.91-1.48-7.01-.54-.81.27-1.62.54-3.1.94-.67.13-1.48.4-2.02.54-2.02.54-3.91,1.08-4.86,2.97,0,.13-.13.13,0,.13-2.02.27-3.37,1.35-4.59,2.43-.67.41-1.21.94-1.75,1.35-1.89,1.21-7.42,5.93-8.77,7.42-2.02,2.7-5.39,5.67-7.28,7.28-.67.67-1.08.94-1.21,1.08-3.51,3.51-6.61,7.01-9.44,10.79l-.94,1.21c-1.35,1.62-2.97,3.51-4.72,5.26,1.35-.27,2.16-.13,2.7,0,.54.13,1.08.27,1.48.13,2.29-.54,4.18.27,6.61,1.48,1.89.81,3.24,2.29,3.78,4.32.4.94.94,1.75,1.48,2.7.54,1.08.94,2.43,1.08,4.45,0,1.89.27,3.1.94,3.91.54,1.21.67,2.43.54,4.18v2.16c-.13,2.56,0,3.64.67,4.99v.41c-.13.4-.13.54-.13.67-.27,2.56.27,5.13.81,7.69.27.67.54,1.08.67,1.75v.13c.13.54.13,1.35,1.89,4.18l.13.27c.4,1.35,1.35,2.7,2.43,3.51.81.81,2.29,2.83,4.32,2.29.94-.27,1.48-.27,2.56-.13.94.13,2.02.4,2.97-.67,0-.13.13-.13.13-.13l.81-.54c.54-.27.94-.4,1.75-.54,1.21-.4,2.43-.67,3.1-2.02.41-.54.81-.81,2.02-1.48.81-.41,1.75-.94,2.29-1.48.41-.54.81-.81,1.62-1.62,1.35-1.08,2.7-2.16,3.24-3.51,0-.14.13-.14.4-.41.41-.27,1.08-.81,1.21-1.08.67-.54,1.21-1.21,2.29-2.83.81-1.35,1.21-2.02,1.62-2.29,1.35-.81,3.37-3.78,3.78-4.86.4-1.35,1.08-2.29,2.7-3.37.27-.27.81-.13,1.48.67.27,0,.41.94.14,1.35l-.67,1.21c-.41.81-.67,1.48-1.21,1.89l-1.21,1.35c-.67,1.08-1.21,1.89-2.56,3.78-2.16,3.1-4.45,6.75-6.61,8.63-.13.27,0,.27-.54.54-.13,0-.54.27-.67.4-.27.13-.4.13-.81.41-.94.54-2.16,1.21-2.56,2.43-3.1,2.29-5.67,4.05-9.58,6.21l-1.89.4c-1.48.27-2.97.67-4.59.67-3.1.27-4.59-.54-7.01-1.62,0,0-.4-.27-.81-.4-.67-.41-.81-.41-.94-.67l-.27-.4c-.27-.54-.41-.67-.67-1.08-2.16-2.83-2.7-4.32-3.1-5.13-.13-.54-.27-.81-.54-1.08-1.08-2.83-1.48-5.26-1.21-7.42.27-1.89,0-3.64-.94-5.13-.41-.94-.41-1.75,0-2.7.27-.41.4-.94.13-1.21-.41-.67-.54-1.48-.54-3.1s-.13-2.16-.4-2.97v-.4c-.13-.27-.13-.41-.13-.41.67-4.32-.54-7.28-1.89-9.98-1.48-2.97-3.91-4.99-7.01-5.4-.14-.13-.41-.13-.67-.13-.67.13-1.21.27-2.43.27-1.75.13-3.78.27-5.4,1.48-2.16,1.48-2.97,2.83-2.7,4.59,0,0,.13.27-.27.67-.13.27,0,.14,0,.27-1.21,2.16-1.89,4.72-2.43,6.88-.27,1.35-.81,2.7-1.35,4.45-1.08,2.02-1.89,3.91-2.29,6.34-.13,1.21-.54,2.43-1.21,3.91,0,.13,0,.4-.13.81-.27.54-.4,1.21-.54,1.89-.14,2.16-.54,3.24-1.21,4.18-.67.81-.94,1.48-1.21,3.37,0,.41-.13.67-.13.94l-1.35,4.59c0,.27-.13.41-.13.94-.27,1.08-.41,1.62-.67,2.16-.54.94-.81,1.48-.94,2.97-.27,1.35-.94,1.89-2.16,1.89-.54,0-.94-.27-1.89-.81Z" fill="#fff"/><path d="M565.8,113.03c-1.35-.13-2.43-.94-2.97-2.29-.81-1.75-1.75-3.51-1.08-5.4l1.75-4.99c.13-.27.13-.4.54-.81.94-.94,1.21-1.35.67-2.02-.27-.67-1.35-1.08-2.16-1.35q-.54-.14-.81-.27c-.27,0-.67-.4-1.21-.81-1.48-1.35-2.56-1.75-3.64-1.35-1.21.67-2.02,1.89-2.29,3.1l-3.24,4.86c-.13.27-.27.27-.4.54-.54.81-1.08,1.62-1.75,2.16h-.54c-.41,0-1.21-1.08-1.08-1.21.4-.54.54-.94,1.08-1.75.4-.94.81-1.89,1.48-2.43,1.08-1.35,1.62-2.29,2.83-4.72.4-.81.81-1.75,1.21-2.43.67-1.08.67-2.29.13-4.32-.27-.81-.27-1.75.4-2.56l1.35-1.89c.13-.27.4-.67.4-.81,1.21-1.21,2.29-1.62,4.05-.94.81.27,1.35,1.62.81,2.29-.94,1.21-1.75,2.56-2.43,4.32-.67.94-.54,1.62.13,2.83.94,1.75,3.51,3.51,6.34,4.18.67.14,1.48.54,2.29.81.41.13.54.27.81.27.27.14.54,1.21.4,1.62-.4.4-.67.81-1.21,1.62-.27.54-.81,1.21-1.08,1.62-1.62,2.16-2.02,4.45-1.48,7.01.4,2.83,1.48,3.78,4.32,3.91.81,0,.94,0,1.21.13,1.75-.13,3.51-.27,5.67-1.35.41-.67.81-.94,1.08-.94,1.08-.4,1.75-.81,2.43-1.48.54-.41.81-.81,1.35-.94,1.35-.94,2.43-1.89,2.83-3.1.27-.4.41-.54.94-1.08.41-.4.81-.81.81-.94.94-1.75,1.62-2.56,2.02-2.56.27,0,.67.4,1.08,1.08,0,.27-.54,2.02-.81,2.02l-.54.81c-.27.54-.54.94-.94,1.35-.13.27-.27.4-.67.67-.81.54-.94.81-1.35,1.62-.27.67-1.62,2.16-2.02,2.29-.67.4-.94.67-1.89,1.08-.81.4-1.89.94-2.7,1.89-2.02,1.35-2.97,1.21-5.26,1.35-2.43.81-4.59.94-6.88-.67Z" fill="#fff"/><path d="M568.9,157.41c-.27-.4-.81-1.08-1.08-1.75-.81-.81-1.48-2.16-2.16-3.37-.27-.41-.27-.54-.54-.81-.27-.54-.27-1.35-.27-2.43.13-1.08.13-1.62-.13-2.29-.4-1.08-.27-2.29.27-4.45.13-1.08.41-2.16.41-3.37,1.35-4.32,2.97-8.36,6.07-11.46,3.78-3.78,7.15-6.34,10.52-7.82.81-.4,1.75-.94,2.43-1.48,1.08-.81,1.89-1.21,4.32-2.02l.67-.27c1.21-.41,2.56-.94,3.51-1.48,1.21-.67,2.29-1.08,4.86-1.62,1.89-.4,2.7-1.35,2.97-3.24.4-3.1.67-4.59-.67-4.59-1.21.13-2.02.67-2.97,1.62l-.67.81c-2.43,2.16-6.47,2.56-9.17.81-.54-.41-.54-.54-.67-.81s-.13-.81-.27-1.08c-.4-1.75-.67-3.24-.4-4.86q0-.27.13-.54l.54-1.75c.94-1.21.94-1.48.94-2.83v-.81c0-.94.27-1.89.81-2.7.54-.81.81-1.62.94-2.83.27-1.48.94-1.75,2.29-1.21.4.13.94,1.21.81,1.48-.41.94-.54,1.62-.94,3.24-.41,1.62-.81,3.24-1.75,4.59,0,.27-.13.41-.13.81,0,.27-.13.4-.13.54-.54,1.48-.81,3.1-.81,5.53-.13.4.13.81.54,1.48.4.54,1.21.67,2.43.4,3.51-1.48,5.67-3.51,6.88-6.2.94-2.16,1.89-3.51,2.97-4.72.54-.67.81-1.21,1.21-2.56.13-.4.41-.94.41-1.21.67-.94,1.89-1.35,2.97-.81l.27.4c.27,1.21.13,2.29-.14,2.97-.81,1.35-.67,2.7-.67,4.05,0,1.08-.27,2.16-.54,3.37-.27,1.35-.54,2.83-.4,4.18,0,.13,0,.4-.13.94-.13.94-.27,1.62-.27,2.02v.27c-.14.4,0,.81.4,1.08.13.13.67,0,.94-.27.4-.27.54-.27.54-.27l2.83-.81c1.62-.41,3.37-.81,4.18-1.21,1.21-.67,5.4-2.97,6.07-3.78,1.62-1.21,2.02-1.75,2.83-2.7.27-.54.81-1.21,1.75-2.16.13-.14.94,0,1.08.27.27.27.4.67.27,1.35q-.13.27-.13.4l-.13.54c-.41.54-.54.81-1.21,1.35-.67.54-1.62,1.35-1.89,2.43,0,.14-.13.14-.41.27-.27.27-.13.13-.4.27-1.08,1.21-2.02,1.75-4.45,2.83-1.35.4-2.83,1.08-3.78,1.89-.94.41-4.18,1.35-4.18,1.21-1.21.14-2.02.67-2.7.94l-1.48.67c-1.48.54-1.75.94-1.89,2.7,0,.14,0,.27-.13.81-.13.41-.27.67-.27.94.13,2.02-.41,3.78-1.08,5.53-.41,1.21-.81,2.43-.81,3.64,0,1.35-.41,2.7-1.48,4.18-.81,1.35-1.21,2.43-1.35,3.64-.13,2.16-.94,3.91-1.89,5.67-.67,1.08-.94,1.89-1.75,3.64l-.81,1.75c-1.62,3.78-4.18,7.15-7.96,10.39-1.89,1.62-4.05,2.02-6.21,2.7-1.48.41-2.97.81-4.18.67-2.7-.27-4.32-1.21-5.53-2.7ZM580.23,156.06c2.43-1.08,4.45-2.56,5.94-4.45,2.02-2.7,3.91-5.13,5.26-8.09.54-1.21.94-2.29,1.75-4.59.67-2.02,1.48-4.18,2.56-6.07.13-.14.13-.41.13-.67-.13-1.48.4-2.7,1.08-4.18l.81-2.02c.13-.4.13-.54.27-.81.67-1.89.67-2.7,0-3.91,0,0,0-.13.13-.27,0-.27.13-.41.13-.67.13-.27.13-.54.27-.81.4-.94.54-1.35.54-1.89.13-1.62-1.48-2.56-2.83-1.89l-1.08.4c-1.89.67-4.18,1.62-5.93,2.43l-1.62.81c-2.02,1.08-4.32,2.29-6.2,3.78-1.08.81-1.89,1.35-3.64,2.56l-1.48,1.08c-.67.54-1.62,1.21-1.89,1.89-.54.94-.94,1.48-2.16,2.83l-.67.67c-1.35,1.48-2.16,3.1-3.1,5.67-.13.54-.13.81-.27,1.21-.81,2.02-.81,2.97-.13,4.18,0,.13,0,.41-.13.54-.94,3.51.27,6.34,1.48,9.44,1.08,2.7,3.37,4.05,6.34,3.78,1.48.13,2.97-.27,4.45-.94Z" fill="#fff"/><path d="M627.17,116.54c-.54,0-.81-.13-1.21-.13-1.62-.27-2.43-.94-3.37-2.83v-.54c0-.27-.13-.4-.13-.54,0-1.35.27-1.75.67-1.75,1.08-.54,1.62-.4,2.16,0,.27.54.54.81,1.08,1.35.27.27.4.54.67.67.94.94,2.7,1.08,3.51.4,2.16-1.35,3.51-3.24,4.05-5.4.13-1.08.27-1.62.13-2.16-.81-2.29-1.62-4.72-2.29-7.01-.54-1.35-.67-2.02-.94-2.97,0,0,0-.13-.13-.27-.54-1.08-.54-2.29-.94-2.29-.27.13-1.08,1.48-1.48,1.89l-.27.41c-.27.27-.41.54-.81,1.08-.13.4-.27.81-.81,1.48-.54.67-.81,1.21-1.35,2.29-.4.94-.94,1.89-1.62,2.7-.94.81-1.08.81-2.43,0v-.13c.67-1.62,1.35-3.24,2.43-4.59,1.48-1.89,2.16-3.51,2.97-4.99.67-1.62.81-1.89,2.02-3.51.54-.67.27-1.48,0-2.29-.13-.67.27-2.16.67-2.83.81-1.21,3.1-1.62,4.45-1.21.13,0,.54.81.4.67-.54.94-.67,1.35-.81,2.16-.14.54-.27,1.21-.67,2.16-.94,1.62-.94,2.56,0,4.86.27.81.54,1.21.67,2.02.27.81.94,2.02,1.62,2.97.94,1.48,1.21,1.89,1.35,2.56,1.21,3.64,1.08,7.69-.4,11.06l-.27.4v.14c-.54.94.94,1.75,1.62,1.48.67-.13,1.08-.27,2.02-.4,1.75-.41,3.78-.81,5.26-1.89l3.64-2.29.13-.13c.14-.14.14-.27.54-.54.54-.27,1.21-.81,1.48-1.35,1.75-1.21,4.45-4.32,6.34-7.15.13-.4,1.21-1.08,2.02,0v.54l-.13.4c-.13.54-.27.81-.67,1.21-.27.81-.81,1.35-1.75,2.16-.67.67-1.62,1.62-2.02,2.56.13.13-1.08,1.48-1.35,1.48-1.08,1.21-1.89,2.02-3.64,3.1-.81.54-1.62,1.21-2.43,1.89-1.08,1.21-1.89,1.62-3.91,2.16-.94.27-2.02.54-2.97.94-1.08.54-2.02.54-4.32.67-1.08,0-2.02,0-2.97.13-2.16-.4-3.91-.67-5.8-.81Z" fill="#fff"/><path d="M661.03,114.25c-.67-.4-1.08-.54-1.48-.67-.13,0-.27-.13-.54-.54-.13-.27-.4-.54-.94-.67-.67-.27-1.75-3.37-1.62-5.8,0-3.64.27-6.74,1.48-9.98.13-.4.13-.67.54-1.48l.67-1.75c0-.81.13-1.21.13-1.48.81-1.21,1.21-2.02,1.62-3.91.27-.81.4-1.62.81-2.43.27-1.08-.54-1.48-2.02-1.35-.27,0-.41,0-.54-.13-.54-.13-1.21-.13-2.56.13h-1.08c-1.08.14-1.62.14-2.16,0-.27,0-.54-.4-.54-.94-.13-.41-.27-.27.14-.41l.27-.13c1.35-.67,2.56-.81,3.78-.67,1.62.14,2.16,0,2.7-.13.27-.13.81-.27,1.89-.27s1.89-.81,2.29-2.02c.54-.67.94-1.75.81-2.29-.14-.67,0-1.08.4-1.75.67-.81.81-1.21.67-1.89l2.02-4.45c.41-1.08.94-1.21,1.75-.54l.54.54c.27.27.41.54.41.94v1.21c0,.67,0,1.08-.13,1.35-.41,1.08-.67,1.89-.94,3.1-.13.81-.4,1.75-.94,3.1l-.27.4c-.67.94-.81,1.48,0,1.89,1.21.27,2.29.13,3.24-.13,3.78-1.08,6.34-.81,9.98-.67.13,0,.4,0,.54.13l.27.4c.27.14.13.14.13.14,0,.27-.27.81-.4.94-.41.14-.81.27-1.21.27-.81,0-1.48.13-2.02.13-1.08.13-1.89.27-3.24.27-.41,0-.67,0-.94.13h-.27c-1.08,0-2.02.13-2.83.13-.81.13-1.62.13-2.7.13-1.89.14-2.43.54-2.7,2.02-.41,1.21-.67,1.75-1.08,2.29-.94,1.35-1.21,2.16-1.21,3.64,0,.13-.14.54-.54,1.08-.27.4-.4.81-.54.94-3.51,7.42-3.64,10.39-3.1,15.51,0,.81.27,1.08,1.21,2.16,2.56,2.56,5.53,3.24,9.31,1.89,2.7-.94,5.13-1.75,7.28-3.78.67-.81.94-.94,1.62-1.21.4-.13,1.08-.27,1.75-.81,1.21-.81,2.29-1.62,3.24-2.7.41-.4.67-.81,1.48-1.75.67-1.08,1.62-2.16,2.29-2.7.27-.13.4-.27.81,0l.4.4c.54.54.4.81.4.67-.13.4-.27.4-.4.81-.27.67-.54,1.35-.94,1.75-.81.54-1.21,1.08-2.43,2.43-.67.81-1.48,1.75-2.02,2.29-2.02,1.75-3.1,2.43-4.86,3.37-.67.27-1.48.81-2.29,1.21-2.16,1.35-3.51,1.75-5.93,2.56-5.13,1.35-7.69,0-9.44-.94Z" fill="#fff"/><path d="M691.38,115.33c-1.08-.27-1.35-.4-1.62-.81-1.08-1.08-2.16-2.56-3.1-4.32v-4.59c-.27-4.32.94-8.36,2.29-12.41.13-.81.54-1.48.94-1.89.54-.67,1.48-.54,2.02.27.13,0,.27.41.27.81l-2.02,8.77c-.54,2.16-.67,4.59-.4,7.69.13,2.02,1.21,3.37,3.1,4.18q.27,0,.94.27c.27.27.4.27.67.41.54.13,1.35.27,2.16.13,1.89-.27,3.37-1.08,5.53-2.7,1.89-1.35,3.64-2.7,4.99-4.45.54-.81.94-1.35,1.62-2.02.81-.94,1.75-2.02,2.83-3.91.4-.94.67-1.21,1.89-1.62.27-.13.67.13.81.54,0,.67,0,.81-.27,1.21-.27.54-.4.81-.54,1.35-.54.67-1.21,1.89-1.48,2.43-.27.27-.4.54-.94,1.21-.94,1.21-2.29,2.83-4.05,4.45-1.62,1.75-3.37,3.24-4.99,4.05-3.78,1.75-6.61,2.29-9.44,1.21-.4-.14-.81-.14-1.21-.27ZM694.48,71.62c-.13-.94.13-1.48.67-2.02.4-.13.54-.27,1.21-.67l.67-.4c.81-.4,1.62.13,1.75.94.27,1.89-1.21,3.64-2.7,3.51-.81-.13-1.48-.67-1.62-1.35Z" fill="#fff"/><path d="M754.1,101.3c-.13.13-.13.27-.13.41l-.13.13c-.4.81-.54,1.21-.67,1.21l-4.72,6.47c-1.08,1.48-1.89,2.16-3.51,3.1-.13.13-.54.27-.67.27-2.43,1.62-3.51,1.75-5.26,2.16-.67,0-1.48.27-2.29.4h-1.35c-.4-.13-.67-.13-.94-.13-3.51-.54-4.72-1.75-6.88-4.99-.14-.27-.41-.67-.67-.94-.13-.27-1.21-.41-1.75-.27-.54.54-.94.81-2.02,1.62l-1.89,1.48c-.27.14-.41.14-.67.41-.54.4-1.08.81-1.62.94-2.56,1.62-4.59,1.48-7.01-.41-1.08-.81-1.48-1.48-1.35-2.56,0-.81-.13-1.48-.13-2.02-.13-1.21-.13-1.89.27-3.1l.4-1.35c.67-1.75.94-2.56.81-3.64-.13,0-.13-.41.27-.94,1.08-1.75,2.16-3.51,3.1-5.53,1.21-1.89,2.02-2.43,4.18-3.51.41-.54.54-.67,1.48-1.21.41-.13,1.08-.4,1.35-.81,1.08-.81,1.75-.94,2.83-.81,3.64.54,5.67,2.02,7.01,4.86,0,.27.27.54.4.81.27.54.41.81.41,1.48-.13.81-.67,1.35-1.21,1.48-.81.13-1.48-.27-1.62-1.08-.13-.41-.27-.67-.67-1.21-.27-.27-.4-.41-.4-.81-.54-1.48-1.48-2.02-3.51-2.16-2.16,0-3.78.67-4.86,1.89-.4.54-.67.81-1.35,1.35-.67.54-1.35,1.21-1.89,2.16-.27.4-.27.54-.67.94-.94,1.21-1.21,1.62-1.21,2.43,0,.4-.14.81-.27,1.08-1.62,2.29-1.75,3.51-1.75,5.4,0,.54-.13,1.08-.13,1.75,0,.4.13.81.27,1.48,0,.27.13.54.13.94.13,1.21,2.16,2.16,3.37,1.62,1.35-.67,2.7-1.35,3.51-2.43.67-1.08,1.21-1.62,2.02-2.29.94-.67,1.89-1.62,2.7-3.51l.54-1.35c.27-.4.54-.94.67-1.35.4-.67.94-1.08,2.02-1.48.27-.13.94.4.94.81.14,1.35.27,2.02,0,2.56-.67,2.7-.4,4.99,1.08,7.15.67,1.35,2.29,2.43,4.18,2.7.94-.13,1.75-.27,2.56-.54,1.75-.27,4.72-.54,7.55-3.51l1.62-1.62c.94-.67,1.89-1.35,2.56-2.43.27-.54.54-.67.94-1.48.4-.81.94-1.62,1.48-2.29.13-.27.27-.4.54-.67.14-.27.41-.54.54-.67.27-.41.81-.27,1.48.27.27.27.27.81,0,1.35Z" fill="#fff"/><path d="M775.41,114.52c-2.97-.81-4.18-3.24-5.26-6.07-.27-.67-.27-1.75,0-2.43.41-1.62.94-3.24,1.48-4.59l1.62-4.18c.27-.81,0-1.35-.67-1.62-.81-.4-1.75-.4-2.16,0-1.08.54-2.29,1.08-2.97,1.89-.54.4-.94.67-2.02,1.08-.94.27-2.02.81-2.56,1.48-.54.41-.81.67-1.48,1.35-.81.81-1.62,1.75-2.43,2.29-1.08.81-1.89,1.62-3.1,3.51-.81,1.08-1.62,2.29-2.43,2.97-.41.4-.54.67-1.08,1.35-.41.81-.94,1.48-1.48,1.62-.54.27-1.48-.4-1.75-1.21-.13-.94.13-2.02.54-2.56.67-.94.81-1.75,1.08-3.91,0-.67.13-1.35.27-1.89.54-2.16.94-4.05,1.75-5.53.67-1.21.94-1.62.94-2.29,0-2.29.67-4.05,2.29-6.21.54-.81,1.08-.81,1.89,0,.81.81.94,1.21.67,1.89-.67,1.21-1.08,2.29-1.75,4.59-.27.67-.54,1.62-.81,2.16q0,.14-.13.27c-.94,1.35-.94,1.75,0,2.83,1.08-.4,2.02-.67,2.83-1.21.67-.4,1.21-.81,2.56-1.89l2.29-1.75.27-.41c.94-.4,1.62-.81,3.24-1.75,2.16-1.08,4.32-2.29,6.47-2.43.54-.27,1.21.13,1.62.81,1.35,2.02,1.48,3.51.94,4.72,0,.27-.14.4-.27.94-.13.54-.13.81-.27.94-2.02,3.37-1.75,6.61-1.75,9.98,0,1.08.41,1.35,1.89,2.16,2.43,2.02,4.59,1.48,7.82,0,3.24-1.48,4.72-2.7,7.28-4.99,1.89-1.48,3.24-3.24,4.86-6.21.13,0,.27-.13.54-.27.54-.54.67-.54.94-.54.54.13.67.4.81.81,0,.27-.81,2.43-.81,2.56-.94.81-1.48,1.35-2.29,2.7-.81,1.21-1.75,2.56-3.51,3.51-.81.41-1.21.81-1.75,1.48-.54.67-.94.94-1.48,1.21l-.94.54c-1.08.67-2.29,1.35-3.1,1.35-.67.13-1.48.4-2.02.81-1.62.81-1.08.81-2.16.54-2.43,0-2.97,0-4.45-.4Z" fill="#fff"/></svg>