<?xml version="1.0" encoding="UTF-8"?><svg id="Layer_1" xmlns="http://www.w3.org/2000/svg" viewBox="0 0 205.27 64.85"><path d="M203.62,9.22c-1.51-2.11-3.66-3.62-6-4.7-.16-.07-.32-.15-.49-.22-.09-.04-.36-.15-.56-.23-.16-.07-.6-.25-.72-.3-.17-.07-.34-.14-.51-.21-.65-.25-1.32-.48-1.98-.7-1.39-.44-2.81-.8-4.24-1.1C182.97.46,176.62-.02,170.34,0c-2.39,0-4.78.08-7.16.32-3.71.37-7.33,1.34-10.93,2.26-6.1,1.57-12.14,3.37-18.22,5.03-3,.82-6.02,1.55-8.98,2.52-2.74.9-5.43,1.96-8.09,3.09-4.72,2.01-9.31,4.32-13.92,6.59-4.84-1.32-9.62-2.84-14.46-4.18-6.37-1.76-12.84-2.85-19.32-4.07-6.61-1.24-13.22-2.54-19.89-3.48-6.05-.85-12.16-1.45-18.26-1.82-5.57-.34-11.37-.28-16.72,1.47-4.73,1.55-8.73,4.37-11.64,8.42-2.47,3.45-3.99,8.33-1.5,12.19,2.56,3.99,8.14,5.68,12.68,5.41,2.24-.13,4.36-.85,5.99-2.46,2.01-1.98,1.64-4.6-.83-5.95-1.89-1.04-3.55,1.78-1.69,2.9.09.05.24.13.36.22-.19.22-.4.41-.65.58-.7.5-1.47.76-2.32.82-2.08.14-4.29-.31-6.24-.97-1.62-.55-3.2-1.5-3.99-3.07-.69-1.38-.49-2.96.12-4.51,1.37-3.51,4.5-6.39,7.8-8.06,4.48-2.28,9.67-2.66,14.62-2.53,5.33.14,10.7.77,15.99,1.42,6.16.75,12.27,1.91,18.36,3.09,6.12,1.19,12.29,2.22,18.37,3.59,5.35,1.21,10.59,2.87,15.84,4.44-3.49,1.52-7.02,2.91-10.65,4.15-1.58.54-3.18,1.06-4.77,1.57-4.67-.64-9.34-1.33-14.02-1.91-5.68-.71-11.64-1.12-17.23.37-3.11.82-8.76,2.71-8.83,6.72-.03,2.26,1.82,3.82,3.66,4.77,2.38,1.23,4.92,1.85,7.6,1.93,5.26.16,10.53-1.34,15.51-2.89,4.32-1.34,8.64-2.67,12.96-4.02.22.03.41.06,0,0,0,0,0,0,0,0,.22.03.44.06.66.09,5.69.84,11.36,2.15,16.79,4.04.78.27,1.56.56,2.33.86.32.12.63.25.94.38.07.03.15.06.19.08.24.1.47.21.71.31,1.39.63,2.75,1.33,4.06,2.13.6.37,1.19.75,1.75,1.17.12.09.25.18.37.28,0,0,0,0,.02.01.28.24.58.48.85.73.44.4.87.83,1.26,1.28.11.13.22.27.33.4-.03-.04-.05-.06-.08-.09.03.04.06.08.08.1.19.28.38.55.54.84.14.23.24.49.38.72.04.09.07.18.1.28.09.25.16.51.23.77.04.15.06.3.09.45.01.56.03,1.09-.02,1.65-.05.17-.07.35-.11.53-.09.37-.2.73-.32,1.09-.04.12-.09.25-.14.37,0,.02,0,.03-.02.05-.01.03-.02.04-.04.08-.17.32-.32.65-.49.96-.54.96-.91,1.46-1.69,2.24-1.36,1.35-3.12,2.35-4.91,2.95-3.88,1.3-7.79,1.28-11.61.03-.75-.25-1.29-.45-2.05-.97,0,0-.39-.32-.39-.32.03.03-.32-.38-.33-.37-.1-.16-.21-.41-.24-.61-.06-.44.07-.99.5-1.58.55-.74,1.4-1.35,2.15-1.63.5-.19.52-.21,1.06-.19.17,0,.27.01.31.02,0,0,0,.01,0,.02-.09.01-.34.02.02.02,0,0,0,0,0,0,0,0,0,0,0,0,.15.09.3.17.44.27.03.02.04.03.07.04.02.03.05.05.1.1.11.11.56.61.56.58,0,.01.02.03.03.04-1.01.39-1.77,1.29-1.77,2.48,0,1.38,1.23,2.8,2.69,2.69,2.57-.18,4.87-1.64,4.81-4.48-.05-2.22-1.67-4.23-3.37-5.49-4.39-3.25-10.78.07-12.41,4.83-.85,2.48-.05,5.36,1.9,7.09,1.79,1.59,4.11,2.44,6.41,2.97,4.84,1.12,9.96.67,14.51-1.31,6.97-3.04,12.12-11.42,8.23-18.72-3.09-5.81-10.17-8.82-16.05-10.88-3.09-1.08-6.26-1.96-9.47-2.68,3.87-1.4,7.67-2.95,11.4-4.71.49-.23.97-.47,1.46-.7,10.42,2.65,21.04,4.25,31.73,5.54,6.3.76,12.61,1.46,18.93,2.1,5.98.61,12.01.98,18.02.62,5.24-.32,10.38-1.25,15.4-2.77,4.08-1.24,8.26-2.78,11.78-5.24,3.11-2.17,5.76-5.11,6.45-8.95.46-2.56.06-5.17-1.47-7.31ZM94.89,54.99c0,.22-.04.33,0,0h0ZM44.46,34.39s0,0,0,0c0,0,0,0,0,0ZM55.04,36.27c-2.08.26-4.29.36-6.34-.12-1.13-.27-2.23-.69-3.24-1.27-.35-.21-.63-.4-.83-.59-.02-.02-.03-.02-.04-.04.06-.06.11-.12.11-.11.43-.41.91-.72,1.71-1.13,1.43-.73,3.2-1.28,4.92-1.62,5.31-1.04,11.04-.17,16.31.69.61.1,1.23.2,1.84.31-.21.07-.42.13-.63.2-4.51,1.48-9.09,3.08-13.82,3.67ZM199.45,16.65c-.11.24-.22.48-.35.72-.78,1.41-2.27,2.8-3.68,3.73-3.69,2.44-7.46,3.69-11.75,4.89-12.07,3.37-24.41,2.12-36.69.8-12.25-1.32-24.62-2.58-36.68-5.21,2.47-1.2,4.95-2.39,7.47-3.49,5.71-2.5,11.57-4.16,17.57-5.78,6.5-1.75,12.96-3.68,19.51-5.29,2.36-.58,4.73-1.18,7.12-1.59.07-.01.15-.02.22-.03.16-.02.32-.04.48-.06.55-.06,1.09-.11,1.64-.15,2.73-.2,5.48-.24,8.22-.18,3.29.07,6.58.29,9.85.7.15.02.3.04.45.06.09.01.36.05.41.06.36.05.72.11,1.08.16.85.13,1.7.29,2.55.45,1.55.31,3.09.68,4.61,1.14.68.21,1.35.43,2.02.68.29.11.58.22.87.34.13.06.6.28.7.34.56.28,1.11.57,1.64.9.28.17.55.35.81.53.09.06.17.13.26.19.02.02.04.04.08.07.4.36.77.73,1.15,1.13,0,0,.02.02.02.03-.03-.04-.05-.07-.08-.12.04.05.07.1.11.16.04.05.08.11.11.15,0,.01.02.02.02.03.13.22.26.44.39.66.02.01.08.13.12.24.02.06.05.11.08.16-.03-.05-.04-.08-.06-.12.06.21.13.41.18.63.02.09.04.18.05.27-.02.27.03.55.02.81,0,.11-.02.23-.03.35-.06.24-.1.5-.17.74-.09.31-.21.62-.3.93Z" fill="#42210b"/></svg>