<?xml version="1.0" encoding="UTF-8"?><svg id="Layer_1" xmlns="http://www.w3.org/2000/svg" viewBox="0 0 207.29 89.7"><path d="M129.8,37.71c-1.24.52-2.37,1.18-3.43,2.01-.56.43-.03,1.17.51,1.23,1.02.12,2.05.06,3.06-.15.83-.17,2.2-.46,2.65-1.25.23-.41-.07-.84-.5-.87-.45-.04-.83.22-1.24.37-.42.16-.85.28-1.29.37-.88.18-1.79.19-2.68.08.17.41.34.82.51,1.23.89-.73,1.88-1.32,2.93-1.79.69-.31.19-1.54-.52-1.24h0Z" fill="#42210b"/><path d="M131.32,38.15c.48-3.08,3.14-5.54,6.3-5.63,1.6-.05,3.18.46,4.53,1.3.69.43,1.32.96,1.89,1.54.6.61,1.03,1.43,1.68,1.96.25.2.79.11.74-.31-.09-.75-.52-1.36-.97-1.95-.45-.59-.94-1.14-1.51-1.62-1.17-.98-2.53-1.75-4.01-2.12-2.84-.72-5.93.23-7.9,2.38-1.08,1.17-1.8,2.7-1.78,4.31,0,.57.95.75,1.04.14h0Z" fill="#42210b"/><path d="M127.25,41.31c.28.26.52.56.85.76.36.22.77.36,1.18.47.79.21,1.66.29,2.46.09.56-.14.46-1.07-.14-1.03-.69.05-1.36.11-2.05-.04-.32-.07-.62-.17-.93-.28-.36-.12-.74-.17-1.07-.36-.23-.13-.51.19-.29.38h0Z" fill="#42210b"/><path d="M131.77,42.17c1.62,2.06,1.71,4.85,1.63,7.36-.09,2.69.05,5.44.85,8.02.82,2.63,2.19,5,3.95,7.11,1.82,2.19,4.17,3.88,6.66,5.24,1.4.76,2.84,1.48,4.31,2.09.77.32,2.51.13,1.94-1.09l-.55.55c.59.33,1.12.75,1.72,1.07.55.29,1.12.55,1.7.79,1.22.49,2.51.87,3.8,1.1,2.62.46,5.28.33,7.84-.42.89-.26.5-1.68-.38-1.39-2.32.74-4.79.99-7.22.72-1.21-.13-2.4-.4-3.55-.81-.57-.2-1.13-.44-1.68-.71-.61-.3-1.22-.55-1.76-.98-.29-.23-.79-.03-.67.39.02.07-.36.1-.46.1-.3,0-.56-.15-.83-.26-.62-.27-1.24-.54-1.85-.84-1.16-.57-2.29-1.19-3.38-1.87-2.23-1.4-4.4-3.09-6-5.2-1.57-2.07-2.66-4.44-3.31-6.95-.15-.57-.3-1.15-.41-1.73-.13-.69-.12-1.36-.12-2.06,0-1.21.05-2.41.09-3.62.04-1.31.17-2.59-.1-3.89-.25-1.22-.76-2.42-1.67-3.29-.39-.37-.9.17-.58.58h0Z" fill="#42210b"/><path d="M147.03,47.13c.17-.6.3-1.19.39-1.81.1-.68.29-1.34.42-2.01.24-1.23.47-2.45.75-3.67.55-2.45,1.38-4.84,2.72-6.98,1.28-2.05,3.03-3.78,4.86-5.35.93-.79,1.82-1.62,2.77-2.38.96-.75,1.92-1.5,2.88-2.25,4.18-3.27,8.09-6.94,11.72-10.81,1.82-1.95,3.55-3.98,5.26-6.02.83-.99,1.59-2.07,2.48-3.01.37-.4.88-.77,1.44-.54.5.2.86.71.99,1.23.35,1.37-.73,2.81-1.44,3.88-.79,1.19-1.71,2.27-2.66,3.34-.93,1.05-1.94,2.05-2.97,3-1.06.97-2.21,1.82-3.28,2.78-.35.32.1.84.49.63,1.18-.61,2.22-1.46,3.24-2.32,1.04-.87,2-1.8,2.91-2.81.89-.99,1.71-2.05,2.47-3.14.76-1.09,1.6-2.16,2.08-3.41.44-1.14.43-2.41-.36-3.38-.72-.88-1.89-1.23-2.9-.64-.54.32-.92.83-1.3,1.31-.44.56-.89,1.12-1.34,1.68-.9,1.11-1.82,2.2-2.77,3.28-3.75,4.28-7.86,8.35-12.31,11.91-1.09.88-2.25,1.69-3.38,2.51-1.05.76-2.11,1.58-3.23,2.24-1.13.68-2.17,1.54-3.16,2.41-.98.85-1.9,1.76-2.73,2.76-1.97,2.38-3.25,5.12-4.02,8.1-.4,1.55-.59,3.09-.77,4.67-.09.75-.07,1.49-.1,2.24-.03.82-.08,1.6,0,2.43.04.48.72.62.87.12h0Z" fill="#42210b"/><path d="M180.88,10.41c.32-.23.7-.02.85.31.17.37.02.82-.11,1.18-.23.63-.55,1.25-.85,1.85-.58,1.15-1.28,2.24-2.07,3.25-.8,1.01-1.66,1.95-2.62,2.8-.98.87-2.1,1.54-3.11,2.37-.41.33.03,1.11.53.91,1.5-.6,2.82-1.73,3.98-2.84,1.19-1.14,2.24-2.42,3.1-3.83.85-1.37,1.69-2.95,2.01-4.54.13-.66.11-1.45-.49-1.87-.45-.32-1.09-.36-1.48.08-.15.17.05.49.26.34h0Z" fill="#42210b"/><path d="M179.91,17.44c.22-.41.35.5.35.61,0,.33-.03.67-.09,1-.11.61-.3,1.21-.57,1.77-.52,1.1-1.26,2.07-2.14,2.91-.94.89-2.01,1.61-3.13,2.26-.54.32-1.1.62-1.65.91-.54.28-1.23.49-1.37,1.15-.04.21.06.37.25.45.74.31,1.63-.43,2.25-.78.77-.43,1.52-.89,2.24-1.39,1.34-.95,2.57-2.05,3.5-3.41.88-1.28,1.48-2.78,1.58-4.34.03-.57.06-1.45-.59-1.7-.41-.16-.9-.03-1.05.4-.09.25.3.41.42.18h0Z" fill="#42210b"/><path d="M178.64,24.65c.75.87-.18,2.35-.67,3.15-.62,1.01-1.38,1.92-2.26,2.72-.86.78-1.82,1.4-2.84,1.94-1.05.55-2.17.85-3.29,1.22-.63.21-.58,1.3.17,1.23,2.73-.24,5.37-2.01,7.2-3.97.92-.99,1.73-2.12,2.29-3.35.47-1.05.7-2.4-.31-3.23-.2-.17-.46.09-.29.29h0Z" fill="#42210b"/><path d="M175.89,30.84c1,.96.16,2.23-.58,3.03-.81.88-1.66,1.72-2.61,2.44-.91.7-1.9,1.31-2.92,1.83-1.08.54-2.28.83-3.35,1.37-.46.23-.26,1.04.27.99,1.37-.12,2.79-.87,3.98-1.53,1.26-.69,2.44-1.53,3.51-2.48,1.02-.9,2.12-1.97,2.72-3.21.48-.99.45-2.45-.78-2.84-.23-.07-.4.23-.23.4h0Z" fill="#42210b"/><path d="M173.86,36.15c.61.67.42,1.65.14,2.44-.29.81-.81,1.57-1.37,2.22-.58.66-1.24,1.23-1.99,1.69-.75.46-1.56.73-2.37,1.05-.76.3-.48,1.39.34,1.23,2.05-.4,3.98-2.05,5.16-3.7,1.05-1.46,2.12-3.87.5-5.34-.28-.25-.67.13-.42.42h0Z" fill="#42210b"/><path d="M172.62,42.67c-.09.79-.34,1.6-.55,2.36-.2.73-.43,1.46-.71,2.17-.57,1.43-1.38,2.82-2.37,4-2.04,2.42-4.74,4.18-7.81,4.96-1.07.27-2.17.46-3.26.67-1.11.21-2.28.37-3.28.89-.61.32-.36,1.43.36,1.35,1.06-.12,2.1-.44,3.15-.66,1.02-.21,2.04-.41,3.05-.68,1.72-.45,3.37-1.14,4.85-2.12,2.73-1.82,4.88-4.51,6.14-7.53.35-.84.66-1.72.81-2.63.16-.95.15-1.83.12-2.79,0-.34-.47-.32-.51,0h0Z" fill="#42210b"/><path d="M179.4,24.62c.55-.45,1.11-.84,1.7-1.24.6-.41,1.17-.88,1.76-1.31,1.13-.82,2.28-1.62,3.44-2.41,2.41-1.64,4.76-3.36,7.2-4.96.56-.36,1.12-.75,1.71-1.06.17-.09.42-.21.61-.2.16,0,.13-.02.07.18-.3,1.06-.6,2.09-1.08,3.09-.97,1.99-2.32,3.74-3.98,5.2-.9.79-1.89,1.47-2.94,2.04-.54.29-1.1.56-1.67.78-.62.24-1.27.32-1.58.98-.12.26-.07.54.19.71.62.4,1.2.13,1.83-.11.61-.23,1.2-.5,1.78-.79,1.14-.59,2.21-1.31,3.2-2.13,1.91-1.59,3.5-3.62,4.57-5.86.54-1.14,1.06-2.4,1.25-3.65.23-1.46-.98-2.3-2.33-1.89-.69.21-1.29.64-1.89,1.03-.7.45-1.38.93-2.06,1.41-1.37.97-2.74,1.95-4.09,2.95-1.4,1.03-2.81,2.05-4.16,3.14-.67.54-1.33,1.11-1.97,1.69-.69.62-1.27,1.38-1.89,2.07-.21.24.1.54.34.34h0Z" fill="#42210b"/><path d="M191.03,22.95c.11,2.49-2.3,4.41-3.98,5.89-.92.81-1.9,1.58-2.99,2.15-.53.28-1.07.5-1.65.65-.58.15-1.24.12-1.72.51-.29.24-.15.67.11.85.56.38,1.46.12,2.06-.04.66-.18,1.3-.45,1.9-.77,1.27-.67,2.4-1.59,3.45-2.57,1.03-.95,2.08-1.93,2.89-3.08.39-.55.72-1.16.87-1.82.17-.72.07-1.31-.22-1.98-.16-.36-.74-.17-.73.2h0Z" fill="#42210b"/><path d="M188.91,29.67c.79,2.04-1.49,4.07-2.96,5.14-.88.64-1.81,1.2-2.78,1.68-1.01.5-2.08.79-3.11,1.24-.78.33-.19,1.45.55,1.3,1.23-.25,2.49-.92,3.57-1.54,1.1-.62,2.13-1.35,3.09-2.17,1.65-1.4,3.12-3.61,1.96-5.78-.09-.17-.39-.05-.32.13h0Z" fill="#42210b"/><path d="M186.61,35.91c.6.37-.05,1.42-.32,1.82-.54.81-1.24,1.53-2.02,2.11-.76.56-1.6,1.01-2.5,1.31-.44.15-.89.26-1.34.34-.48.09-1.05.09-1.4.47-.18.2-.23.57,0,.76.53.44,1.24.29,1.86.15.61-.13,1.21-.34,1.79-.58,1.18-.5,2.26-1.22,3.18-2.12.79-.77,1.71-1.82,2-2.92.19-.73-.13-2.18-1.17-1.86-.23.07-.28.39-.07.51h0Z" fill="#42210b"/><path d="M182.43,42.3c.19,1.8-1,3.39-2.42,4.39-1.57,1.09-3.42,1.42-5.19,2.05-.84.3-.51,1.5.37,1.33,3.82-.75,8.56-3.26,7.89-7.86-.05-.37-.69-.28-.65.09h0Z" fill="#42210b"/><path d="M177.26,49.33c.28,2.17-1.41,3.88-3.14,4.84-.98.54-2,1.01-3,1.51-.58.28-1.15.57-1.73.85-.57.28-1.19.52-1.71.88-.54.37-.23,1.35.47,1.12.66-.21,1.27-.59,1.88-.9.64-.32,1.27-.64,1.91-.96,1.18-.59,2.39-1.14,3.48-1.88.95-.65,1.82-1.46,2.31-2.52.48-1.04.48-2.06-.06-3.06-.1-.19-.46-.12-.43.12h0Z" fill="#42210b"/><path d="M167.02,57.28c-.53.06-.85.49-.73,1.02.15.66.76,1.07,1.3,1.38,1.56.9,3.13,1.77,4.77,2.51,3.04,1.37,6.36,2.33,9.73,2,.89-.09,1.78-.25,2.63-.53.91-.29,1.68-.67,2.42-1.29.48-.4-.04-1.34-.63-1.09-1.52.64-3.02,1.25-4.69,1.42-1.71.17-3.43.01-5.1-.4-1.82-.45-3.56-1.15-5.24-1.96-.84-.41-1.68-.82-2.51-1.25-.4-.2-.84-.38-1.21-.63-.08-.05-.62-.52-.52-.63.16-.19.08-.58-.23-.55h0Z" fill="#42210b"/><path d="M167.89,73.28c.13.14-.23.28-.02.34.04.01.11-.07.15-.07.13-.02.35.08.48.11.42.12.83.27,1.22.46.7.34,1.36.75,2.03,1.13,1.26.71,2.6,1.31,3.97,1.76,2.69.89,5.55,1.26,8.37,1.11,2.88-.16,5.71-.83,8.35-1.98,1.29-.56,2.52-1.25,3.68-2.05,1.15-.81,2.67-1.9,2.37-3.52-.37-1.97-2.66-2.13-4.22-1.75-.95.23-1.9.5-2.85.75-1.03.27-2.08.5-3.09.83-.26.08-.51.28-.56.56-.07.36-.03.51.21.78.19.22.51.26.78.21,1.73-.35,3.45-.88,5.16-1.32.69-.18,1.49-.48,2.21-.32.6.14.93.6.56,1.14-.36.53-.96.91-1.47,1.27-.59.41-1.2.79-1.83,1.14-1.15.63-2.35,1.16-3.59,1.57-5.12,1.68-10.97,1.54-15.92-.65-1.52-.67-2.92-1.67-4.54-2.13-.63-.18-1.52-.41-2.01.18-.28.34-.2,1.01.35.97.26-.02.4-.31.21-.51h0Z" fill="#42210b"/><path d="M187.66,71.31c-.23.35-.01.73.35.86.6.21,1.38.03,1.98-.08,1.43-.27,2.89-.61,4.27-1.08,2.76-.93,5.45-2.16,7.83-3.85,1.19-.84,2.31-1.77,3.32-2.81.91-.94,2.25-2.25,1.78-3.7-.51-1.6-2.36-1.23-3.55-.82-1.66.58-3.32,1.18-4.97,1.8-1.85.69-3.68,1.41-5.51,2.16-.91.37-1.82.75-2.73,1.14-.45.19-.91.38-1.36.58-.5.22-.77.36-1.03.85-.16.31-.03.71.33.81.4.11.65.12,1.04-.04.33-.14.65-.28.97-.42.71-.31,1.43-.61,2.14-.9,1.4-.58,2.8-1.15,4.22-1.7,1.38-.54,2.76-1.06,4.15-1.57,1.31-.48,2.65-1.06,4.01-1.41.25-.06.76-.21.77.17.01.49-.63,1.08-.92,1.41-.84.93-1.77,1.79-2.77,2.56-1.92,1.48-4.08,2.67-6.31,3.6-1.3.54-2.63,1.02-3.97,1.45-.67.22-1.35.4-2.02.61-.21.06-1.52.67-1.7.39-.07-.12-.23-.11-.31,0h0Z" fill="#42210b"/><path d="M188.67,65.71c-.07.7.65.87,1.21.83.45-.04.83-.24,1.23-.43.52-.24,1.05-.48,1.57-.73,2-.96,3.98-1.98,5.96-2.98,2.97-1.5,6.13-3.43,7.18-6.8.12-.37-.14-.83-.52-.92-.63-.14-1.33-.22-1.95,0-.26.09-.38.42-.17.63.46.44,1.1.68,1.72.8-.17-.31-.35-.61-.52-.92-.86,2.78-3.55,4.39-5.97,5.7-1.61.87-3.24,1.7-4.87,2.54-.83.43-1.65.87-2.47,1.32-.41.23-.82.47-1.23.7-.2.11-.55.29-.73.07-.16-.2-.43-.01-.45.19h0Z" fill="#42210b"/><path d="M203.46,54.71c-1.15-.12-2.24.18-3.33.52-.52.16-1.04.33-1.55.51-.53.19-1.01.32-1.18.9-.05.18.04.38.19.48.47.28.87.1,1.35-.08.54-.2,1.09-.4,1.64-.58,1.04-.34,2.09-.62,3.03-1.21.26-.16.13-.52-.15-.55h0Z" fill="#42210b"/><path d="M185.7,62c1.84-.1,3.23-1.36,4.4-2.66,1.43-1.6,2.82-3.23,4.34-4.75.36-.36.71-.72,1.08-1.06.31-.28.72-.69,1.17-.67.8.03.76,1.15.57,1.66-.31.86-.97,1.64-1.56,2.33-.6.71-1.25,1.37-1.94,1.98-.77.68-1.61,1.29-2.49,1.83-.91.55-1.95.92-2.76,1.62-.42.37-.09,1.18.47,1.13,1.08-.08,2.06-.69,2.97-1.24.9-.55,1.75-1.18,2.55-1.86.82-.69,1.57-1.46,2.26-2.28.68-.82,1.38-1.69,1.81-2.67.42-.94.52-2.01-.02-2.93-.53-.89-1.56-1.34-2.56-1.01-1.07.35-1.87,1.31-2.63,2.09-.89.91-1.76,1.84-2.59,2.8-1.5,1.74-2.9,3.93-5.23,4.61-.57.17-.49,1.1.14,1.07h0Z" fill="#42210b"/><path d="M135.08,36.78c-.51-.33-1.22-.14-1.58.33-.36.46-.41,1.1-.09,1.6.3.47.86.74,1.42.68.56-.07.99-.46,1.16-.99.36-1.12-.73-2.2-1.84-1.81-.55.19-.94.71-.92,1.31.01.59.39,1.15.96,1.33.62.19,1.31-.15,1.6-.72.36-.72-.06-1.71-.94-1.7-.76.01-1,1-.38,1.4-.02-.02-.05-.03-.07-.05.05.05.06.06.02.01-.04-.09-.09-.19-.07-.29,0-.08.05-.11.09-.17-.05.07-.05.02,0,0,.04-.01.19-.02.13-.03-.13-.02.32.14.14.03.06.04.09.07.13.12-.09-.11.03.09,0,0-.03-.11.03.2,0,.01,0,.06-.04.14,0,.04-.03.07-.06.11-.11.17-.06.06.07-.01,0,0-.07.02-.16,0-.05.02-.1-.01-.06-.04-.01,0-.16-.15.05.07-.03-.01-.05-.05-.07-.07-.1-.15.04.09,0,.03,0-.03-.02.14,0-.07,0,0,0,0-.02.16-.01.05.02-.05.02-.05-.02.02.01-.02.03-.04.04-.06-.07.04-.04.03.01,0,.08-.03.09-.03.04-.02-.04.01-.04.01,0,0,.03,0,.2-.02.05,0,.05,0,.09.05,0,0-.06-.04-.07-.05-.03-.02.03.03.04.03,0,0-.03-.08.05.09.05.09-.04-.08.01-.05,0,0-.01.03,0,.16-.02.08.02-.04.02-.04,0,0-.04.05-.02.03.04-.06.07-.09.08-.1.03-.03.02-.02.03-.03.05-.05-.06.02-.01,0,.03,0,.21-.06-.11.02.09-.03.5-.14.56-.8.14-1.07h0Z" fill="#42210b"/><path d="M152.82,43.33c.03-.37-.05-.74-.06-1.11-.02-.44.01-.89.05-1.33.06-.86.29-1.71.57-2.52.51-1.47,1.22-2.98,2.31-4.12.54-.56,1.2-1.01,1.83-1.46.65-.46,1.27-.96,1.88-1.47,1.27-1.06,2.45-2.2,3.6-3.38.64-.67,1.25-1.37,1.89-2.03.61-.64,1.37-1.27,1.83-2.03.14-.23-.16-.41-.34-.26-.67.54-1.19,1.37-1.76,2.03-.56.66-1.17,1.27-1.78,1.88-1.26,1.26-2.62,2.43-4.13,3.38-.72.45-1.5.8-2.24,1.23-.73.42-1.37.98-1.9,1.64-1.02,1.27-1.7,2.8-2.18,4.34-.28.9-.48,1.84-.52,2.79-.04.82.1,1.93.68,2.55.11.11.27.02.28-.12h0Z" fill="#42210b"/><path d="M140.08,61c.89,1.71,2.46,2.96,4.4,3.25.1.01.13-.11.04-.15-.44-.17-.9-.33-1.3-.57-.36-.23-.69-.55-1.01-.83-.67-.57-1.23-1.2-1.66-1.97-.17-.3-.62-.03-.46.27h0Z" fill="#42210b"/><path d="M145.77,64.29c-.29-.37-.42-.8-.31-1.28-.05.01-.1.03-.16.04,1.29,1.65,3.13,3.13,5.06,3.95.9.38,1.85.62,2.83.69.95.06,2.16-.01,2.97-.56.24-.16.09-.53-.2-.47-.47.1-.92.29-1.4.36-.51.08-1.04.09-1.55.04-.99-.09-1.96-.38-2.84-.81-1.78-.87-3.15-2.22-4.75-3.34-.06-.04-.14.02-.14.08-.04.52.07.96.41,1.36.04.04.12-.02.08-.06h0Z" fill="#42210b"/><path d="M160.71,69.23c.53.67,2.42,1.5,2.89.33.03-.09-.05-.17-.13-.17-.4-.02-.8.2-1.2.23-.54.04-1.02-.17-1.39-.56-.11-.12-.27.05-.17.17h0Z" fill="#42210b"/><path d="M172.93,68.16c1.52,1.65,3.29,2.91,5.53,3.33,2.07.38,4.58.13,6.14-1.42.31-.31-.08-.76-.45-.58-1.82.86-3.68,1.43-5.7,1.05-1.91-.36-3.83-1.34-5.28-2.62-.17-.15-.4.08-.24.24h0Z" fill="#42210b"/><path d="M178.36,68.21c1.21.95,2.5,1.94,4.09,2.07.68.05,1.33-.08,1.94-.37.66-.31,1.1-.74,1.23-1.46.06-.33-.31-.75-.65-.5-.82.61-1.61,1.13-2.68,1.11-1.3-.02-2.47-.7-3.52-1.4-.32-.21-.73.3-.42.54h0Z" fill="#42210b"/><path d="M76.96,37.79c1.05.47,2.04,1.07,2.93,1.79.17-.41.34-.82.51-1.23-.89.11-1.8.1-2.68-.08-.44-.09-.87-.21-1.29-.37-.41-.15-.79-.41-1.24-.37-.43.04-.73.47-.5.87.45.79,1.83,1.07,2.65,1.25,1.01.21,2.04.27,3.06.15.53-.06,1.06-.8.51-1.23-1.06-.83-2.19-1.49-3.43-2.01-.7-.3-1.22.92-.52,1.24h0Z" fill="#42210b"/><path d="M77,36.85c.03-2.93-2.25-5.35-4.84-6.39-2.82-1.13-5.97-.39-8.34,1.4-.68.52-1.29,1.1-1.83,1.77-.52.65-1.07,1.36-1.17,2.21-.05.42.49.51.74.31.66-.54,1.09-1.35,1.68-1.96.57-.58,1.2-1.11,1.89-1.54,1.35-.85,2.93-1.35,4.53-1.3,3.15.1,5.82,2.56,6.3,5.63.09.6,1.04.44,1.04-.14h0Z" fill="#42210b"/><path d="M79.73,39.76c-.34.18-.71.24-1.07.36-.31.1-.61.21-.93.28-.69.15-1.36.09-2.05.04-.59-.04-.71.89-.14,1.03.8.19,1.67.12,2.46-.09.38-.1.76-.23,1.1-.42.36-.21.62-.53.92-.81.21-.19-.06-.51-.29-.38h0Z" fill="#42210b"/><path d="M74.93,40.43c-.81.78-1.31,1.82-1.58,2.9-.13.5-.2,1.02-.24,1.54-.05.62.03,1.2.04,1.81.02,2.49.39,5.02-.19,7.47-.6,2.53-1.53,4.93-3.01,7.09-1.49,2.18-3.51,3.9-5.68,5.37-1.22.83-2.5,1.56-3.81,2.22-.66.33-1.33.64-2.01.93-.3.13-.62.32-.95.36-.11.02-.62,0-.59-.09.12-.42-.38-.62-.67-.39-.52.41-1.09.65-1.68.94-.57.28-1.16.53-1.76.75-1.15.41-2.33.68-3.55.81-2.42.26-4.9.02-7.22-.72-.88-.28-1.28,1.13-.38,1.39,2.56.75,5.21.87,7.84.42,1.27-.22,2.53-.59,3.72-1.07.58-.23,1.15-.49,1.71-.78.62-.33,1.19-.76,1.8-1.11l-.55-.55c-.48,1.04.83,1.4,1.62,1.21.57-.14,1.14-.47,1.67-.72.67-.31,1.33-.63,1.99-.97,2.53-1.29,4.96-2.86,6.92-4.94,1.88-1.98,3.36-4.36,4.31-6.92.49-1.31.82-2.65.97-4.04.07-.65.18-1.3.25-1.95.06-.67.04-1.36.02-2.03-.08-2.83-.25-6.01,1.6-8.37.32-.4-.19-.95-.58-.58h0Z" fill="#42210b"/><path d="M61.11,45.85c.06-.69.06-1.36.02-2.05-.04-.69,0-1.38-.06-2.06-.11-1.39-.28-2.78-.58-4.15-.58-2.67-1.52-5.3-3.06-7.57-1.48-2.18-3.39-4.01-5.46-5.62-1.05-.82-2.18-1.52-3.27-2.28-1.09-.76-2.17-1.56-3.25-2.33-4.64-3.31-8.75-7.45-12.6-11.64-1.94-2.11-3.78-4.28-5.55-6.54-.71-.91-1.61-1.88-2.89-1.56-1.06.27-1.84,1.32-1.96,2.38-.17,1.51.72,2.9,1.53,4.09.81,1.2,1.66,2.39,2.59,3.51.97,1.18,2.06,2.28,3.21,3.28,1.13.98,2.32,1.98,3.66,2.67.39.2.84-.31.49-.63-.95-.86-1.98-1.61-2.94-2.47-.91-.82-1.79-1.68-2.63-2.57-.88-.93-1.73-1.9-2.51-2.92-.75-.96-1.51-2.03-2-3.15-.44-1.01-.56-2.62.71-3.12,1.13-.44,2.11,1.34,2.68,2.05,1.68,2.06,3.39,4.12,5.18,6.09,3.59,3.96,7.46,7.58,11.55,11.01.97.82,1.97,1.6,2.96,2.38.47.37.94.73,1.41,1.1.5.39.94.82,1.41,1.23,1.83,1.61,3.69,3.12,5.21,5.04,1.72,2.18,2.81,4.77,3.49,7.44.36,1.38.69,2.8.91,4.21.11.71.32,1.4.44,2.1.12.74.24,1.45.45,2.18.14.5.82.36.87-.12h0Z" fill="#42210b"/><path d="M26.66,8.91c-.39-.44-1.02-.39-1.48-.08-.6.42-.62,1.21-.49,1.87.32,1.59,1.17,3.17,2.01,4.54.87,1.4,1.91,2.69,3.1,3.83,1.16,1.11,2.48,2.24,3.98,2.84.5.2.94-.57.53-.91-1.02-.82-2.13-1.5-3.11-2.37-.96-.85-1.83-1.8-2.62-2.8-.8-1.01-1.49-2.1-2.07-3.25-.29-.57-.59-1.16-.82-1.76-.15-.38-.33-.87-.15-1.27.15-.33.53-.54.85-.31.21.15.42-.17.26-.34h0Z" fill="#42210b"/><path d="M27.79,16.11c-.15-.43-.64-.56-1.05-.4-.65.25-.62,1.14-.59,1.7.09,1.56.69,3.06,1.58,4.34.94,1.36,2.16,2.46,3.5,3.41.72.51,1.47.96,2.24,1.39.61.35,1.52,1.09,2.25.78.19-.08.3-.23.25-.45-.13-.64-.76-.84-1.28-1.11-.59-.3-1.17-.62-1.74-.95-1.12-.65-2.19-1.37-3.13-2.26-.88-.84-1.63-1.81-2.14-2.91-.25-.53-.44-1.1-.55-1.68-.06-.33-.1-.66-.11-1,0-.1.11-1.13.35-.69.12.23.51.07.42-.18h0Z" fill="#42210b"/><path d="M28.35,23.2c-.98.8-.79,2.13-.33,3.16.56,1.26,1.38,2.42,2.32,3.42,1.83,1.96,4.47,3.73,7.2,3.97.74.06.8-1.02.17-1.23-1.09-.37-2.18-.66-3.21-1.18-1.05-.54-2.04-1.18-2.92-1.97-.86-.78-1.61-1.66-2.22-2.65-.5-.81-1.48-2.33-.71-3.22.17-.2-.09-.46-.29-.29h0Z" fill="#42210b"/><path d="M31.15,29.29c-1.19.38-1.26,1.78-.82,2.76.58,1.28,1.72,2.38,2.75,3.29,1.05.93,2.2,1.75,3.43,2.43,1.21.67,2.66,1.44,4.06,1.57.52.05.72-.76.27-.99-1.05-.53-2.21-.8-3.27-1.33-1.06-.52-2.07-1.15-3-1.87-.93-.71-1.75-1.53-2.55-2.38-.75-.81-1.66-2.1-.64-3.1.17-.16,0-.47-.23-.4h0Z" fill="#42210b"/><path d="M33,34.58c-1.62,1.46-.55,3.88.5,5.34,1.19,1.65,3.11,3.3,5.16,3.7.82.16,1.1-.93.34-1.23-.82-.32-1.62-.59-2.37-1.05-.75-.46-1.41-1.03-1.99-1.69-.56-.64-1.09-1.4-1.37-2.22-.28-.79-.47-1.76.14-2.44.25-.28-.13-.67-.42-.42h0Z" fill="#42210b"/><path d="M34.15,41.51c-.02.84-.06,1.63.07,2.47.12.81.35,1.59.63,2.35.58,1.55,1.39,3,2.39,4.32,2.04,2.7,4.81,4.72,8.07,5.7,1.12.34,2.28.58,3.43.81,1.18.24,2.35.6,3.54.74.72.08.97-1.03.36-1.35-.9-.47-1.9-.63-2.89-.82-.96-.19-1.92-.35-2.87-.56-1.65-.36-3.22-.91-4.67-1.79-2.65-1.59-4.75-3.96-6.04-6.77-.36-.8-.62-1.62-.87-2.46-.26-.86-.54-1.78-.64-2.67-.04-.32-.5-.34-.51,0h0Z" fill="#42210b"/><path d="M28.22,23.12c-.53-.59-1.03-1.24-1.59-1.8-.56-.56-1.2-1.07-1.8-1.57-1.22-1.02-2.51-1.96-3.79-2.91-1.29-.96-2.6-1.9-3.91-2.83-1.35-.97-2.7-1.99-4.14-2.8-1.01-.57-2.7-.84-3.13.61-.18.61.03,1.27.2,1.86.17.61.38,1.21.63,1.79.98,2.37,2.48,4.53,4.38,6.26,1.02.94,2.16,1.76,3.37,2.43.62.34,1.25.63,1.91.9.69.28,1.43.67,2.12.22.25-.16.31-.44.19-.71-.27-.57-.73-.67-1.28-.87-.53-.19-1.04-.42-1.55-.67-.97-.49-1.9-1.07-2.75-1.75-1.72-1.38-3.17-3.07-4.23-5.01-.52-.96-.94-1.97-1.24-3.02-.07-.26-.14-.52-.2-.78,0,.01,0-.23-.04-.19-.02.03.03.02.05.01.42-.12,1.19.51,1.49.7,2.49,1.54,4.83,3.31,7.25,4.95,1.27.86,2.53,1.74,3.78,2.62.67.47,1.32.98,1.98,1.47.65.49,1.33.9,1.97,1.43.24.2.55-.11.34-.34h0Z" fill="#42210b"/><path d="M15.52,21.59c-.28.65-.38,1.19-.24,1.9.13.66.46,1.28.84,1.83.82,1.18,1.89,2.18,2.94,3.15,1.03.95,2.14,1.86,3.38,2.53.6.32,1.24.6,1.89.79.62.18,1.57.46,2.14.06.26-.18.4-.62.11-.85-.48-.39-1.14-.36-1.72-.51-.55-.14-1.07-.35-1.57-.61-1.12-.58-2.12-1.36-3.06-2.19-1.68-1.48-4.1-3.4-3.98-5.89.02-.37-.57-.56-.73-.2h0Z" fill="#42210b"/><path d="M18.05,28.37c-1.17,2.16.31,4.38,1.96,5.78.96.82,2,1.55,3.09,2.17,1.09.62,2.34,1.29,3.57,1.54.73.15,1.33-.96.55-1.3-1-.43-2.04-.72-3.03-1.2-1-.49-1.96-1.06-2.87-1.72-1.48-1.07-3.76-3.1-2.96-5.14.07-.18-.22-.3-.32-.13h0Z" fill="#42210b"/><path d="M20.6,34.23c-1.01-.31-1.36,1.07-1.19,1.8.27,1.12,1.21,2.19,2.01,2.98.89.87,1.95,1.59,3.1,2.08.6.26,1.23.48,1.87.62.62.14,1.34.29,1.86-.15.23-.19.18-.56,0-.76-.34-.37-.86-.38-1.32-.46-.45-.08-.9-.19-1.34-.33-.92-.3-1.8-.76-2.58-1.34-.76-.56-1.44-1.26-1.98-2.04-.28-.41-1-1.51-.37-1.89.21-.13.17-.44-.07-.51h0Z" fill="#42210b"/><path d="M24.19,41.05c-.66,4.6,4.07,7.11,7.89,7.86.87.17,1.21-1.03.37-1.33-1.77-.63-3.62-.96-5.19-2.05-1.43-.99-2.61-2.59-2.42-4.39.04-.37-.6-.46-.65-.09h0Z" fill="#42210b"/><path d="M29.59,48.05c-.53.97-.56,1.97-.1,2.99.49,1.09,1.37,1.93,2.35,2.6,1.06.72,2.24,1.26,3.39,1.83.64.32,1.27.64,1.91.96.65.32,1.29.72,1.98.94.7.23,1.01-.74.47-1.12-.49-.34-1.08-.57-1.61-.83-.58-.28-1.15-.57-1.73-.85-1.03-.51-2.09-.99-3.1-1.55-1.73-.96-3.42-2.67-3.14-4.84.03-.23-.33-.3-.43-.12h0Z" fill="#42210b"/><path d="M40.03,56.67c.08.1-.39.54-.47.6-.35.25-.79.42-1.18.61-.83.43-1.67.85-2.51,1.25-1.71.83-3.48,1.55-5.33,2.01-1.64.41-3.33.56-5.01.41-1.7-.16-3.22-.78-4.78-1.43-.6-.25-1.12.69-.63,1.09,2.46,2.06,6.25,2.14,9.27,1.62,3.46-.6,6.66-2.24,9.68-3.96.68-.39,1.47-.73,1.82-1.48.27-.58.01-1.2-.64-1.27-.3-.03-.38.36-.23.55h0Z" fill="#42210b"/><path d="M39.6,72.63c.42.04.6-.39.47-.75-.24-.67-1.04-.61-1.6-.52-1.51.26-2.83,1.15-4.17,1.82-2.39,1.2-5.05,1.91-7.71,2.12-5.34.42-11.06-.9-15.29-4.31-.4-.32-1.24-1.01-.71-1.55.56-.57,1.51-.3,2.17-.13,1.92.48,3.82,1.09,5.76,1.48.27.05.59.02.78-.21.24-.28.28-.42.21-.78-.06-.28-.31-.48-.56-.56-1.71-.56-3.51-.94-5.25-1.4-1.5-.4-3.33-.77-4.45.63-1.09,1.35-.15,2.89,1.01,3.8,1.12.88,2.33,1.64,3.61,2.27,5.12,2.54,11.15,3.17,16.66,1.64,1.55-.43,3.05-1.03,4.47-1.78.75-.4,1.48-.86,2.23-1.26.42-.22.84-.4,1.29-.55.19-.06.42-.16.62-.17.03,0,.15,0,.17,0,.03.02.07.04.1.05.16.09.15-.03-.02-.34-.19.2-.04.49.21.51h0Z" fill="#42210b"/><path d="M19.31,70.15c-.08.13-.51,0-.62-.03-.28-.08-.55-.2-.83-.29-.61-.2-1.24-.35-1.85-.55-1.2-.38-2.4-.8-3.58-1.26-2.27-.88-4.44-2.01-6.43-3.41-.98-.69-1.9-1.47-2.75-2.32-.26-.26-2.23-2.17-1.44-2.4.39-.12,1.05.22,1.4.34.73.26,1.46.51,2.19.78,1.39.5,2.78,1.02,4.16,1.55,1.58.61,3.15,1.23,4.71,1.88.78.32,1.56.65,2.34.98.36.15.71.31,1.07.46.47.2.74.25,1.24.12.35-.09.49-.5.33-.81-.22-.41-.41-.58-.84-.77-.39-.17-.78-.33-1.17-.5-.84-.36-1.69-.71-2.54-1.06-1.63-.67-3.27-1.32-4.91-1.95-1.65-.63-3.3-1.24-4.96-1.83-1.2-.43-2.92-1.33-4.12-.45-1.42,1.04-.43,2.77.45,3.78.96,1.1,2.04,2.08,3.19,2.96,2.32,1.78,4.94,3.1,7.67,4.11,1.54.57,3.13.98,4.74,1.32.69.15,1.54.37,2.25.25.44-.08.92-.45.6-.92-.08-.11-.23-.12-.31,0h0Z" fill="#42210b"/><path d="M18.16,64.36c-.18.22-.53.04-.73-.07-.41-.23-.82-.47-1.23-.7-.82-.45-1.64-.89-2.47-1.32-1.62-.85-3.26-1.67-4.87-2.54-2.41-1.3-5.11-2.91-5.97-5.7l-.52.92c.61-.12,1.25-.36,1.72-.8.22-.21.09-.54-.17-.63-.62-.22-1.32-.15-1.95,0-.38.09-.64.55-.52.92,1.05,3.36,4.21,5.29,7.18,6.8,1.98,1,3.96,2.01,5.96,2.98.52.25,1.05.49,1.57.73.4.19.78.39,1.23.43.56.04,1.28-.12,1.21-.83-.02-.2-.29-.38-.45-.19h0Z" fill="#42210b"/><path d="M3.67,54.1c.94.58,1.98.87,3.03,1.21.52.17,1.03.35,1.54.54.5.19.94.41,1.44.11.16-.09.25-.3.19-.48-.16-.55-.59-.69-1.08-.87-.54-.19-1.09-.38-1.65-.55-1.09-.34-2.17-.63-3.33-.52-.28.03-.41.38-.15.55h0Z" fill="#42210b"/><path d="M21.72,59.78c-2.04-.6-3.32-2.35-4.62-3.91-.82-.98-1.67-1.92-2.55-2.84-.79-.83-1.59-1.78-2.56-2.41-.87-.56-2-.64-2.8.09-.76.68-.98,1.75-.77,2.72.23,1.06.94,1.99,1.59,2.84.66.85,1.38,1.65,2.17,2.38.86.79,1.79,1.51,2.77,2.15,1,.64,2.13,1.38,3.34,1.47.56.04.9-.77.47-1.13-.7-.61-1.59-.93-2.39-1.4-.79-.46-1.55-.97-2.26-1.55-1.44-1.17-2.81-2.58-3.77-4.18-.36-.6-.78-1.6-.12-2.16.66-.56,1.62.6,2.03,1.01,1.55,1.52,3.01,3.12,4.43,4.76,1.29,1.5,2.79,3.12,4.9,3.24.62.03.72-.9.14-1.07h0Z" fill="#42210b"/><path d="M72.34,36.7s.11.04.13.05c-.06-.03.09.08,0,0,.01.01.18.24.09.11.08.11,0,.03,0-.02,0-.06.05-.14,0-.04.02-.05.04-.08.07-.12-.09.11.04-.04-.01.03-.06.07-.13.01-.02.02-.08,0-.06,0,.01,0,.03,0,.05.01.08.02-.07-.02-.08-.02-.03,0,.02.01.12.1.07.04-.06-.07.07.11,0-.01.03.05.04.1.01.01-.06-.17,0,.09,0,0,0-.08-.05.14,0,0-.02.05-.04.08-.07.13l-.06.04c.07-.04.08-.04.02-.02-.08.04.09,0,0,0-.06,0-.05.01.03,0-.03,0-.05,0-.08,0-.07-.02-.07-.05-.01,0-.06-.05-.08-.09-.13-.15-.02-.05-.02-.06,0-.01.01.06.01.04,0-.07-.01.11,0,0,.02-.04-.07.18.07-.1,0,0-.03.05.09-.08.12-.1-.14.09.15-.03.17-.03-.11.03-.02-.01.06.02.02,0,.12.1.07.04-.06-.06.05.07.06.11.03.1-.01.21-.05.31-.05.07-.06.08-.02.04.04-.04.03-.03-.05.03.62-.4.38-1.39-.38-1.4-.73-.01-1.22.73-1.05,1.41.15.59.69,1.02,1.3,1.05,1.25.07,1.82-1.64.91-2.42-.93-.79-2.46-.09-2.37,1.16.03.51.3.99.76,1.23.54.28,1.19.15,1.64-.25.48-.43.6-1.13.3-1.69-.32-.59-1.12-.9-1.71-.52-.42.27-.36.93.14,1.07h0Z" fill="#42210b"/><path d="M54.74,42.29c.5-.54.66-1.45.69-2.17.04-.83-.13-1.71-.34-2.51-.41-1.58-1.06-3.2-2.01-4.53-.47-.65-1-1.22-1.64-1.7-.7-.54-1.53-.86-2.29-1.29-1.54-.87-2.95-2.02-4.22-3.26-.69-.66-1.36-1.34-2-2.05-.66-.74-1.23-1.7-2-2.32-.18-.14-.48.04-.34.26.39.66,1.04,1.2,1.56,1.75.57.6,1.12,1.22,1.69,1.83,1.13,1.2,2.3,2.38,3.56,3.44.6.51,1.21,1,1.83,1.48.64.5,1.33.93,1.94,1.45,1.19,1.03,1.95,2.46,2.52,3.9.35.89.65,1.82.77,2.77.06.44.08.89.09,1.33,0,.5-.11.99-.07,1.48.01.13.18.23.28.12h0Z" fill="#42210b"/><path d="M66.74,59.57c-.43.77-1,1.39-1.66,1.97-.32.28-.65.6-1.01.83-.4.25-.86.4-1.3.57-.09.04-.06.16.04.15,1.94-.29,3.51-1.54,4.4-3.25.16-.31-.29-.57-.46-.27h0Z" fill="#42210b"/><path d="M61.59,63.19c.34-.4.45-.84.41-1.36,0-.06-.08-.12-.14-.08-1.6,1.12-2.97,2.48-4.75,3.34-.89.43-1.86.73-2.84.81-.52.04-1.04.04-1.55-.04-.48-.08-.93-.26-1.4-.36-.29-.06-.44.3-.2.47.79.53,1.95.61,2.87.57,1.01-.05,1.99-.3,2.92-.69,1.93-.82,3.77-2.3,5.06-3.95l-.16-.04c.11.47-.02.91-.31,1.28-.04.05.04.11.08.06h0Z" fill="#42210b"/><path d="M46.4,67.89c-.38.39-.85.6-1.39.56-.4-.03-.8-.25-1.2-.23-.08,0-.16.08-.13.17.47,1.17,2.36.34,2.89-.33.09-.12-.06-.29-.17-.17h0Z" fill="#42210b"/><path d="M34.1,66.75c-1.45,1.28-3.37,2.26-5.28,2.62-2.03.38-3.88-.19-5.7-1.05-.36-.17-.76.27-.45.58,1.56,1.55,4.07,1.81,6.14,1.42,2.25-.42,4.01-1.68,5.53-3.33.15-.16-.08-.39-.24-.24h0Z" fill="#42210b"/><path d="M28.5,66.51c-1.05.7-2.22,1.37-3.52,1.4-1.07.02-1.86-.51-2.68-1.11-.34-.25-.71.16-.65.5.12.69.53,1.11,1.16,1.43.62.32,1.31.46,2.01.4,1.59-.12,2.88-1.12,4.09-2.07.31-.24-.09-.76-.42-.54h0Z" fill="#42210b"/><path d="M96.86,50.32c.42-.28,1.4.6,1.71.86.62.54,1.1,1.21,1.46,1.95.84,1.7.91,3.82.49,5.64-.21.89-.58,1.68-1.28,2.28-.67.58-1.54,1.06-2.36,1.4-.84.36-1.77.32-2.46-.33-.33-.31-.55-.74-.62-1.18-.07-.44.05-.83-.16-1.24-.15-.3-.52-.27-.74-.1-.72.56-.33,1.94.03,2.61.44.84,1.29,1.45,2.21,1.64,1.04.21,1.97-.12,2.88-.6.89-.47,1.82-.94,2.53-1.67,1.43-1.5,1.67-3.9,1.52-5.88-.15-2.04-.91-4.05-2.48-5.42-.62-.55-1.71-1.37-2.6-1.13-.34.09-.72.34-.69.73.02.23.3.61.57.43h0Z" fill="#42210b"/><path d="M93.69,60.55c.32-.31.47-.72.72-1.09-.25-.03-.5-.07-.76-.1.14.39.22.64.52.95.26.26.56.5.91.63.6.23,1.26.13,1.77-.26,1.15-.87,1.3-2.55,1.3-3.88,0-1.69-.37-3.35-1.06-4.89-.28-.62-.61-1.51-1.32-1.72-.74-.22-1.69.49-1.21,1.28.16.26.42.33.71.29.06,0,.11-.02.16-.05.4-.17-.12-.08-.11-.09,0-.01.33.52.35.57.25.48.46.99.62,1.51.33,1.04.51,2.11.51,3.2,0,.83,0,1.86-.51,2.56-.22.31-.52.46-.89.3-.23-.1-.4-.3-.58-.47-.18-.17-.37-.26-.57-.4-.22-.17-.54.02-.61.25-.13.42-.35.79-.39,1.23-.02.23.28.31.43.18h0Z" fill="#42210b"/><path d="M95.16,51.16c.33-.25.82-.44,1.22-.55.39-.11.93-.13,1.22-.43.15-.16.19-.46,0-.61-.45-.37-1.15-.18-1.62.09-.22.13-.44.31-.62.49-.24.23-.31.46-.46.75-.08.15.1.39.26.26h0Z" fill="#42210b"/><path d="M101.25,60.99c-.11,1.43,1.17,2.65,2.46,3.02.75.22,1.56.17,2.09-.47.51-.63.76-1.53.91-2.31.33-1.77.09-3.59-.42-5.3-.49-1.65-1.03-3.45-2.19-4.77-1.02-1.16-3.9-2.35-4.72-.36-.15.36.23.81.6.78.73-.05,1.33-.43,2.08-.2.77.24,1.32.91,1.72,1.58.87,1.44,1.5,3.09,1.81,4.74.3,1.58.35,3.55-.5,4.98-.46.77-1.49.24-2.06-.15-.61-.42-.99-1.03-1.37-1.65-.12-.19-.39-.1-.4.11h0Z" fill="#42210b"/><path d="M99.92,51.74c.3.79.78,1.5,1.13,2.26.37.81.71,1.63.98,2.48.27.83.48,1.68.64,2.55.08.44.15.87.2,1.31.04.37.09.56-.11.87-.15.24-.07.66.21.79.02,0,.04.02.06.03.29.13.53.09.77-.1.7-.55.35-1.76.23-2.5-.15-.99-.4-1.96-.72-2.91-.31-.93-.69-1.86-1.16-2.72-.45-.83-.95-1.75-1.66-2.39-.23-.21-.71-.01-.58.34h0Z" fill="#42210b"/><path d="M100.97,59.25c.26.23.52.46.79.68.23.19.56.43.88.41.18-.01.27-.15.25-.32-.04-.29-.33-.56-.54-.74-.25-.21-.52-.41-.78-.62-.18-.14-.42-.17-.6,0-.15.15-.17.45,0,.6h0Z" fill="#42210b"/><path d="M103.73,51.33c.51.57,1.46.72,2.19.73.84.01,1.64-.19,2.4-.52,1.61-.7,2.91-1.97,4.09-3.25,2.25-2.43,4.55-5.37,7.84-6.37.97-.3,1.94-.52,2.97-.55.51-.02,1.02,0,1.52.06.55.06,1.04.21,1.6.13.67-.1.62-1.01.17-1.32-.69-.48-1.82-.46-2.63-.47-.89-.01-1.8.09-2.67.28-1.68.37-3.27,1.24-4.64,2.27-1.33,1-2.49,2.17-3.62,3.39-1.17,1.27-2.27,2.65-3.62,3.73-.75.6-1.59,1.08-2.52,1.32-.47.12-.94.21-1.43.2-.49,0-.96-.14-1.45-.13-.27,0-.38.32-.21.51h0Z" fill="#42210b"/><path d="M106.03,55.74c.72.47,1.75.3,2.52.04.83-.27,1.6-.73,2.32-1.2,1.39-.91,2.65-2.01,3.84-3.16,2.43-2.36,4.59-5.05,7.38-7.01.87-.61,1.82-1.25,2.82-1.6,1-.35,2.12-.6,2.99-1.2.52-.36.33-1.17-.32-1.19-.96-.04-1.78.37-2.63.78-.82.39-1.63.87-2.41,1.34-1.45.88-2.78,1.97-4.01,3.14-2.39,2.27-4.47,4.87-7.05,6.94-.7.57-1.45,1.08-2.24,1.52-.46.26-.94.51-1.44.65-.52.15-1,.09-1.53.09-.47,0-.61.61-.23.86h0Z" fill="#42210b"/><path d="M95.61,50.04c-1.48.57-2.99.05-4.28-.77-1.34-.84-2.3-2.16-3.23-3.41-.96-1.3-1.93-2.57-3.11-3.66-.59-.55-1.22-1.05-1.87-1.52-.66-.48-1.44-1.09-2.23-1.31-.72-.2-1.37.78-.76,1.31.64.55,1.48.91,2.18,1.39.7.49,1.36,1.03,1.98,1.61,1.29,1.21,2.31,2.64,3.43,4.01,1.05,1.28,2.24,2.47,3.78,3.14,1.37.6,3.06.59,4.41-.09.38-.19.11-.86-.3-.7h0Z" fill="#42210b"/><path d="M79.69,41.12c.55.55,1.17,1.02,1.72,1.57.55.54,1.04,1.15,1.49,1.77,1.01,1.43,1.77,3.01,2.69,4.5,1.76,2.84,4.21,5.02,7.43,6.05.86.27,1.74.45,2.63.54.72.07,1.89.25,2.4-.41.22-.28.28-.57.12-.9-.04-.08-.1-.15-.17-.22-.14-.14-.35-.2-.54-.14.14-.05-.25.07-.31.09-.11.04-.13.07-.24.09-.37.06-.81-.02-1.17-.05-.73-.07-1.44-.23-2.14-.44-1.45-.45-2.83-1.19-3.98-2.17-2.52-2.16-3.64-5.38-5.64-7.96-.97-1.26-2.39-2.71-4.07-2.81-.26-.02-.38.33-.21.5h0Z" fill="#42210b"/><path d="M94.65,60.9c.27-.33.19-.93.07-1.32-.18-.61-.48-1.19-.73-1.77-.25-.57-.48-1.15-.57-1.77-.1-.68.09-1.16.26-1.8.14-.56-.63-1.11-1.04-.6-.86,1.06-.51,2.69-.03,3.84.26.62.59,1.2.88,1.81.15.32.29.64.47.94.15.26.23.54.5.69.06.03.15.03.19-.02h0Z" fill="#42210b"/><path d="M92.11,54.96c-.38.77-.13,1.88,0,2.69.08.47.17.94.3,1.41.13.45.22.97.6,1.28.18.14.47.11.53-.14.1-.42-.06-.78-.17-1.19-.12-.46-.24-.93-.34-1.4-.1-.47-.16-.94-.23-1.41-.06-.42-.08-.86-.29-1.23-.08-.15-.33-.16-.41,0h0Z" fill="#42210b"/><path d="M94.7,55.43c-.16.95-.09,1.91.31,2.79.32.71,1.03,1.96,1.93,1.81.2-.03.37-.28.36-.47-.02-.43-.27-.58-.54-.86-.27-.27-.48-.59-.66-.92-.36-.69-.52-1.43-.47-2.21.03-.53-.84-.66-.93-.13h0Z" fill="#42210b"/><path d="M79.14,39.94c-.29,1.58-.62,3.05-1.29,4.53-.66,1.47-1.41,2.92-1.87,4.47-.45,1.52-.54,3.14-.02,4.66.55,1.62,1.47,2.97,2.39,4.4,1.01,1.56,1.58,3.19,1.55,5.07-.04,1.99-.63,3.9-1.32,5.75-.72,1.91-1.54,3.8-2.03,5.79-.41,1.7-.53,3.48-.35,5.23.21,1.94.72,3.85,1.61,5.59.44.86,1,1.59,1.59,2.35.61.77,1.27,1.35,2.09,1.88.22.15.54-.15.38-.38-1.92-2.71-3.56-5.65-4.03-8.99-.23-1.65-.16-3.33.18-4.96.42-1.97,1.19-3.84,1.89-5.72,1.31-3.53,2.39-7.5.62-11.08-.73-1.49-1.81-2.78-2.72-4.16-.9-1.37-1.2-2.84-.84-4.44.39-1.73,1.26-3.29,1.95-4.91.65-1.54,1.39-3.39.9-5.07-.09-.32-.64-.37-.7,0h0Z" fill="#42210b"/><path d="M82.55,88.74c-.15-.97-.13-1.9.29-2.8.43-.94,1.15-1.39,1.95-1.98.28-.2.24-.81-.2-.75-2.35.29-3.8,3.82-2.58,5.77.19.3.6.09.55-.23h0Z" fill="#42210b"/><path d="M83.91,82.59c-.24-1.35-.96-2.41-1.76-3.49-.91-1.22-1.65-2.46-1.64-4.03,0-1.69.66-3.31,1.32-4.83.66-1.53,1.38-3.04,1.96-4.6,1.06-2.85,1.66-6.13.53-9.06-.53-1.38-1.46-2.46-2.37-3.59-.45-.56-.88-1.15-1.16-1.8-.33-.76-.39-1.58-.38-2.4.03-1.77.53-3.5.53-5.28,0-1.46-.29-3.18-1.63-4.01-.23-.14-.61.1-.5.38.53,1.26.87,2.5.83,3.88-.05,1.56-.44,3.08-.53,4.63-.09,1.56.25,3.09,1.13,4.4.8,1.2,1.89,2.19,2.58,3.47,1.49,2.78.86,6.15-.16,8.97-1.11,3.06-3.03,6.06-3.24,9.36-.11,1.69.46,3.17,1.43,4.52.88,1.21,2.03,2.29,2.73,3.62.1.19.36.05.33-.14h0Z" fill="#42210b"/><path d="M126.43,41.2c-1.16,1.07-1.75,2.84-2.06,4.35-.36,1.72-.38,3.37-.1,5.1.28,1.71.72,3.44.43,5.18-.22,1.36-.77,2.58-1.41,3.8-1.27,2.42-2.78,4.99-2.07,7.82.4,1.61,1.33,3.06,2.1,4.51.82,1.55,1.59,3.13,2.1,4.81.94,3.14.81,6.99-1.78,9.34-.6.54.29,1.43.89.89,2.17-1.97,2.96-5.05,2.65-7.9-.39-3.49-2.18-6.48-3.86-9.48-.78-1.4-1.42-2.9-1.2-4.54.18-1.3.77-2.7,1.51-3.77.8-1.15,1.53-2.43,2.09-3.71.66-1.53.77-3.11.55-4.75-.26-1.91-.85-3.85-.76-5.8.04-.95.21-1.89.49-2.8.28-.92.71-1.79.98-2.71.1-.32-.31-.53-.54-.32h0Z" fill="#42210b"/><path d="M124.45,86.32c.28.33.47.48.88.64.41.16.86.27,1.29.36.82.17,1.67.28,2.5.15,1.48-.23,2.73-1.17,3.34-2.54.58-1.31.71-2.78.63-4.2-.11-1.7-.38-3.4-.69-5.07-.33-1.81-.77-3.61-1.42-5.34-.31-.82-.67-1.63-1.07-2.41-.42-.81-.98-1.56-1.35-2.39-.76-1.7-.44-3.62,0-5.37.46-1.88,1.05-3.71,1.27-5.64.24-2.14.12-4.32-.3-6.43-.41-2.06-1.31-4.06-.96-6.2.09-.56-.59-.88-.92-.39-1.04,1.53-.48,3.41-.02,5.05.5,1.79.8,3.59.81,5.45.01,1.88-.26,3.73-.71,5.55-.43,1.74-.95,3.48-1,5.28-.02.84.07,1.7.32,2.5.27.85.73,1.59,1.19,2.35.9,1.5,1.57,3.12,2.07,4.79.5,1.68.84,3.41,1.1,5.14.23,1.51.48,3.04.41,4.57-.07,1.5-.46,3.07-1.99,3.72-.8.34-1.74.33-2.59.22-.48-.06-.93-.19-1.4-.29-.46-.1-.79-.1-1.25.02-.21.06-.25.31-.12.46h0Z" fill="#42210b"/></svg>