<?xml version="1.0" encoding="UTF-8"?><svg id="Layer_1" xmlns="http://www.w3.org/2000/svg" viewBox="0 0 791.38 165.91"><path d="M49.78,125.17v-.27c0-.81.13-1.21.27-1.89l.41-1.62c0-.27.13-.4.13-.67.4-1.08.4-1.62.13-2.43-.13-.13-.13-.54.13-1.48.27-.54.4-.95.4-1.35,0-.13,0-.4.13-.54.14-1.35.27-2.02.67-2.43-.67-.54-.81-1.21-.13-2.43.27-.4.27-.54.4-.67.27-.94.27-1.62.13-2.7,0-.4,0-.81.27-1.35.13-.54.27-.81.27-1.08.4-1.89.81-3.91.94-5.8.13-.67.13-1.35.27-2.7,0-.94.13-1.75.27-2.7,0-.13,0-.27-.13-.67v-.54c-.27-2.16-.81-4.45.41-6.47.27-.81.13-1.62-.27-2.29-.27-.67-.27-.94-.13-1.08,1.08-3.51,1.21-11.2,1.35-14.57l-.67-6.61c0-.41,0-.94-.13-1.35,0-1.35,0-2.02-.27-2.83-.27-.81-.27-1.62,0-2.16.14-.13.27-.4.27-.67s0-.27-.13-.27l.13-.13-1.08-6.88c-.67-1.89-1.08-3.51-1.48-4.86-.4-2.02-.81-3.51-1.75-5.67,0,.14-.41-.54-.67-1.08-.67-1.08-1.08-1.62-1.75-2.16,0-.13,0,0-.27-.41-.4-.54-.4-.81-.54-1.08l-.54-.54c-1.62-2.02-6.34-4.05-7.82-3.37-.13,0-.27-.13-.4-.13-.81-.13-1.62-.27-2.43-.13-.54.13-1.08.13-2.02,0-1.08-.13-2.43-.27-3.51.27l-5.8,2.43c-2.43,1.21-4.18,2.16-6.21,3.78-.54.41-.81.67-1.48,1.48-1.08,1.08-2.02,2.29-3.51,2.7-.54.67-.67.94-.54,1.62,0,.27,0,.67-.13.94-1.62.54-2.7,1.89-2.83,3.51-.13.54-.4.81-.94,1.35l-.67.67c-1.75,2.56-2.02,3.78-2.83,6.21-.13.4-.13.67-.4,1.48-.27.94-.41,1.89-.81,2.7-.13.67-.13,2.02,0,5.26v2.56c-.27,2.16.67,4.72,2.29,6.88.27.27.54.81.81,1.35.81,1.21,1.21,1.75,2.02,2.43,2.16,1.89,5.12,2.56,8.5,2.43.4-.14.67-.14,1.08-.14l1.35-.13c2.56-.27,5.13-1.08,6.47-2.83.54-.81,1.08-1.35,2.02-2.02,1.89-1.35,3.24-2.7,4.18-4.72q.54-.27,1.35-.13v.13c.67.13.67,1.48,0,3.24l-1.75,2.83c-.27.67-.81,1.21-2.29,1.89l-1.35.81c-.94.54-1.89,1.08-2.7,1.62-1.62.94-3.1,1.35-4.45,1.35h-.13l-2.97.54h-.13c-.4.13-.81.27-1.08.27-.4,0-.81-.13-1.21-.13-2.56-.27-3.64-.54-4.72-.94-4.32-1.35-6.07-2.43-7.28-4.32-.27-.4-.94-.81-1.35-1.21-.67-.4-1.08-.67-1.21-1.48-.14-.67-.27-1.35-.27-2.02,0-.4-.13-.67-.13-1.21l-.54-1.21q-.27-.13-.41-.54v-.27c.13-.41.13-.67,0-.94-.81-1.62-.67-3.37.13-6.47.41-1.62.41-2.29.14-3.1-.41-1.21-.14-2.29.81-4.59.41-.94.81-1.89,1.08-2.83.27-1.62.67-2.29,1.48-2.97.67-.81,1.08-1.21,1.35-1.89.27-.67.54-1.21,1.62-2.29l.41-.54c1.62-2.16,1.62-2.29,2.43-3.51.27-.4.54-.81.81-1.35.27-.27.27-.4.81-.81.13-.13.54-.4.54-.54,1.89-1.48,4.05-3.24,5.8-4.72,4.32-3.78,11.74-5.8,14.03-5.67.41,0,.67-.13,1.08-.13,1.48-.41,2.83-.67,4.32-.54,1.08,0,1.48,0,1.89.13.94.14,1.75.14,2.43.14,1.21,0,1.75,0,2.97,1.08.94.27,2.43,1.21,3.51,1.75.54.4.67.67,1.35,1.08.54.27,1.08,1.35.94,1.35.54.27.81.67.94,1.21.14,0,.54.4.67,1.08.13.41.4.94.94,1.75.54.81.67,1.21.67,1.75,0,1.21.27,2.16,1.48,3.78.81,1.21.94,1.75.81,2.56.81,1.75,1.35,5.93,1.89,9.17.41,2.97.54,3.78.67,4.18.13.13.13.54.27.94,0,.67,0,.94.13,1.21.14.4.14.94-.13,1.89-.4,1.48-.4,2.16.13,2.97.27.67.27,1.62.14,3.37v2.56c.13,2.29,0,3.51-.67,4.45.4,1.08.4,2.16,0,4.18-.27,1.62-.4,2.43-.27,3.24v3.1c-.13,2.02-.27,4.05.27,6.07,0,0,.13.13,0,.67v.4c-.54,1.89-1.21,3.91-.54,5.94-.81,2.29-.67,4.59-.67,6.88v2.83l-.41,1.48c-.27.67-.4,1.08-.4,1.62,0,.13.4.81.4.94.27.41,2.16,0,2.43-.54,0-.54.13-1.08.94-2.16.27-.4.67-.81.81-1.21.81-1.35,1.35-2.29,2.97-4.32.94-1.48,2.16-2.97,2.83-4.59.67-1.21,1.35-2.02,3.1-3.51.27-.41.81-.81,1.08-1.08.13-.27.27-.27.4-.54.67-.67,1.35-1.62,1.75-2.43.54-.94,1.08-1.48,2.16-2.7.81-.81,1.75-1.75,2.29-2.7.94-.67,1.62-1.21,2.83-2.56l1.08-1.48c.94-.81,1.75-1.35,3.51-2.83q2.02-1.35,3.78-.13c.27.27.54.81.81,1.21l.4,1.62c.13.81.13,1.08.27,1.48.14.4,0,1.08-.13,1.35-.54.81-.54,1.48-.13,2.56.41.54.41,1.35.27,1.89-.4.67-.54,1.35-.4,1.89.4,1.35.27,2.83,0,4.32,0,1.08-.13,2.02-.13,3.1v3.64c-.13,1.35-.13,2.56-.13,3.91,0,2.97.13,5.94.27,9.31l1.21.13,1.35-1.89c1.08-1.21,1.62-2.43,2.43-4.99l2.02-6.34c.27-.54.4-1.08.67-1.62,1.35-1.08,2.16-2.29,3.37-5.26.27-.54.67-1.35.81-1.89l1.89-3.64c.81-1.21,1.48-2.56,2.43-3.51,1.08-1.21,2.29-2.56,2.97-3.91.54-.95.94-1.48,2.02-2.83s2.16-2.7,2.97-4.32c.14-.67.41-.94,1.89-2.16,1.62-1.62,2.97-3.24,3.91-4.99.94-1.62,1.62-2.29,2.56-2.7.81-.41,1.35-1.08,1.75-1.62,1.08-1.75,2.02-3.37,3.64-3.78.54-.94,1.08-1.48,2.29-2.43,1.08-.81,2.29-1.89,2.83-3.24l.27-.41c.27-.27.54-.41,1.08-.67.81-.54,1.75-1.08,2.43-1.75.94-1.35,1.89-2.29,3.1-2.7.81-.27,1.35-.67,2.29-1.62.54-.41,1.08-.94,1.48-1.08.94-.67,1.75-1.08,3.37-2.02l3.64-1.89c2.02-1.21,4.18-2.29,7.01-3.37l6.21-2.43c2.16-.67,4.32-1.48,6.34-2.29,2.16-.81,4.05-1.48,6.21-1.48,1.35-.13,2.56-.4,3.64-.81l1.75-.4c3.1-.81,6.21-.67,9.58-.4.13.13.4,1.08.27,1.35-.27.81-.67,1.21-1.48,1.35-1.35,0-2.83.27-4.18.54-1.75.27-3.37.54-4.99.4-1.35,0-2.97.13-4.32.81-1.08.67-2.29,1.08-3.91,1.08-.67,0-1.35.13-2.02.27l-2.7,1.08c-2.97,1.08-6.07,2.16-8.9,3.51-.67.4-1.21.54-2.43,1.08-2.02.94-4.18,1.89-6.07,3.1-2.7,1.62-5.26,3.51-7.69,5.4-1.08.81-2.02,1.75-2.97,2.16-.54.27-.81.54-1.48,1.21l-.94.81c-.13.27-.27.27-.54.54l-.94,1.08c-2.83,1.62-4.72,3.78-6.61,6.07-.27.41-.41.54-1.08,1.08q-.41.27-.54.27c-.13.27-.27.27-.4.54-.94.67-1.35,1.21-1.48,1.75-.27,1.35-.81,2.16-2.29,3.37-1.48,1.08-2.7,2.56-3.91,4.32l-.81,1.08c-.13.4-.54.94-.67,1.08l-5.93,6.74v.13c-.13,0,0,0-.27.13-.14.27-.27.4-.41.54-1.08,2.83-2.83,5.26-4.59,7.69-1.08,1.62-2.29,3.24-3.1,4.86l-.27.41c-.54.81-1.21,2.02-1.35,2.97,0,2.16-.94,3.91-2.02,5.8l-1.21,2.16-.54,1.35c-.81,1.48-1.62,3.24-1.89,4.99-.13,1.21-.54,2.56-1.62,3.78-1.08,1.08-1.62,2.43-1.75,4.32-.13,2.16-1.35,3.1-2.7,4.32l-1.08,1.08c-.41.27-1.48,0-1.75-.67-.4-.94-.81-2.16-1.08-3.37-.13-.54-.27-1.21-.13-2.29.13-1.62.13-2.29-.4-3.1-.27-.67-.41-1.62-.41-3.1v-1.48c-.13-2.16-.4-4.18.27-6.34.14-.27.14-.4.14-.81-.67-2.83-.67-5.67-.54-8.5,0-1.62.13-3.24,0-4.86,0-.4.13-.81.27-1.48.41-1.21.41-1.62.27-2.16-.27-.67-.27-1.21,0-2.02.13-.27.27-.54.27-.67.54-1.48.27-2.29-1.08-3.37-.67.54-.54.54-.94.81-.67.54-1.48,1.21-1.89,1.75-1.08,1.62-2.02,3.1-3.64,3.78-.81,1.21-1.48,2.02-3.1,3.78-1.48,1.75-3.1,3.51-4.05,5.53-.54.94-1.08,1.62-1.62,1.89-1.35,1.48-2.43,2.7-3.1,4.45-.41,1.08-1.08,2.02-2.43,3.64-.41.4-.81,1.08-1.08,1.35-1.08,1.21-1.75,2.29-1.89,3.91,0,.54-.27.81-.94,1.21-.54.4-1.48.94-1.62,1.62l-.4,1.21c-.13.14-.27.54-.4.67-.13.27-.13.41-.27.94-.27,1.08-.54,1.62-.81,1.89-.94,1.21-1.62,2.29-2.7,4.59-.13.27-.4.67-.4.81-.13.27-.27.27-.27.54-.14.27-.27.54-.41.54-.81,1.08-2.83.54-3.51-.67Z" fill="#fff"/><path d="M146.49,99.68c0,.67,0,.81-.27,1.21-.27.54-.41.81-.54,1.35-.54.67-1.21,1.89-1.48,2.43-.27.27-.41.54-.94,1.21-.94,1.21-2.29,2.83-4.05,4.45-1.62,1.75-3.37,3.24-4.99,4.05-3.78,1.75-6.61,2.29-9.44,1.21-.41-.13-.81-.13-1.21-.27-1.08-.27-1.35-.4-1.62-.81-1.08-1.08-2.16-2.56-3.1-4.32v-3.51c-.54,1.08-.94,1.62-1.62,2.43-.94,1.21-3.24,3.64-4.32,4.32-.27.27-.54.41-.94.81-.54.41-.81.54-1.08.67-1.75.54-2.56-1.21-1.62-2.29.27-.13.41-.27.67-.54,1.48-.94,3.24-2.02,4.18-3.51,1.35-1.08,2.02-2.02,3.1-3.64.27-.4.54-.94.81-1.21.41-.41.67-.95.94-1.48.27-3.1,1.21-6.07,2.16-9.04.13-.81.54-1.48.94-1.89.54-.67,1.48-.54,2.02.27.13,0,.27.54.27.94-.13,2.29-.67,4.99-2.02,8.63-1.08,2.56-.67,5.13-.4,7.69.13,2.02,1.21,3.37,3.1,4.18q.27,0,.94.27c.27.27.4.27.67.4.54.14,1.35.27,2.16.14,1.89-.27,3.37-1.08,5.53-2.7,1.89-1.35,3.64-2.7,4.99-4.45.54-.81.94-1.35,1.62-2.02.81-.94,1.75-2.02,2.83-3.91.41-.94.67-1.21,1.89-1.62.27-.13.67.13.81.54ZM133.4,71.62c-.13-.94.13-1.48.67-2.02.41-.13.54-.27,1.21-.67l.67-.4c.81-.41,1.62.13,1.75.94.27,1.89-1.21,3.64-2.7,3.51-.81-.13-1.48-.67-1.62-1.35Z" fill="#fff"/><path d="M162,113.44c-.13-.4-.54-.67-.94-1.21-.81-.81-2.56-.94-3.1-.4-.81.4-2.02.94-2.56,1.62-1.48,1.21-2.7,1.62-5.8,2.16-.54.13-1.08.13-1.48.27-1.21.14-2.43-.27-3.78-1.62-.27-.27-.54-.81-.81-1.35-.4-.4-.4-.54-.67-.94-.54-.67-.67-1.75-.27-2.29.67-1.21.81-1.89.27-2.56-.13-.54-.13-1.21.27-1.62.67-.67.81-1.21,1.21-2.56.13-.4.13-.81.27-1.08-.81-1.48.27-2.43,1.21-3.64.81-.94,1.35-1.75,2.43-3.51.13-.41.41-.81.54-.94,1.48-2.29,3.37-3.64,5.67-4.45,2.56-.81,5.13-.81,7.42,1.62,1.21-1.21,1.48-1.75,2.16-3.78.13-.54.27-1.08.54-1.48.14-.4.14-.67.41-1.48.13-1.08.4-2.16,1.21-2.83.27-.27.4-.67.4-1.08-.13-2.29.81-4.18,1.75-6.21.27-.81.81-1.75,1.08-2.56,1.08-3.1,3.37-4.99,7.15-6.47.13-.13.27-.13.54,0,4.05,2.02,3.78,1.89,2.97,5.53-.27.95-.41,1.89-.41,2.83,0,1.35-.54,2.43-1.08,3.64-.81,2.02-1.62,4.05-3.1,6.88-.54.81-.81,1.35-1.35,2.7-.67,1.35-1.21,2.7-2.02,3.78-.4.54-.54,1.08-.54,1.62,0,.41-.13.67-.67,1.21-.54.67-.94.94-.67,1.48-1.35,1.21-2.29,2.56-3.51,5.13-.4,1.21-.94,2.02-1.35,2.43-2.02,1.89-2.43,3.64-1.75,7.55.67,4.18,2.16,5.26,6.2,4.59,1.62-.27,3.64-1.08,4.86-1.89l1.48-.95c1.75-.94,4.05-2.16,5.26-3.78.27-.54.54-.67,1.35-1.48,1.21-1.35,2.97-3.1,4.32-5.8.67-1.08,1.21-1.21,2.16-.94.13,0,.41.67.41.81-.13.27-.27.27-.27.54-.27.67-.54,1.08-.54.94-2.16,3.78-6.34,8.09-9.44,10.93-.4.4-.67.54-1.62.94-2.29,1.08-4.45,2.02-6.21,2.7-2.02.94-2.83.67-5.26.13-1.89-.27-3.64-.94-4.32-3.1ZM158.22,107.23c.54-.81.94-1.48,2.02-2.97.14-.81-.13-1.35-.81-1.75-.81-.67-1.08-1.75-.67-3.78,0-.27,0-.54.13-.94l.13-.27.81-2.56c.4-1.48,0-2.43-1.48-3.37-.94-.81-2.29-.4-3.24.54-.94.67-1.75,1.35-3.37,2.7-.27.27-.81.67-1.21.94-.27.27-.54.54-.81,1.21-1.08,2.16-2.29,4.32-3.24,6.47-.27.67-.27,1.21-.41,2.29-.13.81-.13,1.62-.54,2.43-.41,1.48.13,2.97,1.75,4.45.81.81,1.89.94,2.83.67,3.24-1.48,6.21-3.1,8.09-6.07ZM168.88,90.78c.14-.27.14-.54.27-1.08.27-1.08.4-1.35.54-1.48.81-.94,1.21-1.62,2.02-3.37.27-.54.54-1.21.81-1.62,1.08-1.75,2.16-3.64,3.1-6.07.4-.94.67-1.75,1.08-3.37,0-.41.13-.94.27-1.35,0-.27.13-.54.13-.81.13-.54.27-.94.27-1.35s-.27-.94-.54-1.35c-.27-.81-2.29-.13-2.56.81-.54.94-.94,1.62-1.62,3.24-.4.67-.81,1.62-1.21,2.29-.13.54-.27.81-.67,1.89-.27.67-.54,1.35-.67,1.89-2.16,3.64-2.97,7.55-3.78,11.47-.4.81-.4,2.16.81,2.29.27.14,1.75-1.48,1.75-2.02Z" fill="#fff"/><path d="M227.96,101.3c-.67,1.08-1.08,1.62-2.02,2.56-.81.81-1.75,1.75-2.16,2.97-.54.54-.94.94-1.62,1.75-.94.94-1.48,1.48-3.51,2.29-.67.4-1.08.67-2.16,1.48-1.08.81-2.43,1.89-4.32,2.43-.27.13-.54.81-.67,1.48-.13.13-.13.27-.13.27,0,2.16-.13,4.05-.4,5.94v.81c-.14,1.35-.27,2.7-.81,3.78-.94,2.02-1.75,4.32-2.02,6.47-.13.94-.4,1.75-.81,2.43-.67,1.89-.94,2.43-1.35,3.37-.4.54-.81,1.35-1.35,2.56-.81,2.43-2.02,4.32-3.64,5.8-.54.4-.81.67-1.62,1.48l-1.89,1.89c-2.02,1.75-4.18,3.1-7.55,4.45-2.83,1.21-5.4.54-7.96-.81-.67-.27-1.48-.94-2.16-1.48-.67-.54-.94-.67-1.35-1.08-1.48-.81-2.29-2.16-2.56-3.78-.13-.94-.4-1.89-.67-2.7-.54-2.16-.67-3.1-.4-3.91,0-2.16.54-3.64,1.48-4.72l1.48-1.75c.94-1.35,1.89-2.56,3.1-3.24.67-.41,1.08-.67,1.75-1.62.41-.54.81-1.08,1.21-1.35,4.72-3.37,9.04-7.01,14.16-8.63,2.43-.81,7.96-4.45,9.71-6.07.81-.54.94-1.21.67-1.89.13-2.56-3.64-4.45-7.15-3.78-1.75.4-2.7,1.48-3.51,2.56-.27.41-.67.81-.94,1.08-.94,1.08-2.02,1.35-3.78.67-.4-.13-.94-1.89-.67-2.29.81-1.75,1.89-2.97,3.24-3.91l1.21-.81c1.21-.81,2.56-1.62,3.24-2.56,2.56-2.02,4.32-3.37,5.4-6.2.54-1.21.67-2.29.54-3.24,0-2.7-2.7-4.59-5.67-3.91-1.89.4-3.64,1.62-4.99,3.1-2.16,1.75-3.1,3.37-4.32,5.26-.4.81-.94,1.75-1.48,2.43-.54.81-.67.81-1.48.67-.13-.14-.27-.14-.4-.14-.54,0-.54-.67-.27-1.21l.54-1.21c1.08-1.21,1.75-2.16,2.7-3.91.4-.54.67-1.08.94-1.48.67-1.21,2.43-2.7,2.97-3.24,1.89-1.35,3.64-2.29,6.34-2.83,1.75-.4,3.37.13,5.13,1.08,1.08.54,1.75,1.75,2.02,3.91.4,1.89.27,4.05,0,5.93-.27.95-.67,1.48-1.21,2.16-.27.27-.54.54-.94,1.08-.81.67-1.48,1.35-2.29,2.29q0,.13-.54.4c-1.35.67-2.29,1.21-1.75,1.62.13.13,1.08.4,1.89.4,2.97-.67,5.13.27,7.01,3.1.13.54.81,1.21,1.48,1.89.81.41,3.1-.27,3.64-.94.81-1.08,1.21-1.35,2.16-1.75.81-.4,1.89-.81,2.7-2.29.4-.67.67-.94.67-.81,1.75-.94,3.24-2.43,4.45-4.72.27-.41.4-.54,1.08-.94.54-.54.27-.4.67-.27h-.13l.94.94c.13.27.13.67.13.67ZM207.18,118.02c-2.02,1.08-4.32,2.29-7.96,4.45l-3.1,1.89c-2.02,1.35-4.05,2.7-6.21,3.37-.4.13-1.08.54-1.35.81-2.83,1.89-5.8,3.78-7.15,6.88-2.56,2.56-3.78,2.56-3.64,8.23-.41,1.75,0,2.97,1.48,5.53.54.94,2.97,2.97,4.32,3.37.27,0,.54,0,.81.14.67,0,.81.13,1.21.27,2.02.81,3.37-.27,4.72-.81.14-.27.27-.27.81-.4.54-.27,1.35-.54,1.62-.81s.4-.27.81-.54c1.48-.94,2.97-2.02,3.91-3.37.54-.95,1.08-1.21,1.62-1.62,1.48-.94,1.89-1.62,2.29-2.83.27-.95.4-1.35.81-1.75.67-.81.94-1.35,1.08-2.43.27-1.75.81-3.37,1.75-5.4.67-1.48,1.35-3.1,1.75-4.59.4-2.43.81-4.59,1.35-8.09q.13-.27.13-.41v-.27c.13-1.08,0-2.16-1.08-1.62Z" fill="#fff"/><path d="M229.98,115.33c-1.08-.27-1.35-.4-1.62-.81-1.08-1.08-2.16-2.56-3.1-4.32v-4.59c-.27-4.32.94-8.36,2.29-12.41.13-.81.54-1.48.94-1.89.54-.67,1.48-.54,2.02.27.13,0,.27.4.27.81l-2.02,8.77c-.54,2.16-.67,4.59-.4,7.69.13,2.02,1.21,3.37,3.1,4.18q.27,0,.94.27c.27.27.41.27.67.4.54.14,1.35.27,2.16.14,1.89-.27,3.37-1.08,5.53-2.7,1.89-1.35,3.64-2.7,4.99-4.45.54-.81.94-1.35,1.62-2.02.81-.94,1.75-2.02,2.83-3.91.4-.94.67-1.21,1.89-1.62.27-.13.67.13.81.54,0,.67,0,.81-.27,1.21-.27.54-.4.81-.54,1.35-.54.67-1.21,1.89-1.48,2.43-.27.27-.4.54-.94,1.21-.94,1.21-2.29,2.83-4.05,4.45-1.62,1.75-3.37,3.24-4.99,4.05-3.78,1.75-6.61,2.29-9.44,1.21-.4-.13-.81-.13-1.21-.27ZM233.08,71.62c-.13-.94.13-1.48.67-2.02.4-.13.54-.27,1.21-.67l.67-.4c.81-.41,1.62.13,1.75.94.27,1.89-1.21,3.64-2.7,3.51-.81-.13-1.48-.67-1.62-1.35Z" fill="#fff"/><path d="M247.78,115.59c-.4-.4-.54-.81-.4-1.21.4-1.21.67-2.16.94-4.32.4-2.02.81-4.18,1.89-6.07,0-.27,0-.54.13-1.08.27-.67.27-.81.27-1.08-.13-.81.13-1.89,1.08-4.05.81-2.16,1.08-3.24,1.08-4.05,0-.67.81-1.62,1.35-2.16.13-.4.41-.54,1.08-.4.54.13.94.54,1.08,1.08,0,.27.13.54.13.67.27.94.14,1.35,0,1.48-.13.4-.27.54-.67,1.35-1.21,1.75-1.48,2.7-1.08,3.64,0,0-.81,2.29-.94,2.43-.81,1.21-1.35,2.97-1.21,3.64,0,.94.13,1.08,1.21,1.48,0-.13,1.35-.81,2.43-2.16.27-.27.27-.4.67-.81.4-.27.94-.81,1.08-1.21,1.62-2.97,5.67-7.96,7.69-9.71,1.75-1.48,3.51-1.62,5.4-.41.81.41,1.21,1.08.81,1.75-.41,1.08-.81,2.43-1.62,5.8-.27,1.35-.54,2.56-.81,3.37-.4.67,1.08.94,1.35.41,1.62-.81,3.1-2.29,5.8-5.53l1.75-2.29c1.75-1.48,3.1-2.7,4.99-3.51l3.1-1.89c.67-.54,1.08-.41,2.02.27.54.4.54.67.54.81.13,1.48,0,2.56-.67,3.51-1.89,2.7-4.18,8.09-4.99,11.06-.27.81-.27,1.35-.54,2.83-.13,1.08.4,2.02,1.75,2.97,1.75.94,3.37.94,4.86.27,2.02-.81,4.32-1.75,6.34-3.64,1.08-.81,1.89-1.48,2.83-1.89,2.16-1.21,3.24-2.02,4.72-4.45.54-.81.94-1.21,1.62-1.89.27-.13.54-.54.81-.67.94-.94,1.21-1.08,1.48-.67.41.41.67,1.75.41,1.89-.13.27-.41.54-.54.94l-.54.81c-.54.67-.94,1.08-1.89,2.02-1.35,1.48-2.7,2.83-4.32,4.18-3.37,2.7-5.67,4.45-9.98,5.67-2.02.54-3.91.54-6.07.27-2.02-.13-2.97-1.08-3.51-3.64-.4-1.48-.54-2.7-.54-3.78.14-.94.27-1.89.54-2.83l.4-1.89,1.21-4.05v-.13c0-.27-.27-.54-.67-.81h-.13c-.27-.13-.81,0-.94.13-.67.54-1.08,1.08-2.29,2.7-1.21,1.75-1.75,2.43-2.02,2.7-.41.41-.54.67-1.35,1.35-.94.94-2.02,1.89-2.83,2.83-.94,1.08-1.89,1.62-4.72,2.7-.81.4-1.21.4-2.02,0-.41-.13-.81-.54-.67-.81.13-.54.13-.94.13-1.62.13-.81.13-1.48.54-2.29.94-2.16,2.43-6.88,3.1-8.9q0-.13-.14-.41s0-.13-.4-.27c-.27-.13-.4-.13-.54-.13-.27-.13-.81,0-1.08.13-2.29,2.43-6.47,7.96-8.23,10.52-1.48,2.02-3.1,4.18-4.59,6.07-1.08,1.48-1.75,2.56-3.1,3.24-.81.54-1.48.54-2.56-.27Z" fill="#fff"/><path d="M287.84,157.41c-.27-.4-.81-1.08-1.08-1.75-.81-.81-1.48-2.16-2.16-3.37-.27-.4-.27-.54-.54-.81-.27-.54-.27-1.35-.27-2.43.13-1.08.13-1.62-.14-2.29-.4-1.08-.27-2.29.27-4.45.13-1.08.4-2.16.4-3.37,1.35-4.32,2.97-8.36,6.07-11.46,3.78-3.78,7.15-6.34,10.52-7.82.81-.4,1.75-.94,2.43-1.48,1.08-.81,1.89-1.21,4.32-2.02l.67-.27c1.21-.4,2.56-.94,3.51-1.48,1.21-.67,2.29-1.08,4.86-1.62,1.89-.4,2.7-1.35,2.97-3.24.4-3.1.67-4.59-.67-4.59-1.21.13-2.02.67-2.97,1.62l-.67.81c-2.43,2.16-6.47,2.56-9.17.81-.54-.41-.54-.54-.67-.81-.13-.27-.13-.81-.27-1.08-.4-1.75-.67-3.24-.4-4.86q0-.27.13-.54l.54-1.75c.94-1.21.94-1.48.94-2.83v-.81c0-.94.27-1.89.81-2.7.54-.81.81-1.62.94-2.83.27-1.48.94-1.75,2.29-1.21.41.13.94,1.21.81,1.48-.4.94-.54,1.62-.94,3.24-.4,1.62-.81,3.24-1.75,4.59,0,.27-.14.4-.14.81,0,.27-.13.4-.13.54-.54,1.48-.81,3.1-.81,5.53-.14.41.13.81.54,1.48.4.54,1.21.67,2.43.4,3.51-1.48,5.67-3.51,6.88-6.21.94-2.16,1.89-3.51,2.97-4.72.54-.67.81-1.21,1.21-2.56.13-.4.4-.94.4-1.21.67-.94,1.89-1.35,2.97-.81l.27.4c.27,1.21.13,2.29-.13,2.97-.81,1.35-.67,2.7-.67,4.05,0,1.08-.27,2.16-.54,3.37-.27,1.35-.54,2.83-.41,4.18,0,.13,0,.4-.13.94-.13.95-.27,1.62-.27,2.02v.27c-.13.4,0,.81.4,1.08.13.13.67,0,.94-.27.41-.27.54-.27.54-.27l2.83-.81c1.62-.4,3.37-.81,4.18-1.21,1.21-.67,5.4-2.97,6.07-3.78,1.62-1.21,2.02-1.75,2.83-2.7.27-.54.81-1.21,1.75-2.16.13-.14.94,0,1.08.27.27.27.4.67.27,1.35q-.13.27-.13.4l-.13.54c-.4.54-.54.81-1.21,1.35s-1.62,1.35-1.89,2.43c0,.14-.13.14-.4.27-.27.27-.13.13-.41.27-1.08,1.21-2.02,1.75-4.45,2.83-1.35.41-2.83,1.08-3.78,1.89-.94.4-4.18,1.35-4.18,1.21-1.21.14-2.02.67-2.7.94l-1.48.67c-1.48.54-1.75.94-1.89,2.7,0,.14,0,.27-.13.81-.13.4-.27.67-.27.94.13,2.02-.4,3.78-1.08,5.53-.4,1.21-.81,2.43-.81,3.64,0,1.35-.4,2.7-1.48,4.18-.81,1.35-1.21,2.43-1.35,3.64-.14,2.16-.94,3.91-1.89,5.67-.67,1.08-.94,1.89-1.75,3.64l-.81,1.75c-1.62,3.78-4.18,7.15-7.96,10.39-1.89,1.62-4.05,2.02-6.21,2.7-1.48.41-2.97.81-4.18.67-2.7-.27-4.32-1.21-5.53-2.7ZM299.17,156.06c2.43-1.08,4.45-2.56,5.93-4.45,2.02-2.7,3.91-5.13,5.26-8.09.54-1.21.94-2.29,1.75-4.59.67-2.02,1.48-4.18,2.56-6.07.13-.13.13-.4.13-.67-.13-1.48.41-2.7,1.08-4.18l.81-2.02c.13-.4.13-.54.27-.81.67-1.89.67-2.7,0-3.91,0,0,0-.13.13-.27,0-.27.14-.41.14-.67.13-.27.13-.54.27-.81.4-.94.54-1.35.54-1.89.13-1.62-1.48-2.56-2.83-1.89l-1.08.41c-1.89.67-4.18,1.62-5.94,2.43l-1.62.81c-2.02,1.08-4.32,2.29-6.21,3.78-1.08.81-1.89,1.35-3.64,2.56l-1.48,1.08c-.67.54-1.62,1.21-1.89,1.89-.54.95-.94,1.48-2.16,2.83l-.67.67c-1.35,1.48-2.16,3.1-3.1,5.67-.13.54-.13.81-.27,1.21-.81,2.02-.81,2.97-.13,4.18,0,.13,0,.4-.14.54-.94,3.51.27,6.34,1.48,9.44,1.08,2.7,3.37,4.05,6.34,3.78,1.48.13,2.97-.27,4.45-.94Z" fill="#fff"/><path d="M378.48,116.54c-.54,0-.81-.13-1.21-.13-1.62-.27-2.43-.94-3.37-2.83v-.54c0-.27-.13-.4-.13-.54,0-1.35.27-1.75.67-1.75,1.08-.54,1.62-.4,2.16,0,.27.54.54.81,1.08,1.35.27.27.4.54.67.67.94.94,2.7,1.08,3.51.4,2.16-1.35,3.51-3.24,4.05-5.4.13-1.08.27-1.62.13-2.16-.81-2.29-1.62-4.72-2.29-7.01-.54-1.35-.67-2.02-.94-2.97,0,0,0-.13-.13-.27-.54-1.08-.54-2.29-.94-2.29-.27.13-1.08,1.48-1.48,1.89l-.27.41c-.27.27-.41.54-.81,1.08-.13.41-.27.81-.81,1.48-.54.67-.81,1.21-1.35,2.29-.4.94-.94,1.89-1.62,2.7-.94.81-1.08.81-2.43,0v-.13c.67-1.62,1.35-3.24,2.43-4.59,1.48-1.89,2.16-3.51,2.97-4.99.67-1.62.81-1.89,2.02-3.51.54-.67.27-1.48,0-2.29-.13-.67.27-2.16.67-2.83.81-1.21,3.1-1.62,4.45-1.21.13,0,.54.81.4.67-.54.94-.67,1.35-.81,2.16-.13.54-.27,1.21-.67,2.16-.94,1.62-.94,2.56,0,4.86.27.81.54,1.21.67,2.02.27.81.94,2.02,1.62,2.97.94,1.48,1.21,1.89,1.35,2.56,1.21,3.64,1.08,7.69-.4,11.06l-.27.4v.14c-.54.94.94,1.75,1.62,1.48.67-.14,1.08-.27,2.02-.41,1.75-.4,3.78-.81,5.26-1.89l3.64-2.29.13-.13c.13-.13.13-.27.54-.54.54-.27,1.21-.81,1.48-1.35,1.75-1.21,4.45-4.32,6.34-7.15.13-.4,1.21-1.08,2.02,0v.54l-.13.41c-.13.54-.27.81-.67,1.21-.27.81-.81,1.35-1.75,2.16-.67.67-1.62,1.62-2.02,2.56.13.13-1.08,1.48-1.35,1.48-1.08,1.21-1.89,2.02-3.64,3.1-.81.54-1.62,1.21-2.43,1.89-1.08,1.21-1.89,1.62-3.91,2.16-.94.27-2.02.54-2.97.94-1.08.54-2.02.54-4.32.67-1.08,0-2.02,0-2.97.13-2.16-.4-3.91-.67-5.8-.81Z" fill="#fff"/><path d="M412.47,115.33c-1.08-.27-1.35-.4-1.62-.81-1.08-1.08-2.16-2.56-3.1-4.32v-4.59c-.27-4.32.94-8.36,2.29-12.41.13-.81.54-1.48.94-1.89.54-.67,1.48-.54,2.02.27.13,0,.27.4.27.81l-2.02,8.77c-.54,2.16-.67,4.59-.4,7.69.13,2.02,1.21,3.37,3.1,4.18q.27,0,.94.27c.27.27.4.27.67.4.54.14,1.35.27,2.16.14,1.89-.27,3.37-1.08,5.53-2.7,1.89-1.35,3.64-2.7,4.99-4.45.54-.81.94-1.35,1.62-2.02.81-.94,1.75-2.02,2.83-3.91.4-.94.67-1.21,1.89-1.62.27-.13.67.13.81.54,0,.67,0,.81-.27,1.21-.27.54-.4.81-.54,1.35-.54.67-1.21,1.89-1.48,2.43-.27.27-.4.54-.94,1.21-.94,1.21-2.29,2.83-4.05,4.45-1.62,1.75-3.37,3.24-4.99,4.05-3.78,1.75-6.61,2.29-9.44,1.21-.4-.13-.81-.13-1.21-.27ZM415.57,71.62c-.13-.94.13-1.48.67-2.02.4-.13.54-.27,1.21-.67l.67-.4c.81-.41,1.62.13,1.75.94.27,1.89-1.21,3.64-2.7,3.51-.81-.13-1.48-.67-1.62-1.35Z" fill="#fff"/><path d="M467.5,100.89c-.13.13-.27.4-.4.81-.27.67-.41,1.08-.54,1.08-.94,1.21-1.35,1.75-2.43,2.83-.4.54-1.08,1.21-1.75,1.89-1.48,1.75-3.1,3.1-4.99,3.91-1.08.54-2.29.95-2.97,1.75-2.7,1.62-4.59,2.16-6.88,2.56l-.81.67c-.41.41-.67.67-1.48,1.35-.54.41-1.08.81-1.21,1.08-1.48,1.08-1.75,1.48-2.02,2.02-.4.54-.54.81-.94,1.21-1.08,1.48-1.89,3.37-1.75,4.59,0,2.02,2.43,3.51,4.72,2.83.41-.13,1.21-.54,1.89-.94l.54-.4c.67-.54,1.21-.54,2.02.13.54.4.41,2.29-.27,2.43-.67.54-1.21.94-1.62.81-1.21.41-2.97.94-4.05.94-1.89.13-3.37-.54-4.45-1.62-1.08-.94-1.89-2.02-1.89-3.78-.13-2.16.54-3.78,2.16-5.8.27-.27.67-.81.54-.81l1.21-1.21c.54-.54,1.21-1.08,1.62-1.62,1.08-.67,1.48-.94,2.29-1.62-4.32.27-8.9-2.16-10.79-5.53-1.08-2.43-1.35-3.91-1.08-5.4.14-.94.27-1.62.41-2.97.13-1.75.27-3.37,1.08-4.99.13-.54.27-.81.67-1.75.14-.54.41-1.21.67-1.75.81-2.02,1.89-3.51,3.1-4.59,2.02-1.75,3.64-2.43,5.67-2.29.81,0,1.48.27,2.29,1.08,1.48,1.48,1.75,2.7.81,4.18-.54,1.35-.81,2.29-.81,3.1-.4,3.24-2.43,4.99-4.72,6.88-.54.27-.81.54-2.02.94-3.24,1.35-4.05.67-3.24,5.94.54,1.48,1.62,2.56,3.64,3.51,4.05,1.75,6.21,1.35,9.17,0l1.35-.54c.81-.27,1.48-.67,2.29-.81.41-.13.94-.4,1.35-.67,1.08-.81,1.75-1.35,3.24-2.29,1.75-1.08,3.51-2.16,5.26-4.32l2.02-2.56c.41-.67,1.35-1.48,1.75-1.89.4-.27.67-.27,1.21.27.27,0,.4.67.13,1.35ZM436.08,99.81c0,.27,0,.67.13.94,0,.67,1.75.41,2.16,0,1.62-.67,2.83-1.89,3.24-3.1.27-.81.54-1.21.94-1.89,1.08-1.35,1.35-2.02,1.35-2.97v-.67c0-1.48-.54-2.43-1.62-2.43-.67-.13-1.35.13-1.89.81-.4.27-.4.41-.4.41-.81.67-1.21,1.21-1.89,2.56-.27.54-.13.4-.27.54-.67.94-.94,1.75-1.21,3.64-.14.67-.27,1.48-.54,2.16Z" fill="#fff"/><path d="M556.39,127.74c-1.48.94-2.97,1.48-4.72,1.48h-.13c-.54,0-1.08.13-1.35.27-.67.27-1.35.27-2.56.27-1.48,0-2.83-.54-4.45-1.08-2.56-.81-5.26-1.89-7.82-3.51-.81-.54-.94-.81-1.35-1.21-.13-.13-.54-.67-.81-1.21-.13-.27-.13-.41-.4-.67l-1.48-2.02v.13c-.27-.81-.81-1.48-.67-2.56.13-.81-.13-1.35-.67-2.16-.54-.67-.67-1.08-.54-1.75,0-1.08-.41-2.29-.67-3.37-.13-.13,0,0-.27-.54-.41-.41-.54-.81-.81-1.08-1.08-1.75-2.29-2.29-4.32-1.48-.67.41-1.08.54-2.16.95,0,0-.13,0-.27.13h-.41c-.81.4-1.21.81-1.89,1.48-1.62,2.02-3.64,4.05-6.47,6.47h-.14c-.67.41-.94.67-1.62,1.35-.67,1.08-1.48,2.16-2.97,3.37-.13.27-.27.27-.54.54-.67.67-1.35,1.35-1.75,1.89-.4.54-.81.81-1.89,1.48-.4.27-.54.27-.81.54-.41.27-.94.4-1.75.27-.54-.13-.67-.54-.67-.94-.13-1.08.14-2.16.67-2.83,1.48-2.29,3.51-4.59,5.53-6.21,1.75-1.35,3.37-2.97,4.45-4.18l.41-.54,1.89-1.62c2.97-1.62,4.86-3.78,7.01-6.07l2.56-2.56c.27-.54.54-.81,1.48-1.89q.13-.13.54-.27c.4-.27,1.08-.54,1.08-.81,1.35-1.21,2.43-2.56,2.97-4.05.81-.81,1.62-1.75,2.7-3.24.41-.54.54-.67,1.21-1.35l.54-.67c.4-.54,4.99-5.67,4.86-5.4.54-1.21,1.75-2.97,5.13-7.42,1.21-1.48,2.29-2.97,2.56-3.37l1.08-1.62c.4-.81.94-1.75,1.35-2.16.13-.54.13-.67,0-1.21,0-.13.13-.27.13-.67,0-.27,0-.41-.13-.41.27-.27.27-.4.4-.81.27-.54.54-1.08.81-1.35.13-.67.4-.94.67-1.75l.81-1.89c0-.27.13-.4.13-.67.14-.81.27-1.21.27-1.75,0-1.35.27-2.29.81-3.1.4-1.35.4-2.16.13-3.1-.13-.4-.27-.94,0-2.43.67-4.72-.13-9.58-2.56-13.76-1.48-2.83-4.18-4.32-7.82-4.32-2.02,0-4.05.4-6.61,1.21-4.18,1.35-4.45,1.48-8.36,4.32-.13,0-.4.13-.54.27h.13l-.94.67c-.81,1.35-1.89,2.43-3.64,3.91l-.81.54c-1.62,1.21-2.7,2.56-4.59,5.8l-.54.94c-.13.54-.13.41-.27.54-.94,1.35-1.21,2.7-.67,4.99.67,1.89,1.35,3.64,1.75,5.53.27.54,0,1.21-.54,1.48-.94.94-1.48.94-1.89.67-.67,0-.94-.41-1.35-1.35-.81-1.75-1.21-3.78-1.35-6.07l-.27-1.62c0-.54.13-1.35.4-1.62l.81-3.1c.27-1.48.94-2.56,1.48-3.1,0,0-.13,0,0-.13l.41-.27.4-.41c3.24-4.86,4.45-5.67,9.04-8.9.94-.67,1.62-1.08,2.43-1.75.81-.67,1.35-1.08,3.51-2.43.27,0,.54-.13,1.08-.4.67-.27,1.48-.67,2.16-.81.13,0,.27,0,.54-.13l1.62-.54c2.56-1.48,5.26-1.21,8.09-1.21h.54c.13.13.4.13.67.13,1.89,0,3.24,1.08,4.86,2.16,1.21.94,2.29,2.02,3.24,3.24l.67.81,1.35,2.16-.13-.14c.27.54.54,1.35.54,2.16v1.08l.13.4v-.13c.13.67.13,1.35.27,2.02.27,1.48.4,2.97.54,4.72-.27.67-.13,1.21,0,2.29v.94c0,1.21,0,2.43-.27,3.51.13,2.16-.41,4.18-1.21,6.34l-.54,1.48c-.4,1.21-.81,2.16-.81,3.24,0,.81-.54,1.48-.81,1.89l-.41.41c-.13.13-.13.27-.13.4-.81,1.35-1.62,2.56-1.75,4.05-.13.4-.27.81-.54,1.08-2.29,3.78-4.32,6.34-6.47,9.04-1.08,1.21-2.16,2.56-3.1,3.78l-8.63,10.79c-.13.27-.27.27-.81.67-.54.54-1.35,1.21-1.75,1.75-.67.95-1.21,1.62-2.7,3.1l-1.35,1.35c-.27.13-.4.4-.27.67,0,.4.54.54.94.54,1.75.13,3.24.67,4.45,1.48.94.67,1.21,1.08,1.48,1.62,0,.54.13.81.54,1.62.13.27.13.4.13.54.13.13.27.4.27.67.67,1.62,1.08,2.56,1.21,3.51.27,1.89.81,3.37,1.35,4.86l.13.13v.14l.13.13c-.13.27-.13.54.13.67.13.13.27.4.54.54q.27.41.27.54c2.29,2.29,4.32,4.59,8.09,5.26h1.21c.41.13.94.27,1.35.27.67.27,1.89.54,2.7.4l3.51-.81c.67-.27,1.48-.4,1.89-.54l.94-1.75c.4-.27.67-.54.94-.81.4-.41.94-.94,1.08-.94,2.56-.67,1.89,4.05-1.21,5.94Z" fill="#fff"/><path d="M595.91,115.59c-.41-.4-.54-.81-.41-1.21.41-1.21.67-2.16.94-4.32.41-2.02.81-4.18,1.89-6.07,0-.27,0-.54.13-1.08.27-.67.27-.81.27-1.08-.13-.81.13-1.89,1.08-4.05.81-2.16,1.08-3.24,1.08-4.05,0-.67.81-1.62,1.35-2.16.14-.4.41-.54,1.08-.4.54.13.94.54,1.08,1.08,0,.27.14.54.14.67.27.94.13,1.35,0,1.48-.14.4-.27.54-.67,1.35-1.21,1.75-1.48,2.7-1.08,3.64,0,0-.81,2.29-.94,2.43-.81,1.21-1.35,2.97-1.21,3.64,0,.94.13,1.08,1.21,1.48,0-.13,1.35-.81,2.43-2.16.27-.27.27-.4.67-.81.4-.27.94-.81,1.08-1.21,1.62-2.97,5.67-7.96,7.69-9.71,1.75-1.48,3.51-1.62,5.4-.41.81.41,1.21,1.08.81,1.75-.41,1.08-.81,2.43-1.62,5.8-.27,1.35-.54,2.56-.81,3.37-.41.67,1.08.94,1.35.41,1.62-.81,3.1-2.29,5.8-5.53l1.75-2.29c1.75-1.48,3.1-2.7,4.99-3.51l3.1-1.89c.67-.54,1.08-.41,2.02.27.54.4.54.67.54.81.13,1.48,0,2.56-.67,3.51-1.89,2.7-4.18,8.09-4.99,11.06-.27.81-.27,1.35-.54,2.83-.13,1.08.4,2.02,1.75,2.97,1.75.94,3.37.94,4.86.27,2.02-.81,4.32-1.75,6.34-3.64,1.08-.81,1.89-1.48,2.83-1.89,2.16-1.21,3.24-2.02,4.72-4.45.54-.81.94-1.21,1.62-1.89.27-.13.54-.54.81-.67.94-.94,1.21-1.08,1.48-.67.4.41.67,1.75.4,1.89-.13.27-.4.54-.54.94l-.54.81c-.54.67-.94,1.08-1.89,2.02-1.35,1.48-2.7,2.83-4.32,4.18-3.37,2.7-5.67,4.45-9.98,5.67-2.02.54-3.91.54-6.07.27-2.02-.13-2.97-1.08-3.51-3.64-.4-1.48-.54-2.7-.54-3.78.13-.94.27-1.89.54-2.83l.41-1.89,1.21-4.05v-.13c0-.27-.27-.54-.67-.81h-.13c-.27-.13-.81,0-.94.13-.67.54-1.08,1.08-2.29,2.7-1.21,1.75-1.75,2.43-2.02,2.7-.4.41-.54.67-1.35,1.35-.94.94-2.02,1.89-2.83,2.83-.94,1.08-1.89,1.62-4.72,2.7-.81.4-1.21.4-2.02,0-.41-.13-.81-.54-.67-.81.13-.54.13-.94.13-1.62.13-.81.13-1.48.54-2.29.94-2.16,2.43-6.88,3.1-8.9q0-.13-.13-.41s0-.13-.41-.27c-.27-.13-.4-.13-.54-.13-.27-.13-.81,0-1.08.13-2.29,2.43-6.47,7.96-8.23,10.52-1.48,2.02-3.1,4.18-4.59,6.07-1.08,1.48-1.75,2.56-3.1,3.24-.81.54-1.48.54-2.56-.27Z" fill="#fff"/><path d="M695.59,101.3c-.13.13-.13.27-.13.41l-.13.13c-.4.81-.54,1.21-.67,1.21l-4.72,6.47c-1.08,1.48-1.89,2.16-3.51,3.1-.13.13-.54.27-.67.27-2.43,1.62-3.51,1.75-5.26,2.16-.67,0-1.48.27-2.29.4h-1.35c-.4-.13-.67-.13-.94-.13-3.51-.54-4.72-1.75-6.88-4.99-.14-.27-.41-.67-.67-.95-.13-.27-1.21-.4-1.75-.27-.54.54-.94.81-2.02,1.62l-1.89,1.48c-.27.14-.41.14-.67.41-.54.4-1.08.81-1.62.94-2.56,1.62-4.59,1.48-7.01-.4-1.08-.81-1.48-1.48-1.35-2.56,0-.81-.13-1.48-.13-2.02-.13-1.21-.13-1.89.27-3.1l.4-1.35c.67-1.75.94-2.56.81-3.64-.13,0-.13-.4.27-.94,1.08-1.75,2.16-3.51,3.1-5.53,1.21-1.89,2.02-2.43,4.18-3.51.41-.54.54-.67,1.48-1.21.41-.13,1.08-.4,1.35-.81,1.08-.81,1.75-.94,2.83-.81,3.64.54,5.67,2.02,7.01,4.86,0,.27.27.54.4.81.27.54.41.81.41,1.48-.13.81-.67,1.35-1.21,1.48-.81.13-1.48-.27-1.62-1.08-.13-.41-.27-.67-.67-1.21-.27-.27-.4-.4-.4-.81-.54-1.48-1.48-2.02-3.51-2.16-2.16,0-3.78.67-4.86,1.89-.4.54-.67.81-1.35,1.35-.67.54-1.35,1.21-1.89,2.16-.27.41-.27.54-.67.95-.94,1.21-1.21,1.62-1.21,2.43,0,.4-.14.81-.27,1.08-1.62,2.29-1.75,3.51-1.75,5.4,0,.54-.13,1.08-.13,1.75,0,.4.13.81.27,1.48,0,.27.13.54.13.94.13,1.21,2.16,2.16,3.37,1.62,1.35-.67,2.7-1.35,3.51-2.43.67-1.08,1.21-1.62,2.02-2.29.94-.67,1.89-1.62,2.7-3.51l.54-1.35c.27-.4.54-.94.67-1.35.4-.67.94-1.08,2.02-1.48.27-.13.94.4.94.81.14,1.35.27,2.02,0,2.56-.67,2.7-.4,4.99,1.08,7.15.67,1.35,2.29,2.43,4.18,2.7.94-.13,1.75-.27,2.56-.54,1.75-.27,4.72-.54,7.55-3.51l1.62-1.62c.94-.67,1.89-1.35,2.56-2.43.27-.54.54-.67.94-1.48.4-.81.94-1.62,1.48-2.29.13-.27.27-.41.54-.67.14-.27.41-.54.54-.67.27-.41.81-.27,1.48.27.27.27.27.81,0,1.35Z" fill="#fff"/><path d="M659.84,163.08c-.67-.54-.94-.67-1.48-.94l-1.62-1.21c-.67-1.48-1.35-2.7-1.89-3.51-.94-1.35-1.21-2.16-1.35-3.24.13-.27.27-.54.27-.67-.67-2.43-.27-4.72.27-7.01.27-1.08.54-1.75.94-2.43.4-.81.81-1.62,1.08-2.7.27-1.08.67-1.62,1.21-2.29.4-.54.94-1.08,1.21-1.62.94-2.02,3.24-4.32,4.72-5.53.81-.54,1.35-1.08,2.7-2.16,1.89-1.62,3.78-3.24,6.47-4.18,1.89-.81,3.64-1.62,5.26-2.7,1.21-.81,2.16-1.21,3.37-1.21.81,0,1.48-.13,1.62-.4.67-.41.94-.67,2.02-1.21.94-.54,2.02-1.08,3.24-2.16.27-.4.41-.4,1.08-.67,1.21-.54,1.62-.94,1.75-2.02.27-1.75,1.21-5.26,1.62-6.61-.4-1.08-.27-2.16.54-4.18.4-.94.81-2.02.81-3.1.14-1.75.67-3.51,1.21-5.4l.54-1.75c.4-1.21.81-2.02,1.21-2.43.13-.4.27-.4,1.21-.27.27,0,.54.4.54.94-.13.67-.13,1.35-.27,2.43,0,1.35-.14,2.56-.41,3.64-.27.95-.4,1.75-.94,3.1-.54,1.75-1.21,3.64-1.35,5.66,0,.41-.13.95-.67,1.75-.27.4-.54,1.08-.54,1.21-.4,1.75-.67,3.1-.67,3.64,0,.67.67,1.21,1.48,1.21.94-.13,2.02-.54,4.18-1.48.94-.54,1.48-.81,1.75-.81.94-.4,1.75-.81,3.37-1.89.41-.4.94-.81,1.35-.94.81-.54,1.35-.94,2.7-1.62,1.35-.67,2.7-1.35,3.78-2.56l1.21-1.35c.81-.94,1.62-1.75,3.24-4.18.81-.81,1.08-1.08,1.48-.81.54.27.94,1.08.67,1.62-1.21,2.16-2.56,3.78-5.4,6.61-.81.94-1.48,1.35-2.56,2.02-.94.54-2.16,1.21-3.1,2.43-.27.13-.41.27-1.08.54-.94.4-1.62.81-1.75.81q-.27.27-.67.41c-.4.13-1.08.4-1.35.81-1.35,1.21-5.26,2.56-7.01,3.24-2.43.95-3.64,1.89-4.45,3.64-.54,1.62-.94,2.97-1.08,4.45,0,1.75-.4,3.51-1.35,5.53-.27.81-.4,1.48-.4,2.29-.13,1.48-.41,2.29-.94,2.83,0,.27.13.27,0,.27-.67.81-.81,1.48-.94,3.1-.13,1.35-.27,2.02-.67,2.43-.67.94-1.08,1.75-1.75,3.51-.13.54-.27,1.08-.54,1.48-.54,1.75-.94,2.43-1.89,3.64-.41.54-.94,1.21-1.48,2.02-3.1,4.45-3.78,5.67-7.42,9.04-1.62,1.48-6.34,2.97-8.23,2.7-2.83,0-3.78-.67-4.86-1.75ZM667.94,161.32c.67-.54,1.21-.81,2.43-1.48,1.62-.95,3.37-2.02,4.18-4.18.27-.95.67-1.62,1.62-2.43,2.43-2.43,3.1-3.64,4.32-5.8l1.08-2.02c.41-.67.54-1.21.94-2.43.13-.67.27-1.35.54-1.89l.4-.94c.94-1.89,1.21-2.7,1.08-3.78,0-.81.13-1.35.81-2.43.54-.67.81-1.08.94-1.62,0-.13,0-.27.13-.54,0-2.43.4-3.91.94-5.94l.54-1.75c.27-.94.27-1.62-.67-1.62-.4-.14-1.08,0-1.75.27-.41.13-.67.13-.67.13-.94.13-1.62.54-2.7,1.08-.67.4-1.35.81-1.89.94-2.83.54-5.13,1.89-7.42,3.24-.67.54-1.62,1.08-2.16,1.35-1.35.67-2.29,1.48-4.18,3.51-.94.95-1.75,1.89-2.56,2.56-3.37,2.43-3.78,3.91-5.13,7.01-.27.67-.54,1.21-.94,2.02-1.08,1.89-1.35,2.83-1.21,4.45.27.94.13,1.35.13,1.48-.67,1.08-.67,1.35-.13,2.43.54,1.08.81,2.29,1.21,3.91.27,2.02,1.62,2.83,2.97,3.78.81.4,1.08.67,1.48,1.08.14.13.94.41,1.35.41.27,0-.14,0,.4.13,1.75,0,3.1-.27,3.91-.94ZM700.85,76.75c-.13-.67.27-1.48.94-2.02l-.13.13.94-.4c.4-.27.81-.27.94-.27.54,0,.94.4,1.21,1.08,0,.27,0,.81-.27,1.48-.94.94-1.21,1.21-2.16,1.08-.94,0-1.35-.41-1.48-1.08Z" fill="#fff"/><path d="M758.58,101.3c-.13.13-.13.27-.13.41l-.13.13c-.4.81-.54,1.21-.67,1.21l-4.72,6.47c-1.08,1.48-1.89,2.16-3.51,3.1-.13.13-.54.27-.67.27-2.43,1.62-3.51,1.75-5.26,2.16-.67,0-1.48.27-2.29.4h-1.35c-.4-.13-.67-.13-.94-.13-3.51-.54-4.72-1.75-6.88-4.99-.14-.27-.41-.67-.67-.95-.13-.27-1.21-.4-1.75-.27-.54.54-.94.81-2.02,1.62l-1.89,1.48c-.27.14-.41.14-.67.41-.54.4-1.08.81-1.62.94-2.56,1.62-4.59,1.48-7.01-.4-1.08-.81-1.48-1.48-1.35-2.56,0-.81-.13-1.48-.13-2.02-.13-1.21-.13-1.89.27-3.1l.4-1.35c.67-1.75.94-2.56.81-3.64-.13,0-.13-.4.27-.94,1.08-1.75,2.16-3.51,3.1-5.53,1.21-1.89,2.02-2.43,4.18-3.51.41-.54.54-.67,1.48-1.21.41-.13,1.08-.4,1.35-.81,1.08-.81,1.75-.94,2.83-.81,3.64.54,5.67,2.02,7.01,4.86,0,.27.27.54.4.81.27.54.41.81.41,1.48-.13.81-.67,1.35-1.21,1.48-.81.13-1.48-.27-1.62-1.08-.13-.41-.27-.67-.67-1.21-.27-.27-.4-.4-.4-.81-.54-1.48-1.48-2.02-3.51-2.16-2.16,0-3.78.67-4.86,1.89-.4.54-.67.81-1.35,1.35-.67.54-1.35,1.21-1.89,2.16-.27.41-.27.54-.67.95-.94,1.21-1.21,1.62-1.21,2.43,0,.4-.14.81-.27,1.08-1.62,2.29-1.75,3.51-1.75,5.4,0,.54-.13,1.08-.13,1.75,0,.4.13.81.27,1.48,0,.27.13.54.13.94.13,1.21,2.16,2.16,3.37,1.62,1.35-.67,2.7-1.35,3.51-2.43.67-1.08,1.21-1.62,2.02-2.29.94-.67,1.89-1.62,2.7-3.51l.54-1.35c.27-.4.54-.94.67-1.35.4-.67.94-1.08,2.02-1.48.27-.13.94.4.94.81.14,1.35.27,2.02,0,2.56-.67,2.7-.4,4.99,1.08,7.15.67,1.35,2.29,2.43,4.18,2.7.94-.13,1.75-.27,2.56-.54,1.75-.27,4.72-.54,7.55-3.51l1.62-1.62c.94-.67,1.89-1.35,2.56-2.43.27-.54.54-.67.94-1.48.4-.81.94-1.62,1.48-2.29.13-.27.27-.41.54-.67.14-.27.41-.54.54-.67.27-.41.81-.27,1.48.27.27.27.27.81,0,1.35Z" fill="#fff"/><path d="M763.7,117.62c-.4-1.35-.27-2.43.27-2.97.4-.81.81-1.21,2.02-2.16l.67-.41c.27.13.54.13.81.27.4.13.67.67.54,1.08-.27,1.35-.67,2.83-1.62,4.59,0,.27-.81.54-2.02.41-.27,0-.54-.27-.67-.81ZM767.61,102.24c.54-1.35.81-2.43,1.08-4.86,0-.54.13-.95.13-1.48.81-6.74.81-6.61,2.7-10.79.81-1.48.94-2.29.13-3.51,0,0,.13-.81.27-.67,3.37-9.31,5.26-14.97,6.47-18.61.94-2.83,1.48-4.45,1.89-5.26.54-.81,1.08-1.62.94-2.7-.27-.67-.14-1.48.27-1.62,1.62-1.62,2.29-3.1,2.16-4.86,0-.41.27-1.08.4-1.35.81-1.08,1.21-2.02,2.02-4.32.54-1.35,1.08-2.83,1.75-3.91.27-.54.54-.81,1.48-1.62.54-.27.54-.4.54-.4.4-.13.94.13,1.21.67.4.94.4,1.89,0,2.83l-1.08,1.62c-.54.81-1.21,1.75-1.48,2.56-.27,1.48-.81,2.97-1.35,4.05-.94,1.48-1.62,3.1-2.02,4.86,0,.4-.13.81-.27.94-1.89,2.83-2.7,5.8-3.1,7.82-.4,1.75-.67,2.16-.67,2.16-1.08,1.75-5.67,16.32-5.39,17.13.13.4.13.81-.27,1.21-1.35,1.48-1.89,2.97-2.02,5.53-.4,2.97-.81,6.07-2.02,8.63-.54,1.08-.67,2.02-.81,4.05,0,.81-.13,1.48-.27,2.29-.13.81-.67,1.35-1.62,1.21s-1.35-.95-1.08-1.62Z" fill="#fff"/></svg>