<?xml version="1.0" encoding="UTF-8"?><svg id="Layer_1" xmlns="http://www.w3.org/2000/svg" viewBox="0 0 97.16 33.04"><path d="M8.34,21.51c-1.14.84-.45,2.04.56,2.6,1.15.64,2.69.8,3.93.35,1.54-.56,2.69-2.15,2.69-3.8,0-1.56-1.16-2.73-2.48-3.37-2.83-1.38-6.46-1.44-9.21.18C1.42,18.89-.26,21.65.03,24.51c.36,3.53,3.12,5.68,6.21,6.93,3.65,1.47,7.72,1.63,11.6,1.47,3.91-.16,7.84-.64,11.7-1.3,4.28-.73,8.46-1.91,12.42-3.7,3.85-1.74,7.58-4.03,10.7-6.89,3.03-2.78,5.66-6.34,6.58-10.42.78-3.47.58-9.21-3.61-10.44-2.05-.6-4.18.58-5.39,2.2-1.15,1.53-1.47,3.46-1.48,5.34-.03,4.13,1.07,8.04,3.46,11.43,2.4,3.42,5.58,6.2,8.93,8.67,3.33,2.45,7.07,3.93,11.12,4.73,4.08.8,8.15.57,12.23-.07,2.94-.47,6.04-1.17,8.55-2.84,2.68-1.78,4.22-4.59,4.12-7.83-.06-1.97-.77-3.88-2.31-5.18-1.56-1.32-3.69-1.83-5.66-1.18-1.68.56-3.2,1.83-3.25,3.72-.04,1.48.88,2.9,2.13,3.63,1.31.78,2.99.74,4.21-.19.53-.4.81-1.07.44-1.7-.31-.52-1.16-.85-1.7-.44-.12.09-.24.17-.37.25-.22.14-.01.03-.18.09-.07.02-.39.08-.27.07.16-.02-.06,0-.1,0-.07,0-.14,0-.21,0-.19-.01.2.05.02,0-.05-.01-.1-.02-.15-.04-.07-.02-.13-.04-.2-.06.02,0,.19.09.06.02-.11-.05-.22-.11-.33-.18-.06-.04-.12-.08-.18-.12.14.11.04.04-.03-.04-.09-.09-.18-.17-.26-.27-.14-.15.05.13-.08-.13-.06-.11-.12-.21-.18-.32.11.23-.02-.09-.05-.18-.02-.05-.02-.1-.03-.15-.05-.18,0,.22,0,.03,0-.12,0-.24,0-.36-.02.25.01,0,.05-.12.04-.14-.03.04-.03.06.04-.08.09-.16.13-.24.06-.11.2-.26.31-.34.28-.21.6-.36.94-.47.72-.24,1.41-.26,2.09-.06,1.22.37,2.17,1.48,2.51,2.75.33,1.27.21,2.59-.19,3.77-.12.36-.1.29-.26.61-.15.29-.32.56-.51.82-.13.18.05-.05-.1.12-.1.12-.21.24-.32.36-.21.22-.43.42-.66.62-.2.17-.02.02-.17.14-.12.08-.23.17-.35.25-.26.17-.53.33-.8.48-.58.32-1.04.52-1.51.69-1.24.47-2.53.79-3.83,1.04-.64.12-1.28.23-1.93.32-.06,0-.47.06-.23.03-.15.02-.3.04-.45.06-.32.04-.63.08-.95.11-1.89.22-3.78.37-5.68.28-1.94-.09-3.83-.44-5.7-.93-1.64-.43-3.22-.95-4.7-1.69-3-1.51-5.72-3.75-8.14-6.07-2.43-2.33-4.64-5.08-5.77-8.3-.56-1.59-.81-3.21-.89-4.9-.07-1.46-.08-3.03.68-4.3.37-.62.95-1.14,1.61-1.44.59-.26,1-.29,1.55-.06-.12-.05.21.13.25.15.16.1.14.09.25.19.27.25.42.44.6.73.4.66.6,1.39.71,2.16,1.04,7.19-4.99,13.1-10.49,16.66-3.12,2.02-6.47,3.63-10.01,4.78-3.52,1.14-7.16,1.82-10.82,2.33-3.24.45-6.68.81-10.02.81-3.12,0-6.67-.11-9.54-1.46-1.18-.56-2.35-1.36-3.05-2.41-.62-.93-.88-1.83-.83-2.9.02-.47.11-.9.31-1.48.08-.23.11-.28.26-.57.14-.26.29-.5.46-.74.2-.28.7-.8,1.1-1.11.29-.23.95-.61,1.37-.79,1.16-.49,2.46-.59,3.75-.46.43.04,1.15.19,1.69.34.58.17,1.06.35,1.57.69.19.12.32.23.5.44.1.12.19.27.23.45.11.39-.04.97-.33,1.44-.54.91-1.63,1.11-2.52.95-.48-.08-.79-.19-1.13-.4-.17-.1.02.02-.09-.06-.13-.1-.04-.05-.04-.03,0,.02.07.24.03.37-.03.11-.22.27-.04.13.73-.6-.25-1.88-1.02-1.32h0Z" fill="#42210b"/></svg>