<?xml version="1.0" encoding="UTF-8"?><svg id="Layer_1" xmlns="http://www.w3.org/2000/svg" viewBox="0 0 161.66 201"><path d="M79.91,51.08c-2.23-.8-4.77,1.23-5.64,3.18-.53,1.17-.63,2.51-.07,3.68.45.95,1.29,1.62,2.13,2.21.37.26.76.51,1.12.78.27.2.75.47.99.73.52.56.62,1.51.77,2.22.24,1.15.47,2.19.43,3.37-.04,1.23-.12,2.46-.2,3.69-.16,2.37-.13,4.77-.43,7.13-.37,2.9-1.29,5.76-2.44,8.44-1.1,2.59-2.54,5.04-3.91,7.5-1.42,2.55-2.9,5.06-4.28,7.63-1.68,3.12-3.7,6.01-5.99,8.72-1.12,1.32-2.29,2.6-3.5,3.84-.58.59-1.17,1.17-1.77,1.75-.31.3-.67.58-.93.93-.28.38-.49.79-.8,1.16-.36.42.11,1.19.64.83.57-.39,1.23-.64,1.74-1.11.57-.52,1.12-1.08,1.67-1.62,1.09-1.09,2.14-2.21,3.16-3.36,1.97-2.24,3.8-4.63,5.39-7.16,1.58-2.53,2.9-5.23,4.34-7.84,1.35-2.42,2.83-4.84,3.84-7.42,1.01-2.59,2.15-5.07,2.84-7.78.69-2.71,1.01-5.48,1.08-8.28.05-2.13.3-4.26.41-6.39.11-2.14.56-4.2.18-6.34-.2-1.11-.79-2.15-1.69-2.83-.75-.57-1.69-.99-2.27-1.73-1.39-1.78,1.01-4.28,2.93-4.2,1.04.04,1.13-1.41.23-1.73h0Z" fill="#fff"/><path d="M79.28,51.49c-.41-.26-.85-.18-1.31-.09-.23.04-.4.05-.46.02-.07-.04-.04-.02-.11-.11.04.05-.05-.05-.1-.19-.02-.07-.06-.27-.05-.55,0-.44.2-.97.62-1.33.59-.5,1.37-.39,2.14-.35,1.04.05,1.13-1.42.23-1.73-2.46-.86-5.13,1.16-4.95,3.75.07,1.06.68,2.1,1.75,2.39.56.15,1.21.09,1.72-.18.47-.26,1.23-1.17.52-1.62h0Z" fill="#fff"/><path d="M79.45,47.96c-1.12-.37-1.79-1.3-1.26-2.48.24-.52.67-.95,1.2-1.14.76-.27,1.58.38,2.25-.03.26-.16.36-.45.3-.74-.25-1.17-2.32-1.04-3.17-.72-.99.38-1.76,1.19-2.15,2.17-.35.89-.35,1.93.19,2.75.64.99,1.58,1.09,2.64.92.4-.06.32-.63,0-.74h0Z" fill="#fff"/><path d="M83.95,44.06c.38.37.89.85.91,1.41.02.48-.35,1.18-.82,1.37-1.4.54-.09,2.42.84,1.45.79-.81,1.51-1.59,1.42-2.82-.08-1.11-.82-1.98-1.92-2.16-.41-.07-.78.41-.44.75h0Z" fill="#fff"/><path d="M83.93,48.14c.63-.02,1.27.12,1.43.82v-.45c-.28.69-.86.62-1.44.95-.87.49-.41,1.7.48,1.76.67.05,1.44-.35,1.89-.82.43-.45.94-1.37.67-1.99-.12-.3-.45-.58-.69-.8-.23-.21-.49-.39-.79-.49-.52-.19-1.15-.04-1.67.12-.48.15-.41.92.12.9h0Z" fill="#fff"/><path d="M83.46,51.14c1.02.28,2.18.17,3.05.85.66.52,1.03,1.37,1.18,2.25.35,2.01-.36,4.36-1.88,5.82-.39.37-.87.71-1.36.91-.68.28-1.59.17-2.18.55-.62.4-.69,1.36,0,1.75.73.41,1.81.13,2.57-.14.76-.27,1.43-.65,2.05-1.16,1.13-.92,1.98-2.24,2.44-3.62.81-2.48.74-5.83-1.41-7.64-1.21-1.02-3.19-1.54-4.58-.57-.37.26-.34.86.13.99h0Z" fill="#fff"/><path d="M83.03,63.72c.01.22.02.44.07.65.06.24.3.33.52.29.62-.09.53-1.44.53-1.84.01-.71-1.03-.69-1.09,0-.41,4.77-.07,9.6.59,14.33.61,4.37,1.37,8.82,2.99,12.95.78,2,1.61,3.97,2.39,5.97.74,1.91,1.5,3.82,2.41,5.66,1.69,3.41,3.73,6.77,6.54,9.37,1.6,1.48,3.52,2.71,5.5,3.63.98.45,2.01.84,3.07,1.05,1.01.2,1.83.02,2.76-.38.25-.11.16-.49-.07-.55-.84-.21-1.63-.5-2.47-.67-.93-.2-1.84-.51-2.71-.91-1.75-.81-3.24-1.96-4.71-3.19-2.78-2.35-4.76-5.4-6.46-8.59-.94-1.75-1.83-3.53-2.63-5.35-.82-1.86-1.42-3.75-1.92-5.71-1.04-4.08-2.1-8.13-2.83-12.28-.89-5.05-.89-10.22-1.35-15.31-.36.05-.71.1-1.07.14.05.31.18.87.06,1.17.1-.1.2-.2.29-.29.27-.04.2-.04.06-.26-.13-.19-.48-.14-.47.13h0Z" fill="#fff"/><path d="M38.31,125.87c-1.26-2.43-4.46-2.54-6.56-3.83-2.25-1.39-2.38-4.16-3.13-6.45-.39.51-.78,1.03-1.17,1.54,4.13.18,8.2-.59,12.31-.77,1.81-.08,3.59.14,5.36.53.87.19,1.74.42,2.61.64.94.24,1.87.6,2.84.4.79-.16,1.1-1.32.49-1.85-.71-.62-1.62-.78-2.51-1.03-.91-.26-1.81-.49-2.74-.69-1.89-.4-3.83-.65-5.76-.58-2.05.07-4.11.41-6.15.6-2.15.2-4.29.3-6.45.32-.72,0-1.46.78-1.17,1.54.95,2.48,1.37,5.13,3.58,6.87,2.22,1.75,5.24,1.76,7.43,3.54.56.45,1.36-.1,1.01-.78h0Z" fill="#fff"/><path d="M51.57,116.83c-1.46-.72-2.12,1.99-2.46,2.88-.52,1.35-1.51,2.38-2.85,2.84-2.24.76-6.4.86-6.97,3.82.36-.28.73-.55,1.09-.83-.03,0-.07,0-.1,0-.73-.03-1.12.69-1.01,1.32l.02.11c.21,1.19,1.86.96,2.19,0,.34-1,1.73-1.3,2.67-1.55,1.31-.35,2.68-.55,3.88-1.21,1.51-.83,2.48-2.09,3.04-3.69.21-.6.36-1.21.59-1.8.19-.5.58-1.55-.09-1.88h0Z" fill="#fff"/><path d="M38.21,117.88c1.04.97,2.72,1,4.08,1.15,1.63.17,3.26.3,4.81.87,1.03.38,1.5-1.3.45-1.65-1.48-.49-3.02-.6-4.57-.66-.73-.03-1.46-.05-2.19-.13-.8-.08-1.51-.29-2.31-.25-.33.02-.54.43-.28.67h0Z" fill="#fff"/><path d="M40.95,122.84c.86.01,1.62-.29,2.45-.51.83-.21,2.08-.18,2.65-.86.24-.28.26-.78-.13-.97-.89-.45-2.03.13-2.91.44-.86.31-1.72.59-2.3,1.33-.17.22-.08.56.23.56h0Z" fill="#fff"/><path d="M29.27,114.96c-.72-.5-1.15-1.22-.47-1.98.91-1.02,2.06.27,2.56,1.04.41.63,1.58.44,1.52-.41-.06-.85.21-1.52,1.18-1.36.36.06.7.26.92.56.35.48.19,1.02.28,1.57.12.69,1.19.79,1.49.19.88-1.75-.81-3.65-2.5-3.91-1.99-.31-3.26,1.28-2.97,3.17.5-.21.99-.42,1.49-.63-.69-.91-1.57-1.84-2.79-1.89-.83-.04-1.58.39-2.06,1.06-.83,1.15-.5,3.4,1.31,2.98.19-.04.19-.29.05-.38h0Z" fill="#fff"/><path d="M37.37,114.89c-.07-1.07.83-1.88,1.76-2.17.29-.09.24-.08.51-.07-.04,0,.08.02.1.07-.06-.2.04.15,0-.02.03.1.07.24.08.32.05.38-.08.75-.07,1.12.02,1.15,1.5,1.22,1.89.26.75-1.87-.69-4.16-2.79-3.51-1.73.53-2.57,2.38-2.16,4.09.09.38.72.31.7-.09h0Z" fill="#fff"/><path d="M41.2,113.67c.49-.46,1.07-.86,1.76-.65.73.22.37.95.49,1.57.12.62,1.04.69,1.32.17.57-1.04.08-2.82-1.2-3.07-.54-.11-1.05.13-1.49.41-.5.31-.98.62-1.37,1.06-.3.34.17.82.5.5h0Z" fill="#fff"/><path d="M44.4,113.93c.69-.68,1.54-1.22,2.54-1.23,1.08-.01.85.91.94,1.71.09.78,1.14,1,1.4.19.46-1.41-.26-3.31-1.92-3.29-1.31.02-2.66,1.16-3.48,2.09-.31.35.18.86.52.52h0Z" fill="#fff"/><path d="M48.62,114.16c.3.13.56.27.7.54.04.08.07.19.08.26.02.13-.02.38-.02.56,0,1.02,1.55,1.26,1.8.24.36-1.45-.61-2.67-1.9-3.16-.9-.34-1.55,1.17-.66,1.56h0Z" fill="#fff"/><path d="M34.7,111.93c.21-.47.1-.99.09-1.5-.01-.77,0-1.54.04-2.31.06-1.44.07-2.99.51-4.37-.13.16-.25.33-.38.49.03-.01.05-.02.08-.04.99-.47.24-1.83-.7-1.66-.3.05-.49.18-.69.4-.06.05-.09.11-.11.18-.14.12-.14.13.03.03.13.09.08-.15.02-.04.04-.08.14.14,0-.07-.35-.5-.52-1.17-.56-1.78-.15-2.04,2.22-3.64,1.7-5.71-.12-.46-.79-.69-1.12-.3-.48.58-.66,1.23-.94,1.92-.28.71-.62,1.41-.88,2.13-.37,1.04-.47,1.94-.23,3.01.18.8.5,1.72,1.1,2.29.86.81,1.78.33,2.55-.29.31-.24.32-.67.27-1.02,0-.04-.01-.08-.02-.12-.55.23-1.11.47-1.66.7.01.02.02.04.03.07-.03-.21-.06-.43-.08-.64-.41,1.5-.38,3.16-.32,4.71.03.8.08,1.61.16,2.41.05.53.02,1.19.41,1.59.18.19.58.17.7-.09h0Z" fill="#fff"/><path d="M43.18,112.27c.3-1.44.29-2.92.22-4.38-.07-1.46-.18-2.96-.45-4.4-.42.25-.85.49-1.27.74.2.16.39.3.62.42.29.15.65.12.89-.11,1.79-1.83.58-3.99-.49-5.84-1.42-2.47-1.1-5.61-.9-8.35.1-1.39-2.18-1.42-2.18,0,0,1.49.15,2.97.31,4.45.12,1.19.22,2.47.73,3.57.65,1.42,3.08,3.67,1.51,5.13.3-.04.59-.08.89-.11-.11-.05-.21-.13-.29-.23-.55-.55-1.44.01-1.27.74.64,2.75,1.1,5.48,1.15,8.31,0,.3.48.39.54.07h0Z" fill="#fff"/><path d="M38.17,106.34c1.47.45,1.37-2.76,1.38-3.46.01-1.07-.17-2.12-.25-3.18-.03-.45-.07-.89-.13-1.33-.03-.27,0-.7-.22-.89-.13-.11-.3-.11-.43,0-.34.3-.18,1.29-.17,1.69.02.89.03,1.78,0,2.67-.03.87.05,1.75-.01,2.62-.01.2-.05,1.27-.17,1.3-.31.06-.27.5,0,.58h0Z" fill="#fff"/><path d="M34.92,94.87c.57-.52.57-1.23.75-1.94.21-.83.46-1.65.6-2.5-.29.17-.58.33-.87.5,1.08.36,3.06.44,3.69-.73.21-.4.02-.87-.41-1-.95-.29-1.91.51-2.9.37-.48-.07-.85.18-.9.68-.09.94-.32,1.86-.46,2.79-.11.71-.24,1.29.29,1.84.06.06.16.06.22,0h0Z" fill="#fff"/><path d="M37.05,89.7c-.1-.65-.49-1.35-.72-1.98-.2-.54-.45-1.03-.55-1.6-.22-1.24.13-2.42.62-3.54,1.08-2.47,1.52-5.1,2.2-7.68h-1.69c.52,2.5,1.98,4.68,2.52,7.19.14.63.23,1.32.52,1.91.28.58.33,1,.29,1.65-.08,1.4-1.17,2.38-1.34,3.72-.11.85.97,1.26,1.6.92,1.27-.7,1.57-2.54,1.73-3.85.08-.7.03-1.37.05-2.06.01-.35.15-.69.14-1.04,0-.37-.1-.79-.2-1.15-.38-1.4-1.22-2.56-1.96-3.78-.76-1.25-1.37-2.51-1.67-3.96-.18-.87-1.47-.8-1.69,0-.38,1.42-.66,2.86-1.04,4.27-.2.73-.42,1.45-.75,2.12-.35.71-.77,1.39-1.06,2.12-.51,1.28-.6,2.63-.25,3.96.16.63.41,1.31.8,1.82.42.56,1.01,1.3,1.66,1.57.45.19.87-.12.79-.61h0Z" fill="#fff"/><path d="M10.95,133.8c-1.08-2.21-3.99-2.31-5.86-3.48-1.95-1.22-2.05-3.67-2.68-5.66-.39.51-.78,1.03-1.17,1.54,3.66.16,7.26-.51,10.9-.68,1.64-.07,3.25.12,4.85.48.75.17,1.5.36,2.24.55.84.21,1.73.57,2.6.34.8-.22,1.08-1.26.49-1.85-.61-.6-1.47-.74-2.27-.96-.78-.22-1.57-.43-2.37-.6-1.72-.37-3.49-.6-5.25-.53-1.85.07-3.7.37-5.54.54-1.89.18-3.77.26-5.67.28-.72,0-1.47.78-1.17,1.54.86,2.23,1.25,4.59,3.24,6.15,1,.79,2.18,1.2,3.38,1.58,1.27.41,2.33.83,3.39,1.65.56.43,1.13-.37.88-.88h0Z" fill="#fff"/><path d="M21.91,125.73c-1.09.58-1.21,2-1.7,3.02-.54,1.12-1.52,1.81-2.68,2.14-1.98.55-5.39.85-5.89,3.37.17-.23.35-.45.52-.68-.18.08-.31.24-.41.41-.84,1.36,1.51,2.47,2.07.87.29-.81,1.43-1.06,2.17-1.26,1.09-.3,2.23-.47,3.26-.95,1.24-.58,2.25-1.55,2.81-2.81.24-.55.41-1.11.59-1.68.19-.59.44-1.11.45-1.74,0-.63-.68-.97-1.2-.69h0Z" fill="#fff"/><path d="M10.77,126.76c.85.93,2.43.93,3.61,1.07,1.46.16,2.92.28,4.3.79,1.03.38,1.5-1.3.45-1.65-1.32-.43-2.7-.53-4.08-.58-.67-.03-1.34-.04-2.01-.11-.7-.07-1.31-.28-2-.19-.33.04-.53.4-.28.67h0Z" fill="#fff"/><path d="M13.24,131.18c.78.06,1.47-.23,2.22-.41.75-.19,1.87-.15,2.37-.79.24-.3.26-.76-.13-.97-.84-.47-1.93.11-2.76.42-.78.29-1.5.55-1.99,1.26-.15.22.06.48.28.49h0Z" fill="#fff"/><path d="M2.9,124.15c-.57-.45-1.03-1.01-.47-1.69.77-.93,1.77.22,2.19.88.41.64,1.57.44,1.52-.41-.04-.69.14-1.27.95-1.12,1.01.19.85,1.05.99,1.83.12.68,1.19.8,1.49.19.81-1.62-.71-3.37-2.28-3.61-1.83-.29-3.02,1.18-2.75,2.93.45-.26.91-.53,1.36-.79-.62-.8-1.46-1.55-2.53-1.55-.75,0-1.42.43-1.82,1.04-.7,1.04-.37,3.12,1.26,2.65.14-.04.22-.25.09-.35h0Z" fill="#fff"/><path d="M10.1,124.08c-.03-.53.12-.94.55-1.26.32-.23.71-.49,1-.57.31-.09.14-.06.43-.06-.19,0,0,0,.05.03-.13-.06-.03,0-.04,0,0,0-.02-.04-.03-.06.02.05.07.33.06.26.04.34-.08.66-.06,1,.04.86,1.39,1.42,1.79.48.74-1.72-.35-4.11-2.47-3.49-1.61.47-2.37,2.18-1.97,3.76.1.38.72.31.7-.09h0Z" fill="#fff"/><path d="M13.49,123.02c.43-.4.94-.73,1.49-.53.21.07.29.09.33.18.15.36-.02.8.07,1.17.15.62,1.01.69,1.32.17.59-.97.04-2.6-1.12-2.85-.5-.11-.98.13-1.38.4-.44.29-.87.56-1.22.96-.3.34.16.82.5.5h0Z" fill="#fff"/><path d="M16.34,123.24c.6-.59,1.34-1.05,2.21-1.05.9,0,.7.74.78,1.43.08.78,1.16,1.01,1.41.19.4-1.3-.24-3.03-1.78-3.01-1.19.02-2.4,1.06-3.14,1.91-.31.35.18.86.52.52h0Z" fill="#fff"/><path d="M20.02,123.5c.31.14.46.22.58.45-.06-.11.06.24.06.19,0,.06-.02.34-.02.48.02,1.02,1.53,1.26,1.8.24.35-1.34-.57-2.49-1.77-2.93-.9-.33-1.54,1.17-.66,1.56h0Z" fill="#fff"/><path d="M7.73,121.46c.22-.39.11-.86.1-1.29,0-.7,0-1.39.04-2.09.06-1.28.08-2.66.46-3.89-.13.16-.25.33-.38.49.03-.01.05-.02.08-.03.98-.45.25-1.85-.7-1.66-.29.06-.74.24-.79.57,0-.02.29-.07.27-.03.02-.06-.09-.08-.1-.13-.11-.51-.41-.95-.44-1.52-.1-1.77,2.07-3.24,1.5-5.04-.15-.47-.76-.67-1.12-.3-.52.54-.67,1.23-.94,1.9-.27.66-.57,1.31-.79,1.99-.31.95-.31,1.84-.03,2.8.21.73.56,1.65,1.28,2.02.91.47,2.46-.29,2.32-1.4-.56.15-1.13.31-1.69.46.01.02.02.04.04.06-.03-.21-.06-.43-.08-.64-.36,1.36-.33,2.84-.27,4.23.03.73.08,1.46.16,2.18.05.45.02,1.06.39,1.38.21.19.55.17.7-.09h0Z" fill="#fff"/><path d="M15.25,121.75c.55-2.48.28-5.36-.16-7.85-.37.29-.74.57-1.11.86.13.11.27.2.42.27.28.15.66.12.89-.11,1.59-1.64.59-3.56-.37-5.23-1.28-2.22-.99-4.98-.8-7.45.11-1.39-2.19-1.42-2.18,0,0,1.32.15,2.63.29,3.94.11,1.06.2,2.19.64,3.17.36.81.9,1.52,1.35,2.27.48.8.81,1.54.04,2.26.3-.04.59-.08.89-.11-.08-.06-.16-.13-.24-.19-.55-.53-1.45,0-1.27.74.59,2.44.99,4.86,1.08,7.37,0,.3.47.39.54.07h0Z" fill="#fff"/><path d="M10.75,116.5c1.38.45,1.3-2.51,1.3-3.15.01-.97-.17-1.93-.25-2.9-.03-.44.04-1.68-.39-1.93-.09-.05-.21-.06-.31,0-.38.23-.25,1.11-.25,1.48.01.77.03,1.53,0,2.3-.03.77.03,1.54,0,2.32,0,.15-.08,1.29-.11,1.3-.3.07-.27.49,0,.58h0Z" fill="#fff"/><path d="M7.86,106.3c.56-.36.55-.96.7-1.57.2-.8.44-1.59.59-2.4-.29.17-.58.33-.87.5.97.33,2.84.42,3.37-.69.2-.42.03-.84-.41-1-.47-.17-.82,0-1.28.13-.49.15-.98.23-1.49.17-.4-.05-.68.37-.71.71-.08.91-.31,1.8-.43,2.7-.08.59-.14,1.06.37,1.46.04.03.12.03.16,0h0Z" fill="#fff"/><path d="M9.83,101.65c-.16-1.08-.87-2.08-1.07-3.17-.21-1.15.15-2.22.6-3.26.93-2.15,1.29-4.45,1.89-6.7h-1.69c.47,2.22,1.75,4.16,2.2,6.41.11.55.2,1.12.44,1.63.28.58.37.94.3,1.61-.12,1.18-1.1,2.03-1.19,3.18-.06.87.94,1.24,1.6.92,1.22-.59,1.47-2.4,1.61-3.6.07-.59,0-1.18.04-1.76.05-.69.18-1.2,0-1.91-.32-1.22-1.05-2.23-1.71-3.28-.73-1.16-1.31-2.32-1.59-3.67-.18-.87-1.47-.8-1.69,0-.34,1.27-.59,2.57-.94,3.84-.37,1.35-1.1,2.44-1.62,3.72-.48,1.18-.56,2.42-.22,3.66.32,1.15,1.11,2.5,2.26,2.99.45.19.86-.12.79-.61h0Z" fill="#fff"/><path d="M124.36,126.83c2.19-1.78,5.21-1.8,7.43-3.54,2.21-1.74,2.63-4.39,3.58-6.87.29-.76-.45-1.53-1.17-1.54-2.11-.02-4.2-.11-6.29-.3-2.1-.19-4.2-.53-6.31-.61-1.89-.07-3.78.17-5.63.55-.92.19-1.83.43-2.74.68-.93.26-1.89.42-2.64,1.06-.61.53-.3,1.69.49,1.85.94.19,1.81-.14,2.71-.37.87-.22,1.74-.44,2.61-.64,1.81-.41,3.64-.64,5.49-.56,4.11.18,8.18.95,12.31.77-.39-.51-.78-1.03-1.17-1.54-.74,2.29-.87,5.06-3.13,6.45-2.1,1.29-5.3,1.4-6.56,3.83-.35.68.45,1.24,1.01.78h0Z" fill="#fff"/><path d="M109.97,117.11c-.52.47-.14,1.34.06,1.87.23.62.39,1.27.62,1.89.59,1.58,1.6,2.81,3.11,3.59,1.17.61,2.49.81,3.76,1.15.93.25,2.33.55,2.67,1.55.33.96,1.98,1.19,2.19,0l.02-.11c.11-.64-.27-1.35-1.01-1.32-.03,0-.07,0-.1,0,.36.28.73.55,1.09.83-.58-2.99-4.8-3.06-7.05-3.85-1.35-.47-2.3-1.55-2.81-2.9-.28-.75-1.23-3.89-2.55-2.7h0Z" fill="#fff"/><path d="M123.17,117.39c-.75-.04-1.42.16-2.17.24-.77.09-1.55.11-2.32.14-1.55.06-3.09.17-4.57.66-1.05.35-.57,2.03.45,1.65,1.55-.57,3.18-.69,4.81-.87,1.37-.15,3.05-.18,4.08-1.15.26-.24.05-.66-.28-.67h0Z" fill="#fff"/><path d="M120.95,122.46c-.58-.74-1.44-1.03-2.3-1.33-.88-.31-2.02-.89-2.91-.44-.38.19-.37.69-.13.97.57.68,1.83.65,2.65.86.83.21,1.59.52,2.45.51.31,0,.4-.35.23-.56h0Z" fill="#fff"/><path d="M132.45,115.53c1.81.42,2.14-1.83,1.31-2.98-.47-.65-1.19-1.07-1.99-1.06-1.25.01-2.16.98-2.86,1.89.5.21.99.42,1.49.63.29-1.89-.98-3.48-2.97-3.17-1.68.26-3.38,2.17-2.5,3.91.3.6,1.37.5,1.49-.19.09-.52-.07-1.05.25-1.52.22-.32.57-.55.95-.61.97-.16,1.24.51,1.18,1.36-.06.85,1.11,1.04,1.52.41.5-.77,1.65-2.06,2.56-1.04.68.76.25,1.48-.47,1.98-.14.1-.14.34.05.38h0Z" fill="#fff"/><path d="M124.99,115.17c.41-1.69-.43-3.57-2.16-4.09-2.1-.62-3.55,1.62-2.79,3.51.38.96,1.87.9,1.89-.26,0-.37-.12-.75-.07-1.12.02-.14.11-.41.07-.3.02-.05.1-.08,0-.04.05-.02.27-.04.09-.04.28,0,.24-.02.51.07.93.29,1.83,1.1,1.76,2.17-.03.4.6.48.7.09h0Z" fill="#fff"/><path d="M120.96,113.35c-.39-.43-.84-.73-1.33-1.03-.47-.29-.97-.56-1.54-.44-1.28.25-1.78,2.03-1.2,3.07.29.52,1.21.45,1.32-.17.12-.63-.24-1.35.49-1.57.69-.21,1.27.19,1.76.65.34.31.81-.16.5-.5h0Z" fill="#fff"/><path d="M117.78,113.59c-.82-.93-2.17-2.07-3.48-2.09-1.66-.02-2.39,1.88-1.92,3.29.26.8,1.31.59,1.4-.19.09-.8-.14-1.73.94-1.71,1,.01,1.85.55,2.54,1.23.34.34.83-.17.52-.52h0Z" fill="#fff"/><path d="M112.38,112.78c-1.3.48-2.26,1.71-1.9,3.16.25,1.01,1.8.79,1.8-.24,0-.19-.04-.38-.01-.57-.01.1.02-.1.03-.12.05-.16-.09.15.04-.12.14-.27.4-.41.7-.54.88-.39.25-1.9-.66-1.56h0Z" fill="#fff"/><path d="M127.66,112.2c.37-.39.35-1,.4-1.51.09-.83.14-1.66.17-2.49.06-1.54.09-3.2-.32-4.71-.03.21-.06.43-.08.64l.03-.07c-.55-.23-1.11-.47-1.66-.7,0,.04-.01.08-.02.12-.05.35-.04.77.27,1.02.75.6,1.67,1.1,2.51.33.63-.57.96-1.52,1.14-2.33.23-1.03.15-1.89-.19-2.89-.25-.72-.58-1.42-.87-2.13-.29-.72-.48-1.43-.99-2.04-.33-.39-1.01-.17-1.12.3-.52,2.07,1.84,3.67,1.7,5.71-.04.61-.21,1.27-.56,1.78-.08.12-.11.17.01.11.1-.05.14.12,0-.1-.18-.29-.44-.45-.77-.51-.93-.16-1.7,1.18-.7,1.66.03.01.05.02.08.04-.13-.16-.25-.33-.38-.49.44,1.38.44,2.93.51,4.37.03.74.05,1.49.04,2.23,0,.53-.13,1.09.09,1.58.12.26.52.28.7.09h0Z" fill="#fff"/><path d="M119.02,112.38c.05-2.83.52-5.57,1.15-8.31.17-.72-.72-1.29-1.27-.74-.08.1-.17.17-.29.23.3.04.59.08.89.11-1.58-1.46.85-3.71,1.51-5.13.51-1.1.6-2.38.73-3.57.15-1.48.3-2.97.31-4.45,0-1.42-2.29-1.39-2.18,0,.2,2.74.52,5.88-.9,8.35-1.07,1.85-2.28,4.01-.49,5.84.24.24.6.27.89.11.23-.12.42-.26.62-.42-.42-.25-.85-.49-1.27-.74-.27,1.44-.38,2.94-.45,4.4-.07,1.46-.08,2.95.22,4.38.06.31.54.23.54-.07h0Z" fill="#fff"/><path d="M123.5,105.94c-.13-.02-.16-1.09-.17-1.3-.06-.87.02-1.75-.01-2.62-.03-.89-.02-1.78,0-2.67.01-.4.17-1.39-.17-1.69-.13-.11-.3-.11-.43,0-.39.33-.3,1.67-.34,2.14-.08,1.09-.27,2.17-.26,3.26,0,.69-.09,3.91,1.38,3.46.27-.08.31-.52,0-.58h0Z" fill="#fff"/><path d="M126.97,95.05c.53-.55.4-1.14.29-1.84-.14-.93-.37-1.85-.46-2.79-.05-.5-.41-.75-.9-.68-1,.15-1.96-.66-2.9-.37-.43.13-.62.61-.41,1,.63,1.17,2.61,1.09,3.69.73-.29-.17-.58-.33-.87-.5.14.85.39,1.67.6,2.5.18.71.18,1.43.75,1.94.06.06.16.06.22,0h0Z" fill="#fff"/><path d="M125.41,90.49c.64-.27,1.15-.95,1.58-1.48.42-.51.67-1.17.85-1.8.39-1.37.31-2.76-.22-4.08-.57-1.41-1.37-2.64-1.78-4.12-.4-1.45-.68-2.94-1.08-4.39-.22-.8-1.51-.87-1.69,0-.29,1.45-.91,2.71-1.67,3.96-.74,1.22-1.58,2.38-1.96,3.78-.1.36-.19.78-.2,1.15,0,.35.13.69.14,1.04.03.7-.03,1.36.05,2.06.16,1.31.46,3.16,1.73,3.85.63.34,1.71-.07,1.6-.92-.17-1.33-1.26-2.31-1.34-3.72-.04-.64.02-1.08.29-1.65.28-.58.38-1.28.52-1.91.54-2.51,2-4.69,2.52-7.19h-1.69c.68,2.59,1.12,5.22,2.2,7.68.49,1.12.85,2.3.62,3.54-.1.57-.36,1.06-.55,1.6-.23.63-.62,1.32-.72,1.98-.07.49.34.8.79.61h0Z" fill="#fff"/><path d="M151.59,134.87c1.03-.79,2.05-1.22,3.28-1.61,1.23-.4,2.45-.8,3.49-1.61,1.98-1.56,2.37-3.92,3.24-6.15.29-.76-.45-1.53-1.17-1.54-1.84-.02-3.67-.1-5.51-.27-1.89-.17-3.79-.48-5.69-.56-1.72-.07-3.44.15-5.11.5-.8.17-1.59.37-2.37.59-.83.23-1.77.38-2.4,1-.59.58-.31,1.63.49,1.85.83.22,1.66-.1,2.47-.31.74-.19,1.49-.38,2.24-.55,1.64-.38,3.3-.59,4.98-.51,3.64.17,7.24.84,10.9.68l-1.17-1.54c-.64,1.99-.74,4.45-2.68,5.66-1.87,1.17-4.78,1.27-5.86,3.48-.25.51.32,1.31.88.88h0Z" fill="#fff"/><path d="M138.55,126.6c0,.6.25,1.09.43,1.65.18.57.35,1.13.58,1.68.56,1.29,1.57,2.29,2.84,2.89,1,.47,2.11.64,3.17.93.77.21,1.97.45,2.27,1.29.55,1.58,2.92.51,2.07-.87-.1-.16-.23-.32-.41-.41.17.23.35.45.52.68-.49-2.52-3.91-2.81-5.89-3.37-1.13-.31-2.09-.98-2.64-2.06-.53-1.03-.62-2.51-1.74-3.1-.52-.28-1.21.06-1.2.69h0Z" fill="#fff"/><path d="M150.61,126.27c-.7-.09-1.31.12-2,.19-.67.07-1.34.09-2.01.11-1.38.05-2.76.15-4.08.58-1.05.34-.57,2.03.45,1.65,1.39-.51,2.85-.62,4.3-.79,1.19-.13,2.76-.14,3.61-1.07.25-.27.05-.63-.28-.67h0Z" fill="#fff"/><path d="M148.71,130.87c-.48-.71-1.21-.97-1.99-1.26-.83-.31-1.93-.89-2.76-.42-.38.21-.36.67-.13.97.5.64,1.62.6,2.37.79.75.19,1.44.47,2.22.41.23-.02.44-.27.28-.49h0Z" fill="#fff"/><path d="M158.86,124.68c1.63.46,1.96-1.61,1.26-2.65-.39-.59-1.04-1.01-1.76-1.04-1.1-.04-1.97.73-2.6,1.55.45.26.91.53,1.36.79.27-1.74-.91-3.22-2.75-2.93-1.57.25-3.09,2-2.28,3.61.3.6,1.37.49,1.49-.19.13-.78-.03-1.64.99-1.83.81-.15,1,.43.95,1.12-.05.85,1.11,1.05,1.52.41.42-.66,1.43-1.81,2.19-.88.56.68.1,1.24-.47,1.69-.13.1-.05.31.09.35h0Z" fill="#fff"/><path d="M152.26,124.35c.39-1.56-.36-3.3-1.97-3.76-2.13-.6-3.22,1.75-2.47,3.49.4.94,1.75.38,1.79-.48.01-.34-.1-.66-.06-1,0,.07.05-.21.06-.26-.02.06-.03.06-.03.06-.01-.01.09-.06-.04,0,.06-.03.26-.03.05-.03.03,0,.31.01.21,0-.1-.01.19.05.22.06.3.09.67.34,1,.57.44.31.58.73.55,1.26-.02.4.6.48.7.09h0Z" fill="#fff"/><path d="M148.68,122.7c-.34-.39-.75-.65-1.18-.93-.42-.27-.89-.55-1.42-.43-1.15.25-1.71,1.88-1.12,2.85.31.51,1.17.45,1.32-.17.09-.37-.06-.76.06-1.12,0-.03.09-.15.05-.1.03-.03.17-.08.3-.13.55-.19,1.06.13,1.49.53.34.31.8-.16.5-.5h0Z" fill="#fff"/><path d="M145.84,122.91c-.74-.85-1.95-1.88-3.14-1.91-1.54-.03-2.17,1.72-1.78,3.01.25.81,1.33.59,1.41-.19.07-.7-.12-1.43.78-1.43.87,0,1.61.46,2.21,1.05.34.33.83-.17.52-.52h0Z" fill="#fff"/><path d="M140.99,122.12c-1.19.44-2.12,1.59-1.77,2.93.27,1.01,1.78.79,1.8-.24,0-.17-.03-.34-.01-.51-.01.14.11-.28.05-.17.08-.15.06-.13.18-.22.07-.05.26-.16.4-.22.88-.39.25-1.9-.66-1.56h0Z" fill="#fff"/><path d="M154.64,121.73c.36-.32.34-.93.39-1.38.08-.73.13-1.46.16-2.18.06-1.39.09-2.87-.27-4.23-.03.21-.06.43-.08.64l.04-.06c-.56-.15-1.13-.31-1.69-.46-.13,1.07,1.3,1.81,2.21,1.44.79-.32,1.17-1.31,1.39-2.07.26-.9.29-1.77,0-2.67-.22-.68-.51-1.33-.78-1.99-.29-.71-.45-1.47-.99-2.03-.36-.38-.97-.17-1.12.3-.57,1.81,1.6,3.27,1.5,5.04-.03.55-.33.99-.42,1.49-.01.05-.12.1-.12.15,0,0,.29-.13.27.03.03-.3-.6-.53-.79-.57-.94-.19-1.69,1.2-.7,1.66.03.01.05.02.08.03-.13-.16-.25-.33-.38-.49.39,1.23.4,2.61.46,3.89.03.67.05,1.34.04,2.01,0,.45-.13.96.1,1.37.15.26.49.28.7.09h0Z" fill="#fff"/><path d="M146.95,121.86c.08-2.51.49-4.93,1.08-7.37.18-.74-.71-1.27-1.27-.74l-.24.19c.3.04.59.08.89.11-.77-.72-.43-1.46.04-2.26.45-.76.99-1.47,1.35-2.27.44-.98.53-2.11.64-3.17.14-1.31.28-2.62.29-3.94,0-1.42-2.29-1.39-2.18,0,.19,2.47.48,5.23-.8,7.45-.96,1.67-1.96,3.58-.37,5.23.23.24.6.27.89.11.15-.07.29-.16.42-.27-.37-.29-.74-.57-1.11-.86-.44,2.49-.71,5.36-.16,7.85.07.31.53.23.54-.07h0Z" fill="#fff"/><path d="M150.91,116.1s-.1-1.15-.11-1.3c-.04-.77.03-1.55,0-2.32-.03-.77-.02-1.53,0-2.3,0-.38.13-1.25-.25-1.48-.09-.06-.21-.05-.31,0-.42.25-.35,1.43-.38,1.85-.08.99-.27,1.98-.25,2.97,0,.64-.07,3.61,1.3,3.15.27-.09.31-.51,0-.58h0Z" fill="#fff"/><path d="M153.97,106.48c.51-.39.45-.86.37-1.46-.12-.9-.35-1.79-.43-2.7-.03-.34-.3-.76-.71-.71-.51.07-1-.02-1.49-.17-.46-.14-.8-.31-1.28-.13-.44.16-.61.58-.41,1,.53,1.11,2.4,1.02,3.37.69-.29-.17-.58-.33-.87-.5.14.81.39,1.6.59,2.4.15.6.14,1.21.7,1.57.04.03.12.03.16,0h0Z" fill="#fff"/><path d="M152.63,102.44c1.15-.49,1.94-1.83,2.26-2.99.34-1.24.26-2.48-.22-3.66-.52-1.28-1.25-2.37-1.62-3.72-.35-1.27-.6-2.56-.94-3.84-.22-.8-1.51-.87-1.69,0-.28,1.35-.86,2.51-1.59,3.67-.66,1.05-1.39,2.06-1.71,3.28-.19.72-.06,1.2,0,1.91.05.59-.03,1.17.04,1.76.13,1.21.38,3.01,1.61,3.6.67.32,1.67-.05,1.6-.92-.09-1.16-1.07-2-1.19-3.18-.06-.58-.02-.99.24-1.5.28-.54.37-1.16.49-1.75.46-2.24,1.73-4.19,2.2-6.41h-1.69c.59,2.25.96,4.55,1.89,6.7.44,1.01.79,2.05.62,3.16-.18,1.13-.92,2.15-1.08,3.26-.07.49.34.8.79.61h0Z" fill="#fff"/><path d="M11.9,135.2c-2.07,2.77-2.13,6.83-1.8,10.12.18,1.78.22,3.53.69,5.27.45,1.67,1.36,3.14,2.47,4.45,2.38,2.81,5.86,4.62,9.39,5.54,3.39.88,7.24,1.05,10.57-.16,1.94-.7,3.83-1.67,5.48-2.91.79-.59,1.55-1.23,2.18-2,.66-.82.97-1.56.52-2.56-.12-.27-.49-.3-.72-.19-.63.3-.97.6-1.41,1.14-.5.61-1.11,1.14-1.75,1.59-1.33.95-2.8,1.74-4.32,2.32-2.83,1.08-5.88,1.23-8.84.64-3.14-.63-6.2-2-8.56-4.2-2.23-2.07-3.43-4.88-4.11-7.81-.42-1.81-.24-3.94-.01-5.77.21-1.67.54-3.31,1.33-4.81.4-.75-.63-1.3-1.11-.65h0Z" fill="#fff"/><path d="M15.23,132.93c-3.12,5.03-3.04,11.71-.64,17.01,1.15,2.54,3.07,4.88,5.61,6.1,1.36.65,2.81,1.02,4.31,1.12,1.78.11,3.52-.27,5.24-.68,2.25-.52,4.49-1.17,6.55-2.23.97-.5,1.87-1.1,2.71-1.78.87-.71,1.9-1.61,2.19-2.73.16-.65-.53-1.18-1.12-.86-.83.46-1.4,1.27-2.13,1.87-.7.58-1.48,1.07-2.29,1.48-1.59.82-3.33,1.32-5.07,1.73-2.87.68-5.88,1.36-8.73.22-4.68-1.87-6.98-7.14-7.17-11.89-.12-2.95.46-5.98,1.89-8.58.49-.88-.81-1.63-1.34-.78h0Z" fill="#fff"/><path d="M39.27,126.58c-2.4,1.47-2.62,4.67-2.55,7.23.04,1.54.23,3.09.49,4.61.25,1.44.42,2.83.83,4.24,1.58,5.44,4.67,11.62,10.66,13.12,6.76,1.69,13.21-3.06,17.39-7.88,2.26-2.61,4.24-5.5,5.77-8.6,1.7-3.43,2.87-7.07,4.18-10.67,1.56-4.3,3.3-8.54,4.58-12.94.66-2.27,1.21-4.58,1.59-6.92.36-2.26.92-4.87.3-7.1-.22-.77-1.33-.76-1.55,0-.56,1.9-.43,3.98-.71,5.94-.26,1.89-.65,3.78-1.1,5.63-.94,3.84-2.25,7.55-3.61,11.25-2.39,6.51-4.43,13.2-8.47,18.93-3.4,4.81-8.51,10.18-14.8,10.48-2.7.13-5.16-.86-7.05-2.79-1.91-1.94-3.13-4.48-4.08-7-.49-1.31-.81-2.68-1.27-4-.26-.76-.54-1.44-.71-2.23-.17-.78-.33-1.58-.43-2.37-.38-2.85-.12-5.75,1.11-8.37.16-.35-.18-.79-.56-.56h0Z" fill="#fff"/><path d="M41.4,125.91c-1.8,2.05-1.61,5.31-1.29,7.83.21,1.6.53,3.18.96,4.74.38,1.38.94,2.68,1.38,4.04.91,2.82,3.38,4.98,5.92,6.34,2.87,1.55,6.31,2.38,9.55,1.71,3.18-.66,5.6-3.15,7.44-5.69,2.11-2.92,3.6-6.26,4.92-9.59,3.13-7.89,5.99-15.94,8.31-24.1.69-2.45,1.04-4.96,1.26-7.49.17-1.92.23-3.85.53-5.76.27-1.75.57-3.5.77-5.26.15-1.39.3-2.9-.33-4.2-.68-1.42-2.79-.18-2.11,1.23-.15-.3.07.35.06.29.01.08.05.5.05.7.03.66-.01,1.32-.06,1.98-.11,1.37-.32,2.74-.52,4.1-.5,3.43-.46,6.92-.99,10.35-.66,4.29-2.16,8.5-3.5,12.61-1.24,3.82-2.59,7.61-3.95,11.39-1.09,3.03-2.26,6.03-3.76,8.88-1.42,2.69-3.18,5.49-5.7,7.28-2.42,1.71-5.39,1.67-8.13.81-2.68-.84-5.41-2.53-6.92-4.95-1.53-2.45-2.41-5.2-2.99-8.03-.33-1.58-.53-3.18-.52-4.8,0-1.2.16-2.48.81-3.51.45-.71-.61-1.55-1.18-.91h0Z" fill="#fff"/><path d="M45.44,126.95c1.7-.43,3.35-1.07,5.02-1.63,1.63-.54,3.24-1.14,4.76-1.96,2.88-1.56,5.51-3.75,7.93-5.95,4.92-4.48,8.84-10.08,12.3-15.73,2-3.27,3.59-6.8,4.39-10.56.3-1.39-1.69-1.94-2.13-.59-1.02,3.13-2.2,6.2-3.84,9.07-1.6,2.8-3.4,5.51-5.28,8.11-1.88,2.6-3.95,5.08-6.24,7.33-2.26,2.23-4.61,4.45-7.17,6.34-1.59,1.18-3.39,1.91-5.23,2.6-1.7.63-3.48,1.19-4.77,2.51-.19.2,0,.53.27.46h0Z" fill="#fff"/><path d="M123.47,128.84c.06.09.08.47.1.78.03.59,0,1.19-.03,1.78-.08,1.22-.25,2.43-.33,3.64-.21,3.34.13,6.64-.7,9.93-.59,2.33-1.57,4.61-3,6.55-1.25,1.7-3.12,3.36-5.37,3.2-2.61-.18-5.11-2.14-6.78-4.01-1.88-2.12-3.32-4.54-4.59-7.06-3.28-6.49-6.22-13.13-9.72-19.51-1.01-1.84-2.15-3.61-3.04-5.51-.81-1.72-1.41-3.53-1.92-5.35-.53-1.87-.95-3.76-1.35-5.66-.21-.99-.42-1.97-.61-2.96-.21-1.08-.34-1.8-1.23-2.52-.31-.25-.82-.28-1.03.13-.18.35-.36.66-.43,1.05-.09.5.07.98.17,1.47.21.98.39,1.97.58,2.96.35,1.82.71,3.63,1.15,5.42.44,1.78.96,3.55,1.64,5.26.74,1.88,1.69,3.63,2.68,5.39,3.84,6.86,7.03,14.04,10.62,21.03,1.39,2.71,2.96,5.5,5.15,7.65,2.13,2.09,4.96,3.94,7.98,4.3,5.67.69,9.18-5.18,10.66-9.82,1.2-3.75,1.04-7.61,1.22-11.49.07-1.43.26-2.86.32-4.3.04-1.11.14-2.59-.76-3.42-.7-.65-1.89.18-1.36,1.05h0Z" fill="#fff"/><path d="M87.39,100.42c-1.29,1.55-.9,3.82-.5,5.64.53,2.39,1.37,4.7,2.33,6.96,1,2.34,2.19,4.59,3.21,6.92,1.41,3.23,2.71,6.51,4.24,9.7,1.51,3.16,3.3,6.19,5.14,9.17,1.83,2.96,3.75,5.91,5.86,8.68,1.57,2.05,3.75,3.93,6.45,4.05,2.45.1,4.45-1.51,5.71-3.48,1.98-3.11,2.45-6.98,2.71-10.58.28-3.82.21-7.69,1.16-11.42.4-1.56-1.96-2.21-2.41-.66-1.76,6.13-.39,12.72-2.52,18.77-.66,1.86-1.88,4.13-3.88,4.6-.67.16-1.42.04-2.15-.3-1.05-.49-1.91-1.31-2.65-2.18-2.09-2.45-3.82-5.32-5.52-8.05-1.72-2.76-3.41-5.58-4.9-8.47-1.51-2.92-2.75-5.95-4.1-8.94-1.11-2.48-2.36-4.87-3.56-7.3-1.06-2.14-2.01-4.35-2.77-6.61-.39-1.17-.67-2.36-.95-3.56-.2-.85-.37-1.81-.33-2.68.01-.27-.38-.45-.56-.23h0Z" fill="#fff"/><path d="M119.99,153.24c-.47,3.17,3.51,5.48,5.84,6.78,1.62.9,3.27,1.71,5.1,2.09,2.05.43,4.16.52,6.24.39,3.57-.23,6.84-1.48,9.49-3.92,2.47-2.28,4.17-5.33,5.12-8.53,1.42-4.77.65-9.65.88-14.52.07-1.53-2.27-1.51-2.37,0-.26,4,.3,8.08-.55,12.03-.61,2.84-1.82,5.61-3.75,7.81-1.91,2.18-4.4,3.69-7.26,4.21-3.36.61-7.36.32-10.45-1.19-2.66-1.3-5.44-2.58-6.81-5.34-.29-.59-1.39-.5-1.49.19h0Z" fill="#fff"/><path d="M122.19,149.46c-1.01.8.02,2.62.52,3.48.77,1.32,1.79,2.57,3,3.51,2.99,2.33,6.66,2.06,10.23,2.26,1.56.09,3.01,0,4.47-.61,1.4-.58,2.51-1.67,3.53-2.77,2.13-2.31,3.61-5.05,4.47-8.06.61-2.14,1.16-4.31,1.76-6.46.31-1.1.58-2.19.75-3.32.08-.54.15-1.09.2-1.64.07-.74-.05-1.32-.13-2.04-.05-.51-.88-.74-.98-.13-.07.45-.25.86-.32,1.31-.08.5-.15,1-.25,1.5-.19.93-.44,1.84-.67,2.76-.47,1.84-1.05,3.64-1.52,5.48-.36,1.43-.65,2.86-1.17,4.25-.25.66-.53,1.31-.85,1.94-.32.62-.59,1.3-.98,1.89-1.46,2.2-3.88,3.99-6.57,4.26-1.63.16-3.32-.2-4.95-.26-1.65-.06-3.45-.16-4.94-.95-1.3-.69-2.5-1.71-3.47-2.81-.51-.57-.97-1.21-1.27-1.92-.26-.6-.29-1.16-.73-1.66-.04-.04-.09-.03-.13,0h0Z" fill="#fff"/><path d="M82.43,108.26c.03,1.56-.24,3.18-.45,4.73-.2,1.5-.43,3-.51,4.51-.17,2.94-.03,5.96.09,8.9.1,2.58.33,5.15.38,7.73.05,2.43.02,4.92-.69,7.27-.37,1.23,1.57,1.77,1.93.53,1.45-4.95.49-10.36.27-15.42-.13-2.99-.22-6.02-.17-9.02.02-1.61.26-3.2.33-4.81.07-1.6-.08-2.99-.63-4.5-.1-.28-.55-.26-.54.07h0Z" fill="#fff"/><path d="M82.36,143.12c.5-1-.77-1.92-1.54-2.31-.97-.49-2.04-.68-3.11-.58-2.05.18-4.17,1.23-5.17,3.11-1.16,2.18-.28,4.74,1.1,6.6,1.44,1.94,3.45,3.29,5.42,4.64,1.93,1.32,4.15,2.77,4.86,5.13.48,1.6,3.03.9,2.51-.69-1.41-4.31-5.83-5.94-9.11-8.54-1.46-1.16-3.12-2.88-3.21-4.87-.08-1.69,1.46-2.85,2.94-3.26.92-.25,1.95-.27,2.86.05.5.17,2.04,1.56,2.46.72h0Z" fill="#fff"/><path d="M85.71,159.04c2.87-4.81,9.72-7.01,10.58-13.07.33-2.29-.42-4.53-2.3-5.94-1.51-1.13-3.52-1.57-5.36-1.15-1.96.45-4.39,2.72-3.24,4.9.32.61,1.15.51,1.5,0,.25-.36.35-.78.51-1.18.03-.09.32-.55.36-.6.4-.46.78-.64,1.4-.79,1.04-.25,2.57.14,3.41.88.55.49.94,1,1.12,1.6.25.81.27,1.61.05,2.5-.55,2.29-2.44,3.99-4.04,5.59-.99.99-2.1,1.97-2.89,3.13-.4.59-.8,1.21-1.13,1.84-.32.6-.47,1.34-.61,2-.08.38.43.63.65.27h0Z" fill="#fff"/><path d="M85.35,143.26c.18-.66.01-1.36,0-2.03-.01-.66.04-1.32.11-1.98.15-1.42.37-2.84.39-4.27.02-1.43-.15-2.87-.2-4.3-.06-1.51.02-3,.16-4.5.28-3.08.29-6.18.21-9.27-.08-3.07-.21-6.21-.71-9.25-.07-.4-.7-.37-.79,0-.73,3.04-.67,6.28-.63,9.4.04,3.15.04,6.29-.27,9.43-.29,2.94.08,5.87.37,8.8.14,1.42-.05,2.83-.13,4.25-.06,1.19-.23,3.03.74,3.92.24.22.66.14.75-.2h0Z" fill="#fff"/><path d="M57.19,115.99c-.89.6-1.85,1.12-2.78,1.68-.4.25-.84.46-1.21.76-.42.34-.75.8-1.13,1.19-.16.17,0,.51.24.42.5-.2,1.03-.29,1.53-.5.48-.21.92-.52,1.36-.79.97-.6,1.74-1.24,2.51-2.08.32-.35-.1-.97-.53-.68h0Z" fill="#fff"/><path d="M44.12,145.73c1.47-.73,2.68-1.89,3.9-2.97,1.27-1.12,2.51-2.29,3.71-3.48,2.42-2.4,4.72-4.91,6.96-7.48,2.21-2.54,4.47-5.05,6.37-7.84,1.79-2.62,3.37-5.39,4.71-8.27.74-1.59,1.44-3.2,2.22-4.78.73-1.48,1.89-3,2.23-4.63.15-.71-.6-1.39-1.28-.98-1.27.76-1.99,2.26-2.65,3.53-.7,1.36-1.34,2.76-1.98,4.15-1.31,2.87-2.72,5.68-4.36,8.38-1.73,2.83-3.72,5.46-5.81,8.03-2.12,2.61-4.28,5.19-6.55,7.67-1.24,1.36-2.52,2.69-3.84,3.98-1.37,1.33-2.94,2.52-4.14,4-.31.38.07.91.53.68h0Z" fill="#fff"/><path d="M49.02,147.29c.64-.53,1.27-.98,1.83-1.59.56-.61,1.11-1.23,1.67-1.84,1.1-1.23,2.23-2.43,3.35-3.64,2.29-2.48,4.41-5.1,6.34-7.87,3.97-5.7,7.76-11.61,10.6-17.97,1.58-3.54,3.17-7.35,3.28-11.26.03-.88-1.21-.97-1.47-.2-1.14,3.29-2.05,6.62-3.47,9.81-1.4,3.13-3.03,6.18-4.76,9.14-1.73,2.96-3.6,5.83-5.54,8.66-1.87,2.74-3.94,5.26-6.06,7.81-1.18,1.42-2.38,2.82-3.54,4.26-.57.7-1.12,1.42-1.64,2.16-.5.71-.77,1.45-1.09,2.26-.12.31.3.46.51.29h0Z" fill="#fff"/><path d="M88.74,105.03c.88,1.4,1.24,3.07,1.89,4.59.64,1.5,1.44,2.88,2.27,4.28,1.74,2.96,3.33,6,5.11,8.94,3.25,5.38,6.19,10.97,10.6,15.52,1.17,1.2,2.12,2.56,3.09,3.92.94,1.31,2.01,3.1,3.48,3.84.75.38,1.7-.41,1.21-1.21-.4-.63-.93-1.13-1.42-1.69-.48-.56-.92-1.16-1.35-1.76-.89-1.25-1.74-2.52-2.73-3.69-1-1.17-2.1-2.22-3.07-3.42-1-1.24-1.9-2.54-2.76-3.88-1.69-2.61-3.19-5.33-4.77-8.01-1.7-2.89-3.45-5.75-5.19-8.62-.96-1.58-1.96-3.09-2.77-4.76-.81-1.67-1.81-3.1-2.94-4.55-.29-.37-.88.11-.64.49h0Z" fill="#fff"/><path d="M118.47,145c-.34-1.3-.93-2.31-1.77-3.35-.88-1.09-1.98-1.99-2.94-3-2.24-2.34-3.87-5.21-5.55-7.96-3.61-5.91-7.26-11.73-10.03-18.09-1.4-3.22-3.85-5.89-4.99-9.24-.38-1.13-2.17-.66-1.8.5.95,2.98,2.94,5.4,4.43,8.11.83,1.5,1.44,3.1,2.19,4.64.75,1.52,1.55,3.02,2.38,4.5,1.71,3.05,3.51,6.04,5.28,9.05,1.72,2.92,3.36,5.9,5.47,8.57.97,1.22,2.21,2.18,3.37,3.22,1.11,1,2.49,2.05,3.22,3.37.22.41.86.13.75-.31h0Z" fill="#fff"/><path d="M45.62,106.25c2.15,0,2.15-3.34,0-3.34s-2.15,3.34,0,3.34h0Z" fill="#fff"/><path d="M37.76,126.26c-1.16-.81-2.95-.42-4.22-.13-1.48.33-2.92.84-4.4,1.17-1.37.3-.79,2.43.58,2.11,1.4-.33,2.72-.87,4.08-1.32,1.28-.42,2.75-.45,3.96-.98.37-.16.26-.66,0-.84h0Z" fill="#fff"/><path d="M27.38,129.63c-.23,2.08,2.3,2.34,3.77,2.11.94-.15,1.86-.42,2.76-.73.74-.26,1.71-.49,2.14-1.18.32-.51-.01-1.09-.52-1.28-.63-.24-1.23.12-1.81.35-.72.28-1.43.59-2.17.82-1.09.35-2.52.89-3.14-.36-.27-.54-.97-.21-1.03.28h0Z" fill="#fff"/><path d="M29.17,127.91c-.14-.14-.36-.3-.46-.47-.08-.13-.09-.28-.2-.4-.2-.22-.51-.36-.73-.56-.47-.44-.72-.95-1.07-1.48-.46-.7-1.65-.28-1.4.59.22.75.68,1.5,1.29,1.99.27.22.56.42.87.59.26.14.45.1.72.14.21.03.43.13.64.19.35.11.58-.35.35-.59h0Z" fill="#fff"/><path d="M28.8,129.01c-.51-.41-1.07-.71-1.45-1.26-.43-.62-.63-1.39-.76-2.12-.14-.76-.19-1.53-.22-2.3-.02-.67.17-1.68-.41-2.15-.31-.26-.67-.26-.98,0-.64.53-.39,1.86-.35,2.59.06.95.16,1.92.41,2.84.42,1.52,1.59,3.72,3.52,3.3.37-.08.55-.65.24-.9h0Z" fill="#fff"/><path d="M26.13,121.43c-.65-1.2-.75-2.42-1.13-3.7-.28.16-.55.32-.83.48,1.07.85,2.68,1.09,4.01.94.95-.1,1.1-1.27.22-1.63-1.19-.48-2.77-.38-4.01-.15-.34.06-.43.47-.3.73.58,1.16,1.02,2.41,1.72,3.5.13.2.43.02.32-.19h0Z" fill="#fff"/><path d="M24.43,118.83c.11-.2.22-.41.28-.63.05-.21.04-.43.09-.55-.04.09.17-.2.02-.03.07-.06.13-.13.17-.21-.02.04-.04.07-.07.09.1-.06.41-.24.46-.5-.09.12-.18.24-.27.36.02-.01.04-.03.06-.04.28-.19.38-.6.11-.85-.02-.01-.03-.03-.05-.04.05.09.1.18.15.26-.1-.47-.63-.59-1.03-.53-.41.06-.72.29-.92.65-.37.69-.33,1.56.22,2.13.22.23.63.17.78-.1h0Z" fill="#fff"/><path d="M28.08,113.28c.19-1.33.42-2.6.32-3.94-.11-1.44-.3-2.86-.46-4.29-.31-2.8-.53-5.6.54-8.28-.32.18-.64.36-.96.55,1.49.26,3.49.49,4.54-.84l-1.03-.27c.28.96,0,1.93.36,2.89.11.3.33.48.65.5.13,0,.23-.03.34-.09.2-.12.34-.35.33-.58-.03-1.03-.25-2.04-.5-3.04-.1-.39-.57-.56-.9-.37-.97.55-2.31.48-3.38.3-.45-.08-.79.12-.96.55-1.04,2.63-1.02,5.51-.67,8.28.18,1.39.41,2.77.57,4.16.17,1.44.48,2.94.39,4.38-.03.45.74.57.8.11h0Z" fill="#fff"/><path d="M30.06,96.05c-.26-.78-1.07-1.27-1.16-2.05-.1-.86.31-1.84.63-2.65.73-1.86,1.89-3.82,1.58-5.89-.63.27-1.26.53-1.89.8,1.27,1.83,1.85,4.01,2.36,6.15.17.71.5,1.56.03,2.21-.54.74-1.4,1.16-2.05,1.77-.96.89.3,2.59,1.42,1.84.89-.6,1.98-1.48,2.37-2.52.36-.93.17-2.06-.04-3-.28-1.24-.67-2.45-.97-3.68-.31-1.31-.7-2.62-1.33-3.81-.47-.89-1.99-.5-1.93.52.13,2.12-1.42,4.16-2.04,6.12-.32.99-.5,2.12-.19,3.13.35,1.12,1.45,2.3,2.72,1.9.34-.11.6-.48.48-.84h0Z" fill="#fff"/><path d="M101.1,116.15c1.18,1.27,2.62,2.18,4.23,2.82,1.18.47,3.81,1.49,4.86.33.31-.35.22-.79-.14-1.05-.52-.39-1.43-.3-2.06-.4-.79-.12-1.56-.36-2.31-.65-1.42-.54-2.79-1.16-4.22-1.69-.38-.14-.61.38-.37.64h0Z" fill="#fff"/><path d="M131.45,124.24c1.27.28,2.48.31,3.68-.25,1.1-.52,1.91-1.45,2.62-2.42.73-1,1.33-2.1,1.99-3.15.09-.14.18-.28.27-.42.07-.12.23-.39.04-.15.32-.42.61-.55.67-1.13.02-.16-.06-.44-.02-.11-.02-.14-.04-.28-.06-.43-.04-.28-.07-.57-.12-.85-.13-.62-.84-.93-1.41-.8-.69.16-1.34.19-2.04.08-.78-.12-1.58-.36-2.36-.16-.96.25-1.08,1.35-.53,2.02,1.14,1.42,4.07.76,5.54.27-.47-.27-.94-.53-1.41-.8.1.35.13.72.2,1.07l.11-.86c-1.83,2.77-2.98,7.09-7.03,7.05-.58,0-.73.9-.14,1.03h0Z" fill="#fff"/><path d="M136.91,114.65c.21-2.67.74-5.33.75-8.02,0-1.33-.21-2.64-.39-3.95-.1-.72-.26-1.31-.48-2-.16-.5-.13-.99-.61-1.28-.09-.05-.23-.07-.32,0-.43.33-.39.66-.44,1.17-.08.75-.15,1.32-.05,2.07.18,1.37.38,2.75.44,4.14.06,1.37-.04,2.74-.06,4.11-.03,1.33.15,2.57.38,3.87.09.48.77.32.8-.11h0Z" fill="#fff"/><path d="M135.16,98.84c2.19-1.43,3.44-4.13,3.08-6.73-.17-1.25-.84-2.42-1.49-3.47-.34-.55-.69-1.09-1.03-1.64-.38-.61-.87-1.16-1.12-1.84-.13-.35-.71-.33-.69.09.06,1.19-1.08,2.05-1.88,2.79-.94.87-2.03,1.75-2.47,3-.5,1.43-.2,3.08.35,4.44.62,1.51,1.51,3.04,3.19,3.43.63.15,1.18-.52.85-1.1-1.2-2.09-3.79-4.65-1.95-7.16,1.05-1.43,4.12-3.65,2.5-5.66l-.49.49c.7.89,1.1,2.26,1.41,3.34.28.97.45,2,.53,3.01.07.94.24,1.93.08,2.86-.2,1.15-1.02,2.12-1.77,2.96-.54.61.16,1.67.91,1.18h0Z" fill="#fff"/><path d="M131.93,98.75c-.56,2.31-1.19,4.59-1.47,6.96-.15,1.26-.3,2.56-.24,3.83.04.97.18,2.36,1.16,2.87.81.42,1.66-.27,1.48-1.14-.01-.07-.04-.13-.05-.2-.03-.21.02.17,0,.02-.04-.25-.07-.5-.1-.75.03.22-.02-.36-.03-.46-.01-.26-.03-.52-.03-.78-.04-1.25.05-2.51.15-3.76.19-2.14.24-4.28.43-6.42.06-.74-1.12-.89-1.29-.17h0Z" fill="#fff"/><path d="M23.02,158.49c-.65,0-1.17.22-1.48.84-.24.5-.21,1.09-.02,1.6.45,1.2,1.76,1.99,3.03,1.61,1.17-.35,1.58-1.7.86-2.66-.34-.47-.9-.77-1.48-.79-.69-.02-1.38.55-1.45,1.24-.01.13.1.26.22.29.16.05.3.04.46.05.06,0,.17.01.05,0,.16.02.3.1.47.12.12.01.24.01.27.02.13.03.12.04.15.06-.07-.05.1.09.03.02-.05-.05.06.09.07.12-.04-.07.02,0,0,.03.09-.09-.05-.1.03-.09-.02,0-.08.06-.18.08-.43.06-.77-.24-.96-.62-.07-.14-.12-.33-.11-.38.03-.18.2-.29.39-.38.56-.27.28-1.16-.31-1.15h0Z" fill="#fff"/><path d="M21.97,164.42c-.46,1.16-.21,2.76.54,3.75.91,1.2,2.72,1.18,3.75.1,1.01-1.07.58-2.82-.6-3.58-1.28-.82-3.45-.22-3.38,1.54.01.31.31.59.63.48.62-.21,1.14-.6,1.68-.31.41.22.74.61.31,1-.65.59-1.42.31-1.88-.34-.48-.69-.65-1.65-.42-2.46.12-.42-.48-.56-.63-.17h0Z" fill="#fff"/><path d="M25.03,170.35c-.36.92-.38,2.02.27,2.73.65.71,1.72.78,2.48.21.99-.75,1.26-2.13.73-3.22-.43-.89-1.41-1.62-2.43-1.56-.37.02-.72.12-1.01.36-.19.15-.33.32-.42.54-.06.14-.1.29-.1.44,0,.06,0,.5.03.24.03-.24-.01-.06-.02-.04-.03.11.02.26.05.36.05.2.16.39.31.54.19.19.43.31.69.4.19.06.42-.04.52-.21.06-.1.21-.31.11-.18.07-.09.14-.17.2-.27.05-.08.15-.2-.04.02-.16.09-.32.18-.47.28-.59.2.32-.11.36-.13.04-.02.07-.05.1-.07.15-.1-.05.03-.11.05.2-.06-.3.02-.08.01.18,0-.15-.09-.08-.01.02.02.13.04.17.05.21.04-.19-.11,0,0,.06.03.12.06.18.09.06.03.12.07.17.1.22.14-.16-.15.04.04.02.02.18.19.09.08-.09-.11.05.08.07.1,0,.01.07.14.08.22,0,.01-.01.26-.04.38-.11.43-.39.68-.85.5-.76-.3-.83-1.19-.61-1.92.08-.26-.31-.36-.41-.11h0Z" fill="#fff"/><path d="M28.81,172.45c-.3,1.13-.27,2.55.89,3.19.98.55,2.24.21,3.08-.46.48-.38.83-.88,1.07-1.45.18-.43.33-.87.09-1.31-.2-.38-.63-.71-1-.9-.81-.43-1.77-.33-2.53.16-.84.55-1.14,1.41-.89,2.31.31,1.1,1.8,1.22,2.11.07-.02.07.06-.39.04-.28-.02.15-.23.27,0,.08.1-.08.09-.15.16-.18.22-.11.49-.04.74.12-.17-.29-.33-.58-.5-.87-.04.65-.59,1.42-1.28,1.48-.92.09-.9-.99-.78-1.63.14-.77-.98-1.11-1.19-.33h0Z" fill="#fff"/><path d="M34.23,174.25c-1.74,1.7,1.22,2.98,2.63,2.89,1.11-.07,2.04-.66,2.49-1.69.51-1.16.38-2.66-.74-3.41-2.13-1.41-5.84.94-4.21,3.44.37.56,1.18.81,1.58.12.15-.25.12-.58.16-.85.03-.25.07-.42.12-.48.35-.47,1.11-.61,1.4-.26.66.83-.22,1.78-1.16,1.87-.44.04-2.25-.2-1.6-.97.39-.46-.23-1.1-.67-.67h0Z" fill="#fff"/><path d="M39.69,173.84c-.07,3.21,4.46,1.82,5.48,0,.77-1.37,0-3.43-1.81-2.98-1.56.39-2.89,2.21-2.49,3.8.17.68,1.23.87,1.55.2.3-.62.78-1.3,1.33-1.72.1-.08.28-.12.3-.17.19-.04.14-.05-.17-.03-.1-.01-.17-.06-.2-.13.04-.05.12.36.12.38,0,.09-.07.2-.1.27-.42.89-2.94,2-2.96.37,0-.68-1.04-.68-1.05,0h0Z" fill="#fff"/><path d="M45.41,170.63c-.44.79-.74,1.91.16,2.51.77.51,1.84.19,2.54-.29,2.05-1.39,2.82-4.94.58-6.48-.34-.23-.89-.22-1.23,0-.67.45-1.1,1.22-.92,2.03.1.42.59.69,1,.57.32-.09.53-.3.85-.38-.31-.04-.63-.08-.94-.12.57.3.72.67.68,1.32-.03.6-.21,1.21-.61,1.66-.24.27-.78.7-1.19.6-.39-.09-.11-.69.03-1.02.22-.56-.68-.92-.96-.41h0Z" fill="#fff"/><path d="M48.81,165c-.06.73,0,1.69.75,2.06.68.33,1.46-.05,1.99-.5,1.64-1.38,1.92-3.85.75-5.61-.41-.62-1.07-.74-1.73-.45-1.13.5-2.42,2.66-1.3,3.72.46.44,1.12.14,1.51-.25.23-.23.38-.56.59-.81.22-.27.47-.46.73-.68h-1.78c.91.77,1.07,1.84.42,2.85-.14.22-.47.7-.77.67.06,0-.02-.01-.06-.08-.16-.24-.12-.65-.12-.92.01-.63-.92-.61-.97,0h0Z" fill="#fff"/><path d="M51.45,157.3c-.12.53-.17,1.14.05,1.57.21.41.67.5,1.09.42.07-.01.3-.12.11-.05.17-.06.34-.07.5-.18.21-.14.4-.3.57-.49.44-.48.69-1.03.76-1.67.09-.91-.49-1.93-1.33-2.3-.55-.24-1.1-.23-1.56.2-.4.38-.63.87-.56,1.43.05.37.26.55.4.87.24.56,1.01.5,1.38.18.05-.05.1-.09.15-.15-.08.09.38-.5.18-.23-.15.2.13-.15.18-.23.13-.21-.12.12-.17.16h-1.3c.13.09.27.17.41.24.28.14-.16-.14-.02-.02.04.04.09.07.13.1.04.03.07.08.11.11.13.1-.15-.26-.03-.04,0,.01.05.11.07.12-.07-.18-.09-.22-.05-.12.01.03.02.06.03.09.05.13-.06.11,0-.08-.01.04,0,.12.01.16,0,.05,0,.11,0,.16,0,.16.05-.2,0-.05-.03.1-.06.21-.08.31-.03.13.09-.15,0,0-.03.04-.05.09-.08.14-.02.04-.05.07-.07.11-.09.16.05-.06-.02.03-.06.08-.2.21-.19.32.12-.18.15-.23.08-.15-.01.01-.03.03-.04.04.01.01-.17.12,0,.02-.03.02-.05.04-.08.05-.13.05.06-.01-.02,0-.1.03.11-.02.01,0,0,0,.04.03-.02-.01.06.05,0-.04.03.02,0,0-.03-.09-.03-.11-.05-.27-.02-.55.02-.82.06-.39-.52-.57-.61-.17h0Z" fill="#fff"/><path d="M22.02,162.93c.1.66.38,1.41,1.05,1.67.22.09.48.09.71.02.07-.02.14-.05.2-.09.02,0,.04-.02.06-.03.09-.06-.11.04-.04.01.07-.03.14-.06.2-.09.02-.01.04-.02.05-.03,0,0,.02-.01.03-.02.13-.11.14-.11.03-.02-.09.02-.18.05-.27.07.29.03.5-.21.65-.42.03-.04.06-.08.08-.12,0-.02-.22.21-.21.21.08-.04.15-.12.21-.19.07-.09.12-.19.14-.3.04-.16.06-.33.04-.49-.03-.29-.1-.48-.21-.74.03.07.06.14.09.21-.14-.35-.29-.66-.63-.87-.07-.04-.15-.08-.23-.12-.28-.12-.6-.28-.9-.15-.22.09-.42.19-.54.41-.11.21-.16.45-.09.69.08.27.25.45.48.6.05.04.1.07.15.11-.06-.05-.13-.1-.19-.15.05.04.09.07.13.11.18.16.28.21.51.3-.08-.03-.15-.06-.23-.1.05.02.1.04.14.07.02.01.04.03.06.04.07.04.07.11-.1-.08.03.03.06.06.09.09.12.12-.12-.19-.04-.05.02.03.03.06.05.09.05.07-.07-.2-.05-.11,0,.02.01.04.02.05.01.03.02.07.02.1.05.21.18.33.35.46-.08-.08-.17-.17-.25-.25,0,0,0,0,0,.01-.03-.11-.06-.23-.09-.34,0,.03,0,.07,0,.1,0,.04-.02.18,0,.03.02-.14,0-.01-.01.02-.04.19-.02.3.06.48-.02-.14-.04-.28-.05-.42.04-.17.04-.08,0-.01,0,.01-.02.03-.03.04-.03.06.09-.1.04-.05-.04.04.1-.05.05-.03-.01,0-.03.02-.04.02-.06.04.13-.04.05-.02-.02,0-.03.01-.05.01-.02,0-.04,0-.05.01-.07.02.14,0,.06,0-.03,0-.07,0-.1,0-.07,0,.14.04.06,0-.02,0-.03,0-.05-.01-.02,0-.04-.02-.06-.02.03,0,.12.07.05.02-.02-.01-.07-.06-.09-.06.07,0,.09.08.04.03-.02-.02-.04-.03-.05-.05-.01-.02-.03-.05-.05-.06.03.02.07.11.02.03-.03-.04-.05-.09-.08-.13-.01-.02-.02-.05-.04-.07-.04-.08.04.12,0,0-.02-.07-.04-.13-.06-.2-.02-.07-.03-.14-.05-.21,0-.03-.02-.08-.02-.11,0,.14,0-.03,0-.07-.03-.31-.26-.56-.6-.52-.34.05-.48.34-.44.66h0Z" fill="#fff"/><path d="M37.76,157.72c-.96,0-1.71.72-1.63,1.7.07.83.64,1.7,1.46,1.95.77.24,1.77-.15,2.15-.87.41-.79.01-1.71-.69-2.17-.52-.34-1.18-.34-1.72-.05-.32.17-.44.42-.59.67-.19.33-.3.65-.17,1.02.08.24.32.4.58.33.22-.06.34-.15.53-.29.03-.02.21-.09.22-.13-.27.09-.26.1.04.04.07-.03.14-.06.21-.09-.2.07.03-.01.06,0-.21-.03-.03.01.03.02.07,0,.13,0,.19,0-.22,0-.04-.01.02.02.17.07-.11-.07.04.02.05.03.15.1.05.03.04.03.13.13.05.04.11.11.02.05.03.05.02.07.02.07.01,0,0-.02,0-.03,0-.05-.08.09.04-.02-.04.08,0,.01-.13.09-.15.09.07-.02-.19-.02-.08,0,.11.02-.17-.07-.06-.02.11.05-.15-.11-.04-.02.08.06-.07-.06-.08-.08-.04-.04-.09-.09-.13-.13-.03-.04.06.11-.02-.04-.03-.06-.06-.11-.09-.17-.03-.05.03.15,0-.03-.01-.06-.03-.12-.05-.18,0-.03-.04-.24-.02-.09.01.16,0-.05,0-.08.03-.09-.04.22,0,.03.02-.07-.12.18-.01.03.07-.09-.24.22-.15.15.07-.05-.19.11-.01,0,.07-.01.04-.01-.08,0,.05,0,.09,0,.14,0,1.15.04,1.15-1.79,0-1.79h0Z" fill="#fff"/><path d="M38.91,162.92c-.48-.12-1.05-.19-1.5.07-.45.27-.63.79-.5,1.28.2.8.94,1.49,1.66,1.85.88.44,1.93.37,2.43-.58.6-1.11.72-3.03-.59-3.68-.89-.45-1.85-.04-2.4.73-.26.36-.34.75-.36,1.18,0,.21,0,.46.06.66.04.15.11.3.22.41.33.33-.12-.23.11.18.29.52.94.21,1-.27,0-.05.02-.1.03-.15-.1.13-.2.26-.29.38.32-.2.36-.49.48-.82,0,0,.05-.14.02-.06-.03.09.09-.12.01-.02-.04.06.2-.28.26-.35-.12.16.04-.02.1-.07-.14.13-.04.03.06-.01.12-.05-.19.05-.06.03.04,0,.08-.02.12-.03.03,0,.06-.01.09-.02.17-.07-.21-.01-.03,0,.17.01-.2-.06,0,0,.12.03-.16-.09-.05-.02.04.02.1.1.04.02-.09-.12.13.18,0,.02.1.13.08.11.12.28.04.17.03.38.02.57,0,.13-.04.34-.08.42.04-.09-.11.19-.06.09.04-.08-.08.14.01,0-.02.03-.15.15-.03.04-.06.06-.19.03-.05.03-.05,0-.1,0-.15,0-.08,0,.11.04-.05-.01-.06-.02-.12-.04-.18-.06-.09-.03.08.05-.07-.03-.12-.07-.24-.14-.35-.22.12.09-.03-.03-.07-.06-.05-.05-.1-.1-.15-.15-.05-.05-.09-.1-.14-.15-.12-.12,0,.02-.05-.05-.07-.1-.13-.21-.19-.32-.05-.08.03.16,0-.03-.04-.2,0,.07,0,0,0-.14.02-.06-.02.04.05-.14-.08.11-.1.13.06-.07-.14.12-.01,0,.07-.06-.03.02-.06.02.03,0,.08-.03.11-.03.02,0,.13-.02.04,0-.1.01.07,0,.09,0,.12,0,.23,0,.35.01.71.06.85-1.07.17-1.24h0Z" fill="#fff"/><path d="M40.66,166.96c-.4-.11-.79-.17-1.21-.16-.27,0-.58.15-.7.4-.82,1.7.42,3.84,1.79,4.87.66.49,1.54.78,2.31.37.88-.46,1.27-1.51,1.05-2.45-.21-.92-.9-1.81-1.82-2.11-1.14-.37-2.25.41-2.27,1.62,0,.61.38,1.27,1.07,1.12.28-.06.43-.23.61-.43.03-.03.24-.4.26-.37.03.06-.13.11-.15.11-.02,0-.21,0-.19-.01.07-.04.09.02.1.03.13.1.18.11.31.25.16.18.35.45.3.62-.05.15-.14.12-.23.08-.39-.19-.71-.49-.98-.84-.44-.57-.99-1.51-.7-2.23-.26.2-.52.4-.78.6.29-.03.51-.02.8.03.97.2,1.38-1.23.41-1.5h0Z" fill="#fff"/><path d="M43.13,173.6c-.06,1.29.66,2.78,1.48,3.75.98,1.15,2.59,1.34,3.51-.03.51-.76.41-1.72-.25-2.36-.66-.64-1.94-.82-2.63-.12-.77.79-.31,1.87.8,1.74.16-.02.3-.05.46-.08.04,0,.15.06.15.06-.01,0-.07-.1-.06-.12.06-.1-.07.07-.05.06-.13.04-.05.14-.2.16-.32.06-.91-.91-1.08-1.21-.31-.55-.62-1.22-.61-1.86.02-.99-1.48-.98-1.53,0h0Z" fill="#fff"/><path d="M48.1,178.78c.76,1.23,2.75,2.16,4.13,2.33.72.09,1.44-.1,1.79-.79.39-.75.2-1.8-.43-2.36-1.56-1.37-4.53.42-4.09,2.42.11.51.58.9,1.11.65.4-.2.58-.74.86-1.07.23-.28.93-.92,1.26-.54.74.86-1.2.31-1.47.21-.71-.27-1.79-.73-2.23-1.39-.38-.58-1.3-.05-.93.54h0Z" fill="#fff"/><path d="M55.8,181.32c.81,2.54,5,3.32,6,.48.46-1.3-.48-2.27-1.79-2.24-1.4.03-2.92,1.57-1.89,2.91.19.25.64.27.89.12.52-.33.8-.8,1.31-.99.01,0,.32-.16.16-.1.15-.06.07.26.05.01,0-.01-.06.26-.08.35-.6,2.03-3.44.69-3.89-.75-.15-.48-.92-.28-.76.21h0Z" fill="#fff"/><path d="M62.92,180.5c-.41.69-.68,1.63,0,2.26.55.51,1.41.52,2.1.38.66-.13,1.47-.49,1.86-1.07.6-.89,0-2.07-.99-2.35-1.25-.35-2.87.34-3.43,1.52-.22.47-.18,1.2.38,1.44,0,0,0,0,.01,0-.15-.19-.29-.38-.44-.57.05.18.11.35.2.52.12.23.4.39.66.38.18,0,.32-.05.46-.16.15-.12.22-.27.27-.31-.31.08-.62.16-.93.24h.01c.42.18.98-.11,1.19-.48.09-.16.38-.42.64-.56.06-.03.25-.09.4-.13.02,0,.15,0,.09-.02.02,0,.16.09.17.08-.14.16.08-.28-.02,0,0,0-.11-.28-.05-.18,0,0,.07-.06,0-.02,0,0-.04.06-.03.06.02-.02-.2.13-.26.16-.37.19-.93.33-1.32.22-.16-.04-.25-.08-.29-.23-.06-.25.04-.6.14-.86.17-.49-.56-.77-.82-.34h0Z" fill="#fff"/><path d="M66.59,180.72c-.01.82.25,1.71,1.08,2.02.67.25,1.41.02,2.01-.3,1.14-.59,2.84-1.81,2.38-3.32-.16-.53-.59-.94-1.09-1.16-.69-.3-1.44-.28-2.1.08-.52.28-.54,1.13,0,1.4.13.07.27.12.41.18-.24-.1.17.08.21.09.15.06.28.05.43.09.14.04-.21-.06-.08-.01.08.03.18.03.26.05.07.02.13.04.2.06.08.02.22.12.09.02-.17-.13.02,0,.04.03.13.12-.2-.18-.04-.03.14.14-.12-.18-.05-.07.11.17-.07-.22-.02-.06.01.04.05.22.02.02-.03-.19,0,0,0,.05,0,.2.03-.03.01-.05.01.01-.03.15-.04.17-.01.05-.03.1-.05.15-.06.2.05-.06,0,.03-.07.1-.13.22-.2.33-.02.03-.04.05-.06.08-.06.08.09-.11.02-.03-.05.06-.09.11-.14.17-.09.11-.19.21-.3.3-.05.05-.1.09-.15.13-.01.01-.1.08-.03.03.07-.05-.05.03-.06.03-.12.07-.24.14-.36.2-.03.01-.06.03-.09.04-.08.04.1-.04.02,0-.07.03-.14.05-.21.07-.06.02-.11.03-.17.04-.02,0-.21.03-.1.02.11-.01-.07,0-.1,0-.03,0-.24-.02-.12,0,.11.02-.06-.02-.09-.03-.09-.02.04.02.05.03-.02,0-.08-.03-.09-.05,0,0-.05-.04-.06-.04.06.04.1.07.02,0-.11-.1.03.07-.03-.03-.03-.06-.08-.19-.04-.05-.03-.08-.05-.15-.07-.23-.04-.16-.01.03-.02-.15,0-.11,0-.21,0-.32.02-.83-1.28-.83-1.29,0h0Z" fill="#fff"/><path d="M72.86,176.28c-.7.84-.89,2.12.21,2.73,1,.55,2.23.05,2.86-.81.49-.68.83-1.68.59-2.51-.18-.64-.74-1.09-1.41-1.11-.3,0-.6.07-.86.21-.4.21-.55.55-.71.95-.22.56.34,1.21.9,1.19.15,0,.3,0,.46-.02.11-.02.16-.03.25-.06.19-.06-.01,0-.09,0-.13,0-.28-.05-.39-.11-.27-.17-.09-.07.08.05-.37-.29-.02.04-.18-.16-.15-.19.09.05-.06-.1-.1-.1-.01-.05,0,.04,0,.04.02.09.03.13.04.13,0,0,0-.07,0,.06,0,.12,0,.19,0,.11,0,.23-.02.34.02-.21-.03.12-.05.18-.02.06-.09.27-.07.22.02-.04-.09.15-.13.21.08-.1-.14.1-.21.13-.11.05-.22.09-.34.09-.74.01-.51-.84-.28-1.24.21-.36-.32-.8-.6-.46h0Z" fill="#fff"/><path d="M76.75,170.35c-.71.69-1.11,1.69-.95,2.68.15.88.94,1.53,1.83,1.21.49-.18.87-.58,1.22-.96.45-.49.75-1.17.56-1.84-.41-1.42-2.36-1.73-3.28-.63-.69.83-.05,2.03,1.05,1.8.13-.03.09,0-.02,0,.15,0,.31-.02.45-.06.05-.01.13-.03.17-.05.13-.06-.2.01-.07.01.15,0-.26-.06-.05-.01.01,0,.13.02.14.03,0,0-.25-.13-.27-.15-.09-.13-.11-.16-.07-.09.03.05.02.04-.01-.03,0-.02-.07-.25-.04-.14.02.08.06-.14,0,.06-.02.07-.05.18-.08.23-.03.05-.09.1-.14.15,0,0-.18.15-.11.1.07-.05-.06.03-.07.03-.12.01.18-.05,0-.01.09-.02.15-.02.24,0-.11-.02.04.01.07.03.03.02.06.05.09.07-.05-.05-.05-.05,0,0,.02,0,.04.07-.01-.03-.05-.09.04.14.01.03-.01-.05-.03-.1-.04-.15-.02-.09,0-.06,0,.01,0-.05,0-.1,0-.14,0-.06,0-.13,0-.19.01-.13-.02.11,0-.02.03-.12.06-.25.11-.36-.02.04.09-.16.12-.21.08-.12.13-.19.23-.29.69-.72-.38-1.8-1.1-1.1h0Z" fill="#fff"/><path d="M76.78,167.18c-.6.75-.99,1.8-.27,2.62.55.63,1.5.7,2.22.33.9-.45,1.41-1.61,1.45-2.57.02-.63-.25-1.26-.79-1.61-.74-.47-1.72-.17-2.15.57-.37.64.1,1.45.84,1.46.14,0,.58-.09.63-.05,0,0-.59-.04-.15.02.35.05-.07-.02-.15-.06.12.06,0,0-.05-.04.15.14-.05-.11,0,0,.03.07,0-.11.02.05.01.14,0,0,.01.1,0,.28,0,.4-.17.62.07-.09-.03.03-.04.05-.04.04-.08.08-.13.12.14-.11-.25.09-.05.03-.04.01-.08.02-.12.04-.18.05.1,0,0,0-.05,0-.1,0-.14,0-.13.02.08.03.01,0-.04-.02-.09-.02-.13-.04.08.03.11.02.01,0-.07-.02.13.01,0,0-.02,0-.06-.06-.07-.07.17.2,0,0,.02,0-.02-.05-.02-.03.03.06,0-.02,0-.04-.01-.05,0-.02,0-.04-.01-.05.01.09.02.11.01.05,0-.04.02-.18,0-.02,0-.05.02-.09.03-.14.08-.22-.03.05.03-.07.07-.15.17-.29.28-.43.5-.66-.64-1.55-1.16-.89h0Z" fill="#fff"/><path d="M79,162.53c-.95.92-1.14,1.96-.29,3.01.23.28.65.26.94.12,1.96-.93,2.24-4.28.21-5.28-.75-.37-1.66.08-1.67.96,0,.59.33,1.34,1.01,1.43.6.07,1.08-.65,1.17-1.13-.54.22-1.09.44-1.63.66.76.43.96,1.54.13,2.02.31.04.63.08.94.12-.33-.37-.07-.59.21-.89.64-.68-.35-1.67-1.02-1.02h0Z" fill="#fff"/><path d="M79.05,158.12c-.05.62-.07,1.16.26,1.71.13.22.46.34.69.18.69-.46,1.28-.92,1.26-1.83-.02-.93-.66-1.75-1.64-1.76-.29,0-.59.26-.57.57.04.45.16.89.38,1.29.14.25.34.63.05.85.23.06.46.12.69.18-.26-.38-.23-.76-.22-1.2.02-.6-.87-.58-.92,0h0Z" fill="#fff"/><path d="M80.03,156.14c-.16-.18-.38-.36-.65-.33-.14.02-.25.08-.33.19-.1.13-.1.3-.06.45.05.21.34.29.49.13,0,0,.05-.05.05-.05-.04.03-.05.04-.02.02.02-.02.05-.04.07-.06.05-.04,0,0-.02.01-.06.03-.15.04-.19.03.03,0-.09-.04-.02,0,.07.04-.02-.03,0,0,.04.05.09.1.14.15.13.16.41.14.54,0,.15-.16.14-.38,0-.54h0Z" fill="#fff"/><path d="M89.48,157.88c.02-.17-.03-.63.08-.76.34-.4.09-.92-.41-.98-.95-.11-1.6.51-1.88,1.37-.27.85-.1,1.75.25,2.53.18.4.68.49,1.06.43.57-.1,1.15-.3,1.48-.8.32-.49.24-1.05.18-1.52-.09-.67-.67-1.4-1.46-1.11-.45.17-.83.38-1.03.85-.09.21-.12.41-.09.64,0,0,.09.43.06.23.09.7,1,1.34,1.58.65.15-.18.25-.37.39-.55-.13.13-.26.26-.39.39-.07.02-.14.04-.21.05-.33-.19-.66-.38-.99-.57,0,0,.25.35.23.36-.06.02,0-.25,0-.23.08-.11.17-.21.25-.32-.09.06-.11.07-.07.03-.11-.01-.31.08-.42.1.35.14.71.29,1.06.43-.33-.69-.16-1.47.41-1.98-.14.06-.27.11-.41.17.06,0,.12-.01.19-.02-.06-.05-.13-.1-.19-.14.04.25.04.5.04.75,0,.19.27.18.29,0h0Z" fill="#fff"/><path d="M90.68,163.12c-.13-.62-.44-1.12-.71-1.68-.15-.29-.58-.47-.89-.36-1.83.62-2.27,4.19-.1,4.68,1.09.25,2.13-.77,2.38-1.76.3-1.19-.27-2.58-.89-3.57-.37-.59-1.45-.75-1.78,0-.54,1.22-.52,2.26-.03,3.47.15.38.74.47.86,0,.21-.82.55-1.68.95-2.43-.54.07-1.08.14-1.62.21.4.44.74.97.87,1.56.06.25.1.51-.06.73-.1.14-.21.13-.32.24-.04.04-.09-.19.13.03-.08-.09-.19-.46-.19-.73,0-.47.23-.79.56-1.11h-1.12c.32.29.58.65.74,1.06.29.75,1.38.47,1.22-.34h0Z" fill="#fff"/><path d="M89.59,167.52c-.7.95-.69,2.26-.22,3.31.42.94,1.39,1.76,2.49,1.42,1.18-.36,1.81-1.66,1.4-2.8-.39-1.08-1.57-2.16-2.78-1.72-.61.22-.74,1.22,0,1.38.44.1.96.39,1.2.79.17.28.18.86-.3.85-.31,0-.53-.53-.61-.8-.13-.43-.15-1.03.14-1.41.74-.95-.59-2.01-1.32-1.02h0Z" fill="#fff"/><path d="M91.8,173.17c-1.15,1.64-.38,4.29,1.76,4.51,1,.1,2.16-.37,2.45-1.42.32-1.16-.61-2.08-1.64-2.38-.46-.13-.86.1-1.12.46-.33.45-.37,1.33.13,1.71.56.42,1.05-.15,1.43-.5-.32.09-.64.17-.97.26.08.02.3.08.36.08-.01,0,0-.15.04-.15-.08,0-.26.13-.39.14-.16.01-.32,0-.46-.09-.59-.36-.46-1.28-.14-1.77.6-.91-.84-1.72-1.45-.85h0Z" fill="#fff"/><path d="M96.17,178.09c.43.99,1.27,1.8,2.4,1.78,1.11-.02,1.96-.74,2.62-1.55.24-.29.27-.59.12-.93-.4-.89-1.28-1.46-2.26-1.12-.97.34-1.23,1.36-.75,2.21.12.21.49.3.66.09.43-.55.64-.8,1.15-.25-.07-.25-.13-.5-.2-.74-.21.51-.79.99-1.35,1.02-.7.03-1.08-.56-1.34-1.13-.33-.73-1.38-.1-1.07.62h0Z" fill="#fff"/><path d="M102.82,178.41c.2,1.33,1.03,2.46,2.49,2.37,1.36-.09,2.53-.98,3.29-2.05.23-.33.13-.87-.15-1.14-.81-.78-1.99-.99-2.98-.39-.89.54-1.65,2-.64,2.79.24.19.51.25.79.1.44-.23.6-.56.92-.91.28-.31.43-.37.77-.12-.11-.43-.22-.85-.34-1.28-.33.64-.88,1.34-1.59,1.57-.93.3-1.34-.43-1.54-1.23-.17-.69-1.14-.38-1.04.29h0Z" fill="#fff"/><path d="M109.72,180.19c1.03.07,2.29-.52,3.09-1.14,1-.77,1.34-2.22.1-2.97-2.2-1.34-5.06,1.01-4.62,3.41.11.61.46,1.16,1,1.48.74.45,1.55.29,2.25-.14.65-.4.6-1.55-.23-1.73-.11-.02-.23-.05-.34-.09.21.07-.11-.05-.14-.07-.27-.11-.23,0-.1-.04-.26.07,0-.31-.02.03-.02-.02-.04-.03-.05-.05.11.16.13.19.06.08.06.09.08.25.03.05.09.39.01-.34-.02.05.02-.11.03-.22.05-.34-.03.17-.03.21-.01.11.02-.08.04-.15.05-.23.01-.05.13-.33.01-.07.03-.08.07-.15.11-.22.14-.24.23-.37.49-.49-.13.06.34-.07.18-.06.06,0,.42.06.42.07-.06.09-.19-.35-.16-.32-.03-.04-.05.06,0,.01-.05.06-.1.22-.14.29-.39.7-1.19,1.42-2.03,1.48-.57.04-.58.86,0,.89h0Z" fill="#fff"/><path d="M114.61,177.08c.62.41,1.35.57,2.03.21.06-.03.16-.09.19-.15.13-.19-.19.05.05-.06.18-.08.31-.13.46-.28.54-.55.43-1.37-.08-1.89-.94-.96-2.43-.99-3.44-.12-1.08.94-1.02,2.38-.49,3.58.24.55.92.67,1.44.59.74-.13,1.71-.54,1.95-1.33.05-.15-.03-.36-.18-.43-.57-.28-1.18-.48-1.77-.7l.89.89c-.03-.09-.05-.19-.07-.28,0,.12,0,.1,0-.05,0-.08.03-.55-.03-.24.01-.07.03-.14.05-.21-.07.15-.07.16,0,.04.08-.12.07-.11-.03.03.09-.08.09-.09.01-.02-.08.06-.07.06.03,0-.16.06-.17.07-.03.02.14-.03.13-.03-.04,0,.07,0,.14-.02.21-.02.07,0,.15,0,.22,0-.12-.02-.1-.02.05,0,.17.03.38.06.52.09-.18-.14-.36-.28-.55-.42.16.24.29.5.5.7-.03-.1-.05-.2-.08-.3-.18.87-1.2.6-1.77.29-.06-.03-.11.05-.05.09h0Z" fill="#fff"/><path d="M117.65,172.96c-.32.61-.61,1.38-.2,2.02.39.6,1.16.66,1.79.48.6-.17,1.16-.52,1.61-.95.1-.09.19-.19.27-.3.07-.09.14-.18.21-.27-.18.24.06-.07.12-.17.19-.3.31-.63.33-.99.09-1.12-1-2.36-2.16-1.85-.23.1-.43.44-.4.69.04.33.13.55.36.79.09.1.07.08-.01-.03.06.08.12.17.19.24.07.05.13.1.2.16-.04-.03-.08-.06-.12-.09,0,0,.11.1.12.11.13.11-.07-.14-.03-.04.01.03.04.08.06.11.08.09-.07-.23-.02-.04.04.17,0-.1,0-.07,0,.03,0,.1,0,.13.01.17-.03-.06.02-.08-.01,0-.03.13-.04.15,0,.04-.07.2-.01.05.05-.15-.01.02-.03.05-.02.04-.06.07-.07.11.07-.18.06-.08-.01,0-.07.08-.15.15-.23.22-.03.03-.07.06-.11.09-.08.07.15-.1-.02,0-.18.12-.36.21-.54.31-.12.07.18-.06.02-.01-.05.01-.09.03-.13.05-.02,0-.26.06-.26.06,0-.03.25-.01.07-.01-.04,0-.08,0-.11,0-.13.01.05.01.1.02-.04,0-.07-.01-.1-.03-.01,0,.22.1.13.05-.08-.05.11.09.1.08-.11-.11.09.15.05.07-.04-.07.07.23.03.07-.02-.07.02.03,0,.05.02-.03-.05.13,0,0,0-.01,0-.04,0-.05.03-.09.04-.05-.01.07.02-.04.02-.11.03-.16.02-.07.04-.13.06-.2,0-.03.02-.05.03-.08-.06.18.01-.02.02-.05.18-.38.11-.84-.28-1.06-.35-.21-.86-.09-1.06.28h0Z" fill="#fff"/><path d="M122.23,171.27c.07-.27.17-.53.25-.8.08-.26.11-.54.18-.8.11-.4-.17-.8-.57-.85-.37-.05-.81.25-.77.67.03.29.08.57.24.82.12.18.31.3.47.45.15.15.43.09.48-.13.08-.32.04-.66.15-.97l-1.25.16c.04.09-.04.43-.06.55-.03.25-.07.5-.09.75-.03.55.82.66.96.13h0Z" fill="#fff"/><path d="M122.68,165.92c-.54.7-1.16,1.77-.34,2.52.67.62,1.73.36,2.46.02,2.12-.97,2.94-3.65.94-5.26-.55-.44-1.13-.43-1.68,0-.72.57-1.33,1.53-.79,2.43.47.78,1.4.78,2.17.54.72-.22,1.36-.64,1.71-1.33.52-1.05.17-2.03-.78-2.61-.26-.16-.53.05-.55.32-.03.29-.15.57-.15.88,0,.21.05.39,0,.57-.07.25-.2.22-.42.33-.05.03-.29.02-.09.02.2,0-.03.05-.05-.01-.01-.03.03,0,.04.03-.09-.19.17.33.16.3.04.15-.05.58-.05.58,0,0-.14.12.03-.03.16-.14.03-.04.21-.15-.48-.06-.96-.12-1.44-.19.28.26.52.44.66.73-.1-.21.04.27.02.1-.02-.15-.06.35,0,.07-.06.28-.3.63-.6.85-.1.08-.52.31-.46.28-.21.09-.44.15-.45.11-.05-.17.42.42.41.42-.02.1-.02.1,0,0,.02-.06.04-.12.06-.18.06-.13.14-.25.21-.37.45-.74-.68-1.68-1.24-.96h0Z" fill="#fff"/><path d="M127.16,160.46c-.35-.11-.72-.13-1.08-.05-.29.07-.58.23-.73.49-.08.14-.14.29-.18.45-.16.62.39,1.11.99.99.17-.03-.22.02.02,0,.17,0,.33-.04.48-.13.03-.02.07-.04.1-.05-.14.06-.16.07-.07.04.1-.02.07-.02-.08,0,0,0,.39.03.07-.02.25.04.46.04.69-.09.19-.11.36-.32.41-.53.11-.49-.15-.94-.62-1.1h0Z" fill="#fff"/><path d="M111.97,155.92c-1.05-.7-2.73-.52-3.22.78-.45,1.18.2,2.57,1.23,3.22,1.57.99,3.54-.71,3.06-2.43-.32-1.13-1.75-1.64-2.76-1.07-.25.14-.47.47-.44.77.05.44-.12,1.07.46,1.24.53.15.94-.41,1.19-.79l-1,.41c.24.04.47.06.72.04.28-.02-.07-.01.07,0,.09.01.19.12-.02-.02.21.14-.1-.12,0,0,.11.12-.13-.19-.04-.05.12.18-.04-.1-.01-.04.05.12-.03.18,0-.05,0,.04,0,.09,0,.14-.02.15.09-.24,0-.01-.01.04-.04.1-.04.14-.02.16.07-.23,0,0-.02.05-.06.08-.08.13.11-.23.08-.06,0-.01-.06.04-.22.13.02,0-.03.02-.12.06-.15.09,0,.01.21-.06.02-.02-.18.04.22-.02.05,0-.25.02.15.02-.02,0-.09-.01-.17-.1,0,.01-.04-.03-.27-.18-.09-.04-.06-.05-.12-.1-.17-.16-.11-.11-.22-.21-.32-.46.02.05-.04-.16-.04-.19.02.16.03-.29,0-.1,0-.01.07-.27.03-.14.05-.1.09-.2.12-.3.03-.1.04-.11.02-.04.05-.09.1-.16.25-.2.19-.05.43.04.6.12.66.3,1.18-.57.57-.98h0Z" fill="#fff"/><path d="M112.36,160.17c-1.36-.3-2.5.57-2.6,1.96-.09,1.22.76,2.51,1.99,2.73,1.26.23,3-.63,3.07-2.04.05-1.07-.91-1.95-1.91-2.09-.65-.09-1.31.14-1.7.68-.24.33-.34.71-.34,1.12,0,.2.01.42.06.61.08.3.3.46.44.71.35.64,1.18.27,1.25-.34-.13.2-.11.19.06-.05.05-.09.08-.18.11-.28.06-.21.05-.26.07-.35.05-.22-.06.14.01-.06.02-.06.1-.11.11-.18-.02.09-.14.15-.15.15.05-.03-.22.14-.01.02-.06.04-.24.09-.05.02-.1.04-.23-.03-.04,0,.15.03.11.04-.01-.01.03.01.25.16.11.05-.14-.1.06.06.08.09-.07-.11-.09-.14-.02,0-.1-.2-.04,0-.06-.23.02.23.02-.04,0,0-.01.04.03-.13.07-.11.02.01-.26.18-.06.07-.17.1-.32.19-.48.24-.14.04-.19.07-.34,0,.19.1-.06-.04-.07-.06.15.15-.04-.04-.06-.07.12.17-.05-.08-.07-.12-.11-.21,0,.04-.06-.13-.06-.22-.12-.58-.04-.77-.03.06.02-.07.13-.15-.11.08.09-.05.02-.02.1-.05.21-.07.32-.07.73-.05.98-1.17.18-1.34h0Z" fill="#fff"/><path d="M114,164.36c-1.44,1.28-1.18,3.62-.03,4.99,1.19,1.43,3.58,1.51,4.57-.24.8-1.44-.33-3.04-1.62-3.68-.67-.33-1.57-.54-2.26-.12-.35.21-.67.58-.78.98-.1.34.03.52.09.85-.08-.46-.03.17,0,.27.12.78,1.14.56,1.37,0,.03-.05.06-.11.09-.16-.16.12-.32.25-.49.37.12-.04.25-.08.37-.14,0,0,.24-.14.11-.08-.15.07.17-.05-.02,0-.18.05.26-.04.29-.04,0,0-.07-.02.05.02.23.09.12.02.32.12.22.11.46.33.52.42.04.06.08.13.11.19-.08-.21.01.15-.01,0,0,.02.05-.05-.04.01-.43.31-.82.22-1.18-.3-.4-.58-.7-1.59-.16-2.17.79-.86-.41-2.06-1.28-1.28h0Z" fill="#fff"/><path d="M117.76,170.08c-.88,1.33-.11,2.81,1.12,3.59,1.28.82,2.93.82,4.05-.28.94-.93.8-2.54-.57-2.96-1.4-.42-2.67,1.11-1.97,2.41.14.26.5.28.7.09.13-.12.21-.28.34-.41.12-.1.12-.11,0-.03.1-.04.21-.08.31-.13.29-.14-.15.08.12-.05-.11.02-.11.02,0,.01.12,0,.11,0-.01,0,.15.14-.11-.09-.13-.14.08.18-.02-.09-.02-.1-.11-.04.21-.13-.05.03-.14.09-.23.24-.38.33-.94.54-3.03-.51-2.38-1.71.4-.73-.66-1.34-1.11-.65h0Z" fill="#fff"/><path d="M123.88,172.52c-.82.88-1.08,2.15-.35,3.18.7,1,1.94,1.47,3.13,1.18,1.07-.27,2.04-1.12,2.08-2.27.04-1.22-1.08-2.17-2.27-2.15-.57.01-1.25.53-1.17,1.17.07.53.15.91.47,1.34.35.49.99.5,1.34,0,.23-.33.35-.66.5-1.03-.48.27-.96.55-1.44.82.39.08.53.06.8.15-.11-.04-.13-.13-.05,0-.05-.07-.06-.13-.09-.21-.06-.12.15-.1-.03-.02.08-.04-.09.1-.11.12-.16.14-.39.24-.59.28-.79.14-1.63-.65-1.03-1.38.66-.81-.43-1.97-1.17-1.17h0Z" fill="#fff"/><path d="M129.3,174.11c-.37.69-.52,1.5-.06,2.19.4.6,1.14.86,1.83.84,1.83-.05,2.91-1.55,3.08-3.25.03-.31-.19-.6-.43-.76-.47-.3-.81-.3-1.32-.17-.39.1-.63.62-.39.97.24.35.45.52.83.72-.14-.25-.29-.51-.43-.76,0,.44-.13.83-.44,1.13-.2.2-.56.34-.71.35-.09,0-.17,0-.26,0-.03,0,.04.02-.13-.02-.08-.02-.07-.04-.11-.05-.05,0-.02,0-.02-.03,0,0,.05.12.04.12,0,0-.03,0,.01-.08.05-.09.04-.1.12-.25.62-1.04-1.04-2-1.61-.94h0Z" fill="#fff"/><path d="M135.12,172.06c-.98.3-1.83,1.09-1.61,2.2.19.95,1.08,1.58,2.03,1.59,1.16.02,2.24-.76,2.74-1.78.26-.53.34-1.14.15-1.7-.23-.66-.86-.95-1.51-1.07-.7-.14-1.01.69-.47,1.11.08.06.15.13.21.21-.07-.26-.09-.3-.05-.11.05.2.14.35.22.54.07.15.09.27.06.44-.08.55-.74.96-1.25,1-.33.02-.73-.12-.85-.46-.14-.43.3-.71.64-.84.68-.26.42-1.34-.31-1.12h0Z" fill="#fff"/><path d="M138.33,169.02c-.68.42-1.34,1.05-1.34,1.91,0,.74.54,1.33,1.21,1.58.68.25,1.44.08,1.99-.37.62-.52,1.08-1.5.97-2.31-.08-.63-.43-1.11-.96-1.45-.62-.4-1.57-.49-2.08.14-.25.31-.39.77-.15,1.13.16.24.34.42.59.57.13.07.26.13.4.17.02,0,.19.03.2.05-.14-.07-.17-.08-.1-.04.03.02.07.04.1.06,0-.02-.2-.16,0,0,.03.02.18.17.06.04-.11-.12,0,.03.03.07-.11-.17-.03-.06-.01.04-.05-.22-.02.04-.01.08.02.21.08-.11.02-.04-.04.04-.07.12-.09.17-.08.14.07-.02-.04.05-.03.02-.2.14-.03.04-.04.03-.09.05-.13.08-.06.03.15-.05-.02,0-.12.03-.07,0,.02,0-.05,0-.12,0-.17,0-.14.02.1.03.02,0-.05-.02-.11-.03-.16-.04-.1-.02.16.06.02,0-.06-.02-.15-.13,0,0-.04-.04-.07-.07-.11-.11.05.05.08.12.02.02-.04-.08.04.17.01.03-.03-.16-.02.18,0,0,.01-.15-.07.15,0-.01,0-.02.06-.18.02-.08-.04.1.04-.07.06-.09.13-.18-.1.09.07-.09.12-.12.24-.22.38-.32.79-.53.08-1.8-.76-1.29h0Z" fill="#fff"/><path d="M139.51,164.57c-.36.3-.75.67-.88,1.13-.13.44.07.89.47,1.1.67.36,1.61.05,2.17-.38.09-.07.18-.14.25-.22.06-.07.12-.14.17-.21,0-.01.02-.03.03-.04.07-.09,0,.04-.05.07.21-.12.35-.51.43-.72-.07.12-.14.25-.22.37-.18.14-.2.15-.06.04.1-.06.17-.14.23-.25.09-.15.12-.29.13-.47,0-.05,0-.1,0-.15,0-.19-.03-.38-.08-.57-.12-.45-.35-.89-.65-1.24-.17-.19-.44-.29-.68-.33-.28-.04-.49.03-.75.14-.29.12-.53.34-.75.56-.33.33-.44.93-.17,1.34.25.39.78.69,1.25.51.17-.06.34-.13.5-.22.03-.02.08-.04.11-.06-.17.07-.21.08-.13.06.03-.01.07-.02.1-.03l-1.15-.3c.13.1.26.2.39.29.03.02.06.04.09.06.16.1-.11-.08-.11-.09.01-.01.24.23.27.25.08.08-.1-.12-.1-.12,0,0,.05.07.05.08.02.04.04.08.06.11.07.11-.1-.25-.03-.07.06.16.12.28.23.41,0,0,0,0,.01.01.23.18.24.18.03.02-.07-.12-.14-.25-.22-.37.01.03.01.06.02.09.03.07,0-.23-.02-.11,0,.03,0,.06,0,.08,0,.14,0-.03.01-.07-.04.11.1-.13.04-.07-.02.02-.04.06-.05.08-.05.08.13-.14.04-.05-.03.02-.05.05-.08.08-.02.02-.04.04-.06.06-.09.09,0-.02.05-.04-.06.02-.12.08-.17.11-.05.03-.11.06-.17.09-.11.06,0-.02.06-.02-.03,0-.07.03-.1.04-.06.02-.11.04-.17.05-.03,0-.05.01-.08.02-.01,0-.03,0-.04,0-.1.02.09-.01.1-.01-.04-.01-.11,0-.16,0-.02,0-.05,0-.07,0-.12,0,.04,0,.07.01-.06-.03-.22-.09.02.03-.15-.08.08.08.02.03.06.06.08.09.1.18-.04-.13,0,.2.01.04,0,.06-.02.19,0,.07.02-.11-.02.05-.02.05.04-.06.08-.13.11-.19.08-.13-.08.09.01-.02.04-.04.07-.09.11-.13.09-.1.19-.19.29-.28.24-.22.22-.63,0-.86-.25-.25-.6-.21-.86,0h0Z" fill="#fff"/><path d="M141.94,161.51c-.15.54-.24,1.14.08,1.63.13.21.33.35.57.43.12.04.24.06.37.07.05,0,.09,0,.14,0,.02,0,.05,0,.07,0,.18,0-.24,0,.06,0,.33,0,.66-.08.97-.22.37-.17-.49.1-.06.02.09-.02.11-.02.18-.04.12-.04.23-.1.33-.17.1-.07.19-.18.3-.23-.22.11-.1.09-.04.06.09-.05.19-.13.26-.2.52-.45.94-1.11,1.09-1.78.26-1.18-.43-2.72-1.73-2.93-.51-.08-1.01.01-1.34.46-.31.41-.36.96-.1,1.41.06.12.15.23.24.33.07.09.07.08,0-.01-.14-.2.04.07.06.1.09.14.19.27.3.4.16.19-.15-.28-.06-.08.02.04.04.07.06.11.06.12.04.07-.06-.16,0,.04.04.13.05.17.01.06.02.12.03.17.06.21,0-.32-.02-.11,0,.03-.02.22,0,.24-.04-.05.08-.34,0-.08-.03.12-.07.24-.11.35.11-.35-.06.09-.11.19.05-.1-.28.57-.08.17-.06.08-.05.07.04-.05-.04.05-.08.1-.11.15-.04.06-.24.42-.21.42-.03,0,.29-.35.05-.15-.09.08-.17.17-.26.25-.02.02-.04.03-.06.05-.15.18-.14.19.03.02,0,0-.12.07-.12.08-.09.04-.07.05-.13.06,0,0-.04.03-.13-.02.02.01-.03-.01-.06-.12-.1-.31-.09-.63-.06-.95.02-.24-.35-.28-.41-.06h0Z" fill="#fff"/><path d="M33.3,177.42c-1.25-.72-2.54-.49-3.79.08-1.18.53-2.62,1.48-2.87,2.85-.23,1.26.72,2.48,1.98,2.62,1.33.15,2.68-.7,3.7-1.46,1.01-.76,2.44-1.83,2.81-3.1.11-.37-.19-.75-.57-.75-.2,0-.36-.07-.54-.14-.27-.1-.62.12-.68.39-.28,1.29-.1,2.79,1.09,3.57.85.56,1.98.58,2.91.22.86-.33,1.72-1.12,1.83-2.09.19-1.62-1.33-2.5-2.61-3.03-1.03-.43-1.75,1.3-.76,1.8.45.23.97.54,1.33.82.16.13.32.27.45.42.09.1.03,0,.06.11.05.2.09.17-.11.34-.2.19-.43.33-.7.42-.54.19-1.22.21-1.7-.14-.72-.51-.72-1.53-.7-2.32-.23.18-.47.36-.7.53.19.04.36.08.53.18-.07-.27-.14-.54-.21-.81-.62.92-1.42,1.73-2.31,2.39-.69.52-2.22,1.65-3.15,1.1-1-.6.4-1.72.92-2.05.58-.37,1.19-.61,1.84-.82.55-.17,1.06-.54,1.64-.4.44.11.72-.51.31-.75h0Z" fill="#fff"/><path d="M32.87,182.07c-1.08.73-2.36,1.53-2.97,2.73-.69,1.34-.01,2.52,1.45,2.79,1.46.27,2.58-.67,3.18-1.93.31-.66.54-1.34.67-2.06.13-.72.33-1.41.23-2.13-.14-1.02-1.55-.77-1.83,0-.7,1.91.8,4.22,2.91,4.1.7-.04,1.63-.17,1.94-1.11.44-1.3-.32-2.89-1.45-3.54-.71-.41-1.54.26-1.35,1.04.2.84.89,1.52,1.09,2.22.01.04-.05,0,0,0-.15,0,.06,0,.05-.01.02.02-.19-.05-.25-.08-.81-.33-1.61-.98-1.21-1.89-.59-.16-1.18-.32-1.77-.48.03.41.16.8.17,1.21,0,.49-.12,1.02-.26,1.49-.22.75-.7,1.81-1.63,1.79-1.19-.02-.73-.67-.28-1.31.54-.78,1.17-1.47,1.84-2.14.34-.34-.11-.96-.53-.68h0Z" fill="#fff"/><path d="M33.37,187.39c-1.09,1.26-2.9,3.65-1.94,5.39.47.86,1.67,1.17,2.58.94.89-.23,1.42-1.01,1.62-1.87.23-.98.15-2.07-.08-3.05-.16-.68-.95-2.45-1.88-1.57-.6.57.14,1.88.31,2.54.16.64.42,1.86-.11,2.41-.25.26-.8.29-1.1.11-.41-.23-.33-.77-.26-1.17.19-1.17.74-2.34,1.34-3.35.17-.29-.25-.63-.48-.37h0Z" fill="#fff"/><path d="M105.71,180.17c-2.1.99-3.94,2.47-4.87,4.64-.11.27-.14.63.11.84,2.61,2.19,6.03-1.47,6.55-3.96.18-.85-1.08-1.51-1.49-.63-.71,1.53.88,3.11,2,3.95,1.27.94,3.24,1.71,4.62.55.55-.47,1-1.27,1.01-2.01,0-.9-.65-1.64-1.33-2.15-1.11-.84-3.59-2.23-4.84-.95-.26.27-.31.78,0,1.04.82.69,1.95.8,2.91,1.29.46.24.96.53,1.3.93.09.11.18.23.23.37.04.12.02.05.04-.05-.03.1-.17.25-.24.32-.77.66-2.05-.14-2.69-.64-.72-.56-1.48-1.47-1.5-2.23-.53.07-1.07.14-1.6.22.22.85-.87,1.98-1.43,2.48-.67.59-1.78,1.26-2.57.5l.11.84c.96-1.88,2.46-3.26,4.32-4.23.74-.39.09-1.46-.65-1.11h0Z" fill="#fff"/><path d="M107.76,184.93c-1.15.07-2.4,1.31-3.13,2.11-.83.89-1.72,2.29-.78,3.43.9,1.09,2.22.67,3.07-.23.49-.52.84-1.15,1.22-1.76.3-.46.63-1.02.71-1.57.17-1.1-1.51-1.59-1.7-.47-.21,1.25-.23,2.86,1.02,3.6.91.54,2.08.32,2.93-.22.9-.57,1.7-1.52,1.67-2.64-.04-1.53-1.5-2.97-3.04-2.87-.43.03-.76.49-.51.89.46.76,1.47,1.4,1.64,2.1.05.19.06.3-.07.61-.05.11-.25.37-.42.49-.27.19-.46.27-.77.32,0,0-.21.02-.34,0,.16.01-.27-.1-.13-.03-.2-.1-.26-.16-.34-.45-.12-.43-.04-.91.05-1.34-.58-.08-1.15-.16-1.73-.23-.02.73-.37,1.53-.83,2.15-.2.27-1.11,1.41-1.41.62-.25-.66.86-1.65,1.25-2.03.6-.58,1.43-1.05,1.95-1.69.23-.28.11-.81-.33-.79h0Z" fill="#fff"/><path d="M107.27,191.61c-1.09.71-1.5,1.92-1.27,3.18.18,1.02.81,2.22,1.87,2.53,1.21.36,2.31-.67,2.45-1.83.19-1.53-.62-2.94-1.62-4.01-.75-.8-1.8.21-1.41,1.09.17.37.26.77.46,1.12.22.39.48.75.66,1.17.12.29.38,1.14-.22,1-.51-.12-.8-1.03-.89-1.45-.15-.76-.04-1.52.54-2.08.38-.37-.12-1.04-.57-.74h0Z" fill="#fff"/><path d="M79.06,61.52c-.53.6-.48,1.43-.55,2.19-.07.82-.16,1.64-.24,2.45-.19,1.83-.5,3.63-.57,5.47-.07,2.04.17,4.11.26,6.15.05,1.14.05,2.28.01,3.42-.02.55-.01,1.11.03,1.66.05.61.26.94.46,1.49.15.41.63.56.97.26.4-.37.73-.57.98-1.09.24-.51.4-1.07.5-1.63.2-1.15.2-2.36.2-3.53,0-2.17-.21-4.34-.31-6.52-.08-1.84-.11-3.72-.03-5.56.04-.82.08-1.65.11-2.47.03-.8.12-1.63-.42-2.29-.33-.39-1.07-.38-1.4,0h0Z" fill="#fff"/><path d="M82.14,43.29c.11-.44.11-.49.3-.79.27-.44.27-.92.28-1.42.02-.89-.03-1.76-.25-2.62-.45-1.69-1.54-3.15-3.35-3.45-2.09-.35-4.39.67-5.54,2.46-1.03,1.59-.47,3.99,1.48,4.52.83.23,1.82.09,2.46-.51.87-.8.75-2.03-.02-2.68-.67-.57-1.58-.17-1.66.69.06-.65-.12.36-.11.44.01.26-.02.11.06-.04-.08.17.02.02.08-.05-.06.08-.01.06-.12.06.2,0-.12,0-.16,0,.13.02-.08-.04-.09-.05-.13-.08-.23-.19-.3-.38-.26-.72.43-1.44.97-1.81.65-.45,1.44-.67,2.23-.57,1.22.16,1.72,1.18,1.97,2.28.15.67.28,1.36.35,2.04.09.81.44,1.21.6,1.88.1.41.74.41.84,0h0Z" fill="#fff"/><path d="M82.51,42.78c-.25-1.3.03-2.65.48-3.89.35-.96,1.02-1.9,2.16-1.72.55.09,1.35.42,1.48,1.03.06.26-.02.54-.16.76-.02.04-.18.19-.38.3-.28.16-.36.2-.63.27-.02,0-.46.09-.16.04-.11.02-.19-.06.02.03-.31-.13.3.2.37.33.04.12.08.25.11.37-.02-.15-.04-.31-.06-.46-.1-.42-.41-.85-.85-.98-.9-.26-1.66.6-1.71,1.44-.04.83.45,1.56,1.24,1.82,1.23.4,2.77-.36,3.63-1.22,1.2-1.2,1.28-3.23.16-4.5-1.04-1.19-2.97-1.71-4.46-1.17-3.06,1.11-3.21,5.23-2.35,7.83.23.7,1.23.41,1.09-.3h0Z" fill="#fff"/><path d="M81.7,37.77c.07-6.2.91-12.42.57-18.62-.08-1.52-.36-2.94-.61-4.44-.24-1.45-.12-2.96-.04-4.43.08-1.54.31-3.07.41-4.62.11-1.55.32-3.19.16-4.75-.12-1.24-1.78-1.23-1.92,0-.17,1.52-.15,3.07-.27,4.59-.12,1.54-.21,3.07-.17,4.62.04,1.46.46,2.79.66,4.23.21,1.58.3,3.2.4,4.79.4,6.23-.66,12.4-.62,18.62,0,.91,1.41.92,1.42,0h0Z" fill="#fff"/><path d="M101.04,116.46c-.4-.5-.87-.93-1.38-1.32-.47-.36-1.16-.78-1.75-.47-.15.08-.29.29-.27.47.07.62.62.92,1.14,1.19.52.27,1.01.54,1.46.93.56.48,1.25-.24.8-.8h0Z" fill="#fff"/><path d="M29.14,104.03c-.8,1.11-1.4,3.14-.23,4.24.44.41,1.1.48,1.55.05.45-.43.83-1.69.29-2.14-.17-.14-.42-.22-.62-.08-.34.24-.33.49-.41.87-.03.13-.18.37-.17.45-.01-.1.21-.1.25-.09.08.02.07.06.04.01-.04-.09.02.05-.06-.08-.48-.78-.12-1.87.38-2.63.42-.65-.58-1.21-1.02-.6h0Z" fill="#fff"/><path d="M134.66,99.78c.3.48.51,1,.59,1.57.04.28.01.57.06.85.04.26.15.44.27.67.19.37.66.28.86,0,.78-1.07.11-2.81-.56-3.8-.5-.76-1.72-.06-1.23.72h0Z" fill="#fff"/><path d="M135.52,105.49c.54,0,.54-.84,0-.84s-.54.84,0,.84h0Z" fill="#fff"/><path d="M108.44,116.34c.25.06.54.34.8.45.42.18.86.33,1.29.48.76.26,1.66.7,2.44.35.37-.17.35-.67.12-.93-.52-.59-1.66-.74-2.39-.94-.41-.11-.86-.21-1.29-.2-.43.01-.6.2-.97.36-.18.08-.24.38,0,.43h0Z" fill="#fff"/><path d="M134.13,115.14c.07-.83.74-1.17,1.51-1.07,1,.13,1.21.94,1.24,1.81.02.69.97.81,1.19.16.52-1.54-.78-3.21-2.21-3.65-.71-.22-1.63-.09-2.19.42-.62.56-.73,1.54-.69,2.33.04.75,1.1.74,1.16,0h0Z" fill="#fff"/><path d="M137.76,114.48c.31-.8,1.13-1.11,1.94-1.04.55.05,1.29.24,1.51.81.14.36.46.7.88.67.17-.01.32-.03.46-.13.44-.28.55-.79.33-1.25-1.12-2.33-5.17-1.69-5.69.78-.08.37.42.5.56.15h0Z" fill="#fff"/><path d="M32.57,131.23s-.03-.02-.04-.03c.07.09.14.18.21.27,0-.02-.01-.04-.02-.06-.12-.33-.36-.49-.7-.53-.8-.09-1.94.28-2.16,1.15-.18.7.23,1.39.75,1.83.55.47,1.2.83,1.89,1.03.64.18,1.42.22,1.95-.25.31-.28.44-.71.44-1.12,0-.54-.18-1.3-.55-1.7-.39-.42-1.25-.11-1.19.49,0,.1.02.2.05.3-.03-.11.17.41.07.15.04.09.07.19.11.28.03.08.05.17.08.25.01.05.06.31.04.17-.02-.14,0,.07,0,.1,0,.03,0,.06,0,.09,0,.14-.04-.07.01-.08,0,0-.04.14-.04.14-.02-.02.09-.19.03-.08,0,.02-.04.05-.04.06,0-.06.13-.14.02-.04-.02.02.17-.11.02-.03-.12.07.19-.06.02-.01-.18.05.18,0,0,0-.04,0-.08,0-.13,0-.03,0-.05,0-.08,0-.14,0,.08,0,.08.01-.04.04-.32-.07-.37-.09-.05-.02-.1-.03-.15-.05-.03-.01-.06-.02-.09-.03-.12-.04.17.08.05.02-.13-.06-.26-.12-.39-.2-.11-.06-.21-.13-.32-.2-.06-.04-.11-.08-.17-.12-.11-.07.15.13.05.04-.03-.03-.07-.05-.1-.08-.09-.07-.17-.15-.25-.24-.04-.04-.08-.09-.12-.13-.02-.02-.04-.04-.06-.06-.12-.12.09.15.04.05-.04-.08-.09-.16-.14-.24-.02-.03.07.22.02.04-.06-.21,0,.18,0,.04,0-.18-.05.21-.01.07.05-.17-.11.2-.02.04.07-.11-.17.17-.01.02.09-.09-.04.08-.08.06,0,0,.08-.05.09-.06.02,0,.04-.02.05-.03.15-.09-.16.04-.04.02.08-.02.16-.05.24-.07.21-.05.42-.1.63-.16.23-.07.45-.26.51-.51l.02-.09c-.07.09-.14.18-.21.27.01,0,.03-.02.04-.03.26-.17.29-.56,0-.73h0Z" fill="#fff"/><path d="M32.3,136.36c.74.39,1.61.22,2.26-.26.78-.58.6-1.46-.22-1.93-2.14-1.24-4.03,2.28-2.23,3.67.46.35,1.15.04,1-.58-.08-.36-.02-.91.08-1.24.09-.28.26-.52.53-.59.15-.04.41-.02.53.09.08.07.06.17-.1.33-.44.44-1.22.54-1.78.33-.11-.04-.19.14-.08.19h0Z" fill="#fff"/><path d="M34.13,136.81c-.63.6-1.03,1.57-.51,2.37.51.79,1.54.85,2.29.4.67-.41.96-1.23.53-1.93-.51-.81-1.97-.8-2.11.28.03-.09.05-.19.08-.28-.09.15-.15.32-.21.49-.12.35.29.59.58.45.09-.05.17-.07.27-.1h-.3c.31.08.5-.06.74-.07.05,0,.05,0-.01,0,.08,0,.08,0,0,0-.09-.02.02.02.02.02-.03-.04-.03-.04,0,0,.02.04.02.03,0,0-.01-.04.02,0-.01.05.04-.07,0-.01-.03.01-.05.05-.15.1-.22.13-.27.11-.5.05-.58-.09-.13-.23.11-.58.36-.82.58-.55-.3-1.42-.87-.87h0Z" fill="#fff"/><path d="M36.14,140.71c-.32.56-.5,1.28.01,1.79.21.2.49.31.77.36.3.05.83.01,1.03-.25.12-.15.1-.32-.06-.43-.3-.22-.79-.08-1.1-.3-.06-.04-.07-.09-.08-.15,0-.2.1-.39.19-.56.29-.5-.49-.95-.77-.45h0Z" fill="#fff"/><path d="M50.96,146.8c.96.38,2.04.34,2.93-.22.34-.21.3-.65,0-.87-.48-.35-1.08-.6-1.66-.71-.63-.11-1.21.43-1.08,1.07.04.2.24.4.43.43.2.04.31.01.49-.05.33-.13-.16-.02-.25-.06.14.07.32.07.43-.06.11-.13.16-.28.12-.44-.03-.12.02.02,0,.04-.06.12-.11.25-.17.37.09-.06.18-.14.26-.22-.16.06-.31.13-.47.19.52.01,1.02.21,1.51.35-.07-.28-.15-.56-.22-.84-.57.74-1.33.82-2.2.58-.28-.08-.38.33-.12.43h0Z" fill="#fff"/><path d="M57.21,143.4c-.82.24-1.8.65-2.03,1.57-.19.75.26,1.42.94,1.7.54.22,1.22.21,1.72-.11.26-.17.45-.41.58-.69.17-.35.1-.8.29-1.11.2-.33.07-.79-.26-.98-1.61-.94-4.06-.61-4.49,1.49-.1.51.14,1.17.72,1.27.47.08.87.06,1.27-.23.22-.16.3-.36.25-.62-.06-.34-.29-.62-.51-.88.05.42.11.83.16,1.25.48-.82,1.57-.83,2.43-.97-.23-.06-.46-.12-.7-.18.09.1.1.1.04,0,0,.06,0,.12,0,.19-.02.08-.02.19-.07.27-.05.09-.12.15-.18.18-.09.04-.25.03-.26.03-.11-.03-.1-.03-.11-.04-.03-.01-.22-.13-.09-.05-.05-.03-.08-.1-.13-.13.03.02,0,.05.03.05,0,0-.05-.15-.05-.16,0,.11.02.25-.02.24,0,0,.18-.24.29-.33.22-.17.5-.28.75-.39.78-.34.22-1.61-.58-1.37h0Z" fill="#fff"/><path d="M61.16,142.18c-.63.46-1.09.99-1.31,1.75-.08.26,0,.63.21.81.61.51,1.36.81,2.14.5.37-.14.68-.38.93-.7.24-.3.56-.78.56-1.17s-.27-.79-.56-1.06c-.36-.34-.82-.69-1.43-.5-.61.19-1.07.79-.89,1.45.13.49.59.8,1.09.81-.25-.14-.5-.28-.74-.43,0,.01.01.03.02.04-.04-.14-.08-.28-.11-.42,0,.02,0,.04,0,.06.04.72.85,1.05,1.39.57.05-.05.29-.36.09-.1.06-.08.12-.16.18-.25-.12.12-.25.25-.37.37-.23.1-.25.1-.06.02.16-.07.17-.07.05-.02h-.58c.13.04.25.07.38.11-.24-.08.15.11.19.13-.15-.26-.3-.52-.45-.78.01-.21-.06.08-.1.13-.07.09-.14.16-.23.19.12-.04-.08-.02-.04,0-.1-.02-.19-.07-.27-.14.07.27.14.54.21.81.09-.32.27-.57.54-.76.36-.26.54-.72.3-1.13-.21-.36-.77-.56-1.13-.3h0Z" fill="#fff"/><path d="M65.27,141.77c.79,0,1.67-.37,1.8-1.24.04-.3-.22-.53-.5-.39-.42.21-.82.45-1.3.44-.76-.01-.76,1.19,0,1.18h0Z" fill="#fff"/><path d="M105.53,129.9c-.48.39-.42,1.1-.02,1.52.31.33.75.47,1.19.52.42.04.88-.04,1.2-.33.43-.39.43-1.12-.01-1.51-.22-.19-.52-.25-.79-.1-.25.14-.37.46-.3.73.03.1.15.44.06.18.06.17.01-.15,0-.01,0,.1.04-.19.01-.1.06-.2.07-.14.03-.09.12-.18.1-.12.05-.07-.07.07.15-.11.07-.05-.14.09.13-.03,0,0-.04,0-.11.02-.14.04-.05.03.19-.01.06,0-.03,0-.06,0-.09,0-.06,0-.12,0-.18,0-.13,0,.07,0,.07.01,0,0-.08-.01-.09-.02-.06-.02-.12-.04-.17-.05-.1-.02.13.08.05.02-.02-.01-.05-.03-.08-.04,0,0-.07-.04-.07-.04.02-.03.13.12.05.03-.1-.1.07.15,0-.01-.04-.09.06.16.03.06-.02-.05-.03-.16,0,.07,0-.03,0-.06,0-.08,0,.1-.01.15,0,0,.01-.09,0-.18.01-.27.02-.21-.16-.43-.34-.51-.22-.09-.42-.03-.6.11h0Z" fill="#fff"/><path d="M108.72,131.3c-.48.63-.75,1.54-.08,2.15.59.53,1.52.51,2.24.34.74-.17,1.44-.59,1.76-1.3.51-1.11-.27-2.48-1.51-2.54-1.43-.07-2.93,1.62-1.8,2.88.24.27.64.15.82-.11.2-.29.42-.59.68-.84.11-.1.21-.12.31-.18-.09.05.06.03.03,0-.03-.01-.04,0-.06-.03.12.15.21.27.24.32.02.04.03.04,0,.07.08-.07-.03.03-.05.06.07-.09-.07.06-.07.06-.05.05-.12.1-.25.16-.39.21-.96.3-1.33.21-.19-.04-.06-.05-.21-.09.04.01.02.02.02,0,0,0-.01-.02.04-.15.06-.16.16-.31.26-.45.44-.63-.57-1.19-1.02-.6h0Z" fill="#fff"/><path d="M113.87,132.33c.12.97.7,1.71,1.74,1.66.84-.04,1.78-.54,2.01-1.41.33-1.22-.56-2.23-1.79-2.13-1.25.1-2.4.96-2.82,2.14-.1.28,0,.68.23.87.38.33.8.45,1.29.32.21-.06.35-.25.36-.47,0-.1,0-.46-.14-.5-.11.4-.11.51,0,.31-.04.05-.02.03.06-.06.25-.16.44-.42.68-.61.26-.2.96-.74,1.13-.14.12.44-.57.89-.9.98-.76.23-1.19-.36-1.31-1.04-.05-.3-.58-.24-.54.07h0Z" fill="#fff"/><path d="M118.15,131.71c.09.22.09.45.17.67.1.31.46.49.76.31.46-.28.88-.64,1.09-1.13.21-.48.29-1.18.11-1.68-.18-.48-.51-.71-1.01-.77-.77-.09-1.37.29-1.92.78-.26.23-.42.72-.28,1.06.22.53.7,1.12,1.33,1.03.63-.09.84-.82.8-1.31-.18.31-.36.62-.54.94.16-.1.32-.22.49-.31-.11.05-.02.01.04-.01.12-.04.23-.08.35-.12-.34-.09-.68-.18-1.01-.27.14.16.27.19.28.39.01.24-.21.44-.36.6.27.03.54.07.81.1-.12-.2-.18-.42-.32-.61-.26-.37-.99-.16-.79.33h0Z" fill="#fff"/><path d="M122.85,126.68c.01-.14.02-.28.04-.43.02-.18,0-.32-.1-.48-.13-.22-.46-.22-.59,0-.09.16-.11.3-.1.48.01.14.02.28.04.43.04.46.67.46.71,0h0Z" fill="#fff"/><path d="M54.72,149.79c-.62.54-.39,1.49-.29,2.21.17,1.25.41,2.5.65,3.74.22,1.15.52,2.32.43,3.5-.07.85-.33,1.66-.6,2.47-.34,1.04-.5,2.11-.66,3.18-.3,2.05-.39,4.11-.24,6.18.15,1.99.53,3.95.77,5.92.24,1.96.33,3.87-.1,5.81-.37,1.68-.95,3.31-1.28,5-.42,2.14-.35,4.27-.05,6.42.15,1.08.39,2.15.61,3.22.11.53.22,1.06.33,1.59.11.55.33,1.01.53,1.53.21.54,1.1.68,1.24,0,.2-.91.24-1.67.14-2.61-.11-1-.3-1.98-.46-2.97-.29-1.85-.55-3.71-.35-5.58.18-1.71.75-3.35,1.17-5.01.47-1.86.71-3.7.5-5.61-.22-1.95-.66-3.87-.9-5.82-.12-.97-.21-1.94-.22-2.92-.01-1.04.15-2.02.27-3.05.38-3.27.82-6.5.36-9.78-.21-1.46-.55-2.88-.85-4.32-.12-.57-.24-1.15-.31-1.73-.04-.35-.15-.77-.13-1.11.02-.3-.36-.41-.56-.23h0Z" fill="#fff"/><path d="M55.57,200.16c.58-1.61,2.26-2.5,3.68-3.3.33-.19.53-.73.28-1.06-.32-.43-.46-.98-.71-1.47-.23-.47-.41-.95-.54-1.45-.29-1.09-.36-2.22-.36-3.34,0-2.39.45-4.74.88-7.08.43-2.33.81-4.64.76-7.02-.07-2.93-.64-5.82-1.22-8.68-.33-1.61-.67-3.22-.93-4.84-.13-.83-.25-1.66-.32-2.5-.07-.81-.09-1.65-.36-2.43-.18-.52-.89-.53-1.07,0-.44,1.36-.1,2.96.09,4.35.2,1.48.49,2.95.78,4.42.6,3.01,1.25,6.03,1.35,9.11.16,4.99-1.85,9.71-2.02,14.67-.05,1.3.08,2.63.45,3.89.18.63.43,1.25.73,1.83.33.62.83.98,1.28,1.49l.16-1.21c-.82.55-1.8,1.09-2.41,1.89-.62.82-.69,1.72-.75,2.71,0,.16.21.17.26.03h0Z" fill="#fff"/><path d="M55.04,150.44c-1.85.47-2.19,2.51-2.11,4.15.04.9.15,1.8.28,2.69.06.43.21.95.16,1.38-.07.59-.31,1.11-.36,1.72-.09,1.17,0,2.33-.03,3.5-.03,1.3-.3,2.22-1.02,3.3-.56.84-1.04,1.82-.95,2.85.09,1.09.5,2.1.68,3.17.17,1.03.13,2.18-.06,3.2-.18,1-.37,2.17-.86,3.07-.54.98-1.14,1.73-1.15,2.91,0,.89.48,1.59.65,2.44.38,1.85-.52,3.55-.51,5.38,0,.96.12,1.93.16,2.89.05,1.23.12,2.57-.11,3.79-.21,1.08-.71,1.38-1.76.93-.39-.17-.92.34-.51.66.77.6,1.77,1.07,2.67.44.84-.58,1.11-1.76,1.25-2.71.19-1.27.1-2.58.01-3.85-.06-.83-.22-1.72-.13-2.56.12-1.11.53-2.18.65-3.3.12-1.09,0-2.18-.38-3.21-.37-1.01,0-1.69.52-2.58.56-.94.8-2.01,1.01-3.07.22-1.09.45-2.2.55-3.31.1-1.16-.27-2.24-.57-3.34-.3-1.09-.36-2.1.06-3.16.43-1.1.87-2.03.94-3.22.08-1.36-.08-2.71-.01-4.07.03-.65.01-1.33.13-1.97.09-.49.19-.94.22-1.44.07-1.07-.09-2.15.06-3.22.15-1,.62-1.77,1.17-2.6.29-.44-.19-.97-.65-.85h0Z" fill="#fff"/><path d="M111.69,148.96c-.27-.01-.53-.01-.81.02.16.07.33.14.49.2-.78-.84-2,.1-2.54.76-.62.76-.89,1.71-.97,2.68-.08.93.09,1.84.28,2.75.28,1.34.36,2.68.28,4.05-.16,2.66-.55,5.39-1.41,7.91-.48,1.42-1.07,2.75-1.1,4.28-.02,1.19.28,2.93,1.24,3.74.73.61,1.99.05,1.69-.98-.15-.54-.47-.99-.6-1.54-.14-.56-.15-1.16-.12-1.74.07-1.29.62-2.49.96-3.72.66-2.4.76-4.86,1.01-7.32.12-1.14.2-2.27.11-3.41-.09-1.03-.36-2.04-.41-3.07-.03-.71-.02-1.48.33-2.13.4-.74,1.36-.85,1.46-1.77-.12.2-.23.4-.35.6.2-.09.4-.15.6-.21.63-.17.48-1.08-.15-1.11h0Z" fill="#fff"/><path d="M108.24,174.86c1.1-1.49,2.51-2.81,3.11-4.6.69-2.08-.08-3.91-.44-5.95-.4-2.26.49-4.5.75-6.73.14-1.14.04-2.25-.13-3.39-.18-1.19-.23-2.42-.48-3.6-.14-.66-.99-.51-1.19,0-.42,1.05-.17,2.21,0,3.29.18,1.09.35,2.15.28,3.26-.15,2.2-1,4.34-.73,6.57.24,1.99,1.33,3.81.77,5.84-.5,1.82-1.87,3.21-2.9,4.74-.4.6.54,1.12.95.56h0Z" fill="#fff"/><path d="M127.34,157.79c.83,2.6-.01,5.54-.37,8.16-.42,3.1.02,6.23.04,9.34,0,.81-.01,1.64-.16,2.44-.14.76-.34,1.48-.41,2.25-.1,1.26.14,2.5.54,3.69.38,1.14.85,2.25,1.17,3.42.32,1.18.39,2.39.56,3.6.19,1.29.47,2.56.67,3.85.19,1.21.17,2.25-.15,3.42-.2.73.9,1.24,1.25.53.84-1.69,1.49-3.49,1.96-5.32.23-.88.33-1.79.56-2.67.3-1.12-.11-2.29-.31-3.41-.25-1.41-.04-2.82-.2-4.24-.16-1.52-.56-3-.66-4.52-.23-3.31.14-6.79-.65-10.04-.4-1.66-1.31-3.28-1.27-5.01.02-.85.24-1.66.39-2.49.16-.88.13-1.72-.02-2.6-.14-.82-1.35-.57-1.4.19-.08,1.47-.57,2.91-.69,4.38-.12,1.47.33,2.87.79,4.24.52,1.56.82,3.09.85,4.74.03,1.6-.06,3.2-.07,4.81,0,1.63.19,3.2.5,4.8.26,1.33.34,2.59.32,3.94-.02,1.43.47,2.69.79,4.05.09.38.2.78.26,1.17.06.41-.05.85-.13,1.25-.21,1.14-.51,2.27-.87,3.38-.27.83-.52,1.97-1.24,2.53.32.32.64.64.97.97.65-.74.73-1.89.75-2.83.03-1.23-.1-2.51-.3-3.72-.41-2.42-.86-4.85-1.64-7.17-.39-1.17-.79-2.38-.88-3.62-.12-1.55.34-2.97.53-4.5.41-3.35-.47-6.67-.29-10.02.16-3.03,1.06-6.34-.1-9.28-.27-.68-1.35-.42-1.12.31h0Z" fill="#fff"/></svg>